<?xml version="1.0" encoding="UTF-8"?><svg id="Capa_1" xmlns="http://www.w3.org/2000/svg" viewBox="0 0 70 70"><defs><style>.cls-1{fill:#fff;}</style></defs><path class="cls-1" d="M52.09,0h17.91V70H34.18c.76-.34,1.6-.57,2.27-1.03,1.52-1.07,2.03-2.64,2.03-4.46-.02-12.71,0-25.43,0-38.14v-.9h3.96v.93c0,12.58,0,25.15,0,37.73,0,1.27,.31,1.63,1.46,1.63,8.2,0,16.4,0,24.61,0,1.05,0,1.4-.35,1.4-1.39,0-2.12,0-4.24,0-6.36,0-3.08,0-6.15,0-9.23,0-.73-.44-1.2-1.05-1.18-.58,.01-.98,.46-1.02,1.16-.01,.18,0,.36,0,.55,0,4.51,0,9.02,0,13.53v.79h-23.29v-.93c0-13.85,0-27.7,0-41.55,0-1.48-.14-2.91-1.01-4.17-.01-.02,.03-.08,.05-.14h.67c6.61,0,13.21,0,19.82,0,2.48,0,3.74,1.27,3.74,3.74,0,8,0,15.99,0,23.99,0,.25-.01,.51,.03,.75,.11,.57,.48,.9,1.05,.87,.56-.03,.92-.37,.97-.96,.02-.18,.02-.36,.02-.55,0-8.06,0-16.13,0-24.19,0-.54-.02-1.1-.16-1.62-.64-2.55-2.65-4.08-5.35-4.1-3.62-.02-7.25,0-10.87,0-.24,0-.48,0-.76,0v-.85c0-4.1,0-8.2,0-12.3,0-.65-.11-1.21-.68-1.6Zm5.27,51.44c.4,.15,.7,.23,.98,.36,.49,.23,.89,.17,1.14-.34,.25-.5,.21-.95-.33-1.21-.38-.19-.8-.32-1.21-.43-.31-.08-.59-.07-.69-.5-.04-.18-.4-.4-.62-.39-.21,0-.58,.23-.61,.4-.08,.49-.42,.51-.76,.63-1.12,.38-1.86,1.11-1.97,2.35-.12,1.26,.41,2.15,1.51,2.73,.26,.14,.55,.22,.8,.37,.13,.08,.3,.24,.3,.37,.03,.85,.01,1.7,.01,2.62-.25-.08-.41-.11-.54-.18-.28-.15-.55-.32-.81-.51-.41-.29-.82-.55-1.26-.07-.41,.44-.45,1.13,.07,1.51,.59,.43,1.31,.66,1.97,1,.23,.12,.44,.29,.67,.43,.22,.14,.44,.38,.65,.37,.21,0,.42-.26,.62-.42,.21-.17,.37-.43,.6-.53,.91-.38,1.58-.97,1.87-1.94,.48-1.65-.15-3-1.73-3.77-.25-.13-.61-.36-.64-.58-.08-.71-.03-1.44-.03-2.28Zm2.04-31.45c-1.64,0-3.28,0-4.91,0-1.11,0-1.59,.32-1.59,1.05,0,.73,.47,1.04,1.59,1.04,3.28,0,6.55,0,9.83,0,.27,0,.61,.05,.8-.09,.31-.24,.71-.6,.72-.92,0-.32-.36-.71-.66-.97-.17-.15-.52-.11-.79-.11-1.66,0-3.32,0-4.98,0Zm-.07,19.65c1.77,0,3.55,0,5.32,0,.77,0,1.25-.44,1.23-1.07-.02-.6-.48-.99-1.23-1-3.53,0-7.05,0-10.58,0-.22,0-.46,.04-.65,.14-.46,.24-.63,.66-.5,1.15,.14,.53,.54,.77,1.08,.77,1.77,0,3.55,0,5.32,0Zm.08-5.87c1.73,0,3.46,0,5.19,0,.81,0,1.28-.38,1.29-1,.02-.65-.47-1.06-1.3-1.06-3.46,0-6.92,0-10.37,0-.85,0-1.32,.38-1.31,1.04,0,.66,.46,1.02,1.33,1.02,1.73,0,3.46,0,5.19,0Zm-.05-5.85c.66,0,1.32,0,1.98,0,1.18,0,2.37,.01,3.55-.02,.59-.02,1.02-.46,1-1-.02-.58-.35-.92-.91-1.03-.22-.04-.45-.03-.68-.03-2.59,0-5.19,0-7.78,0-.82,0-1.64-.02-2.46,0-.79,.02-1.26,.52-1.14,1.2,.11,.66,.58,.87,1.19,.87,1.75,0,3.5,0,5.26,0Zm.06,15.51h0c-1.75,0-3.5,0-5.25,0-.83,0-1.26,.36-1.27,1.01,0,.67,.45,1.05,1.3,1.06,.32,0,.64,0,.96,0,3.03,0,6.05,0,9.08,0,.18,0,.36,0,.55,0,.68-.06,1.12-.48,1.11-1.06,0-.58-.45-1-1.14-1-1.77-.02-3.55,0-5.32,0Zm-10.41-23.43h0c-.48,0-.96-.03-1.43,0-.64,.05-1.07,.49-1.07,1.03,0,.55,.41,1,1.07,1.02,.91,.04,1.82,.03,2.73,0,.6-.02,.98-.36,1.02-.98,.03-.58-.35-1-1.01-1.06-.43-.04-.86,0-1.3,0Zm-.09,17.58c-.45,0-.91-.02-1.36,0-.63,.03-1.06,.47-1.06,1.02,0,.52,.42,1,.99,1.02,.95,.04,1.9,.04,2.86,0,.59-.02,.98-.48,.98-1.02,0-.58-.41-.99-1.05-1.02-.45-.02-.91,0-1.36,0Zm-.03-3.81h0c.41,0,.82,0,1.22,0,.05,0,.09,0,.14,0,.65-.04,1.06-.42,1.07-.99,.02-.57-.38-1.03-1.01-1.05-.93-.03-1.86-.03-2.79,0-.62,.02-1.04,.51-1.02,1.06,.02,.53,.43,.95,1.03,.98,.45,.03,.91,0,1.36,0Zm-.02-5.86h0c.5,0,1,.02,1.5,0,.58-.03,.92-.38,.95-.95,.03-.58-.28-1.01-.85-1.05-1.01-.07-2.04-.06-3.05-.01-.56,.03-.88,.45-.9,1.02-.02,.53,.41,.96,1,1,.45,.03,.91,0,1.36,0Zm.09,15.54c-.5,0-1-.02-1.49,0-.59,.03-.92,.41-.95,.97-.03,.53,.27,.98,.81,1.01,1.06,.07,2.13,.07,3.18,0,.56-.04,.85-.49,.8-1.07-.05-.55-.38-.87-.92-.91-.47-.03-.95,0-1.43,0Z"/><path class="cls-1" d="M4.51,70H0V0c8.66,0,17.32,0,25.98,0-.58,.34-.7,.87-.7,1.51,.02,4.24,0,8.47,0,12.71,0,.48-.01,.96,0,1.44,.02,.69,.42,1.14,1.01,1.15,.61,.01,1.02-.45,1.05-1.18,0-.18,0-.36,0-.55,0-4.08,0-8.16,0-12.23v-.74h23.26V14.75c-.32,0-.57,0-.81,0-3.42,0-6.84,0-10.25,0-2.33,0-4.07,.95-5.16,3.05-.09,.18-.4,.36-.61,.36-3.46,.02-6.93,0-10.39,0-4.15,0-8.29,0-12.44,0-.75,0-1.21,.39-1.23,.99-.02,.63,.45,1.05,1.23,1.07,.18,0,.36,0,.55,0,7.25,0,14.49,0,21.74,0,1.94,0,3.16,1.17,3.16,3.08,0,13.85,0,27.7,0,41.55,0,1.83-1.2,3.05-3.05,3.05-9.34,.02-18.68,.01-28.02,0-1.87,0-3.05-1.22-3.1-3.1,0-.11,0-.23,0-.34,0-13.6,0-27.2,0-40.8,0-.2,0-.41,.01-.61,.14-1.69,1.31-2.8,3.01-2.83,.66-.01,1.32,.02,1.98-.01,.67-.03,1.12-.48,1.1-1.07-.02-.57-.44-.97-1.1-.99-.66-.02-1.32-.02-1.98,0-2.96,.06-5.08,2.16-5.08,5.12-.02,13.85-.02,27.7,.02,41.55,0,.81,.23,1.68,.57,2.42,.72,1.59,2.12,2.36,3.78,2.73Zm14.84-4.05c4.44,0,8.89,0,13.33,0,1.39,0,1.64-.25,1.64-1.62,0-8.57,0-17.13,0-25.7,0-1.38-.27-1.66-1.62-1.66-8.93,0-17.86,0-26.79,0-1.32,0-1.62,.29-1.62,1.61,0,8.59,0,17.18,0,25.76,0,1.33,.28,1.61,1.6,1.61,4.49,0,8.98,0,13.46,0Zm-.01-43.64c-4.51,0-9.02,0-13.53,0-1.18,0-1.52,.33-1.52,1.5,0,3.12,0,6.24,0,9.36,0,1.18,.33,1.52,1.49,1.52,9.02,0,18.04,0,27.06,0,1.16,0,1.48-.34,1.48-1.53,0-3.1,0-6.19,0-9.29,0-1.25-.31-1.56-1.59-1.56-4.46,0-8.93,0-13.39,0ZM42.21,6.94c1.64,0,3.28,0,4.91,0,.2,0,.41,0,.61-.03,.59-.09,.96-.42,.94-1.05-.01-.59-.36-.91-.93-.99-.18-.03-.36-.03-.54-.03-3.34,0-6.69,0-10.03,0-.23,0-.46,.02-.68,.07-.51,.11-.79,.47-.79,.97,0,.5,.27,.87,.78,.98,.24,.05,.49,.07,.74,.07,1.66,0,3.32,0,4.98,0Zm.04,5.84c1.61,0,3.23,0,4.84,0,.25,0,.5,0,.75-.04,.51-.08,.81-.4,.84-.92,.03-.52-.21-.87-.71-1.03-.17-.05-.36-.08-.54-.08-3.5,0-7,0-10.51,0-.22,0-.53,.01-.65,.15-.25,.29-.57,.67-.54,.99,.03,.31,.41,.65,.72,.86,.19,.13,.53,.08,.8,.08,1.66,0,3.32,0,4.98,0Zm-10.55-5.87c.5,0,1,.04,1.49,0,.6-.06,.96-.45,.94-1.05-.02-.56-.36-.95-.94-.97-.97-.04-1.95-.04-2.92,0-.58,.02-.92,.4-.94,.97-.02,.61,.34,.99,.94,1.05,.47,.05,.95,0,1.43,0Zm.05,5.85h0c.48,0,.96,.02,1.43,0,.59-.03,.93-.41,.95-.97,.02-.57-.31-1-.88-1.03-1-.06-2-.06-3,0-.6,.03-.97,.52-.92,1.07,.06,.58,.4,.91,.98,.94,.48,.03,.96,0,1.43,0Z"/><path d="M4.51,70c-1.65-.37-3.06-1.14-3.78-2.73-.34-.75-.57-1.61-.57-2.42-.03-13.85-.03-27.7-.02-41.55,0-2.97,2.12-5.06,5.08-5.12,.66-.01,1.32-.02,1.98,0,.65,.02,1.08,.42,1.1,.99,.02,.58-.42,1.04-1.1,1.07-.66,.03-1.32,0-1.98,.01-1.7,.03-2.87,1.14-3.01,2.83-.02,.2-.01,.41-.01,.61,0,13.6,0,27.2,0,40.8,0,.11,0,.23,0,.34,.05,1.87,1.23,3.09,3.1,3.1,9.34,.01,18.68,.01,28.02,0,1.84,0,3.05-1.22,3.05-3.05,0-13.85,0-27.7,0-41.55,0-1.9-1.22-3.08-3.16-3.08-7.25,0-14.49,0-21.74,0-.18,0-.36,0-.55,0-.77-.02-1.25-.44-1.23-1.07,.02-.6,.48-.99,1.23-.99,4.15,0,8.29,0,12.44,0,3.46,0,6.93,.02,10.39,0,.21,0,.52-.18,.61-.36,1.09-2.1,2.83-3.06,5.16-3.05,3.42,.01,6.84,0,10.25,0,.25,0,.5,0,.81,0V2.11H27.36v.74c0,4.08,0,8.16,0,12.23,0,.18,0,.36,0,.55-.03,.73-.45,1.19-1.05,1.18-.58-.01-.98-.46-1.01-1.15-.02-.48,0-.96,0-1.44,0-4.24,0-8.48,0-12.71,0-.64,.12-1.16,.7-1.51h26.12c.57,.39,.68,.95,.68,1.6-.02,4.1,0,8.2,0,12.3v.85c.28,0,.52,0,.76,0,3.62,0,7.25-.01,10.87,0,2.7,.01,4.71,1.55,5.35,4.1,.13,.52,.15,1.08,.16,1.62,0,8.06,0,16.13,0,24.19,0,.18,0,.37-.02,.55-.05,.59-.41,.93-.97,.96-.57,.03-.94-.31-1.05-.87-.05-.24-.03-.5-.03-.75,0-8,0-15.99,0-23.99,0-2.48-1.27-3.74-3.74-3.74-6.61,0-13.21,0-19.82,0h-.67c-.02,.06-.06,.12-.05,.14,.87,1.26,1.01,2.69,1.01,4.17-.01,13.85,0,27.7,0,41.55v.93h23.29v-.79c0-4.51,0-9.02,0-13.53,0-.18,0-.37,0-.55,.04-.69,.44-1.14,1.02-1.16,.6-.02,1.04,.45,1.05,1.18,.01,3.08,0,6.15,0,9.23,0,2.12,0,4.24,0,6.36,0,1.04-.35,1.39-1.4,1.39-8.2,0-16.4,0-24.61,0-1.14,0-1.46-.36-1.46-1.63,0-12.58,0-25.15,0-37.73v-.93h-3.96v.9c0,12.71,0,25.43,0,38.14,0,1.82-.51,3.4-2.03,4.46-.67,.47-1.51,.7-2.27,1.03H4.51ZM36.21,18.91c1.7,1.56,1.77,1.7,2.26,4.05,.03,.14,.2,.35,.3,.35,1.2,.02,2.4,.02,3.64,.02,0-1.23,.05-2.39-.01-3.54-.07-1.5-1.24-2.7-2.76-2.93-1.45-.22-2.85,.61-3.43,2.05Z"/><path d="M57.36,51.44c0,.84-.05,1.57,.03,2.28,.02,.22,.38,.45,.64,.58,1.58,.78,2.21,2.12,1.73,3.77-.28,.97-.96,1.56-1.87,1.94-.23,.1-.39,.36-.6,.53-.2,.16-.41,.41-.62,.42-.21,0-.44-.23-.65-.37-.22-.14-.43-.31-.67-.43-.66-.34-1.38-.57-1.97-1-.52-.38-.48-1.07-.07-1.51,.45-.48,.85-.23,1.26,.07,.26,.18,.53,.35,.81,.51,.13,.07,.29,.1,.54,.18,0-.92,.01-1.77-.01-2.62,0-.13-.17-.29-.3-.37-.25-.15-.54-.23-.8-.37-1.1-.58-1.63-1.47-1.51-2.73,.12-1.24,.85-1.97,1.97-2.35,.34-.12,.68-.14,.76-.63,.03-.17,.4-.4,.61-.4,.21,0,.57,.21,.62,.39,.1,.42,.38,.42,.69,.5,.41,.1,.83,.24,1.21,.43,.54,.26,.58,.72,.33,1.21-.26,.51-.65,.57-1.14,.34-.28-.13-.58-.22-.98-.36Zm-1.46,.21l-.17-.12c-.21,.29-.53,.56-.59,.88-.09,.48,.24,.82,.76,.98v-1.74Zm1.5,6.53l.21,.08c.14-.34,.4-.68,.4-1.01,0-.34-.26-.67-.41-1.01l-.2,.09v1.86Z"/><path d="M59.4,20c1.66,0,3.32,0,4.98,0,.27,0,.62-.04,.79,.11,.3,.25,.67,.64,.66,.97,0,.32-.41,.69-.72,.92-.18,.14-.53,.09-.8,.09-3.28,0-6.55,0-9.83,0-1.12,0-1.59-.31-1.59-1.04,0-.73,.48-1.05,1.59-1.05,1.64,0,3.28,0,4.91,0Z"/><path d="M59.34,39.65c-1.77,0-3.55,0-5.32,0-.53,0-.93-.24-1.08-.77-.13-.49,.03-.91,.5-1.15,.19-.1,.43-.14,.65-.14,3.53,0,7.05,0,10.58,0,.75,0,1.21,.39,1.23,1,.02,.63-.46,1.06-1.23,1.07-1.77,.01-3.55,0-5.32,0Z"/><path d="M59.41,33.79c-1.73,0-3.46,0-5.19,0-.87,0-1.32-.36-1.33-1.02,0-.66,.46-1.04,1.31-1.04,3.46,0,6.92,0,10.37,0,.83,0,1.32,.41,1.3,1.06-.02,.62-.49,.99-1.29,1-1.73,0-3.46,0-5.19,0Z"/><path d="M59.36,27.93c-1.75,0-3.5,0-5.26,0-.61,0-1.08-.21-1.19-.87-.11-.68,.35-1.17,1.14-1.2,.82-.02,1.64,0,2.46,0,2.59,0,5.19,0,7.78,0,.23,0,.46,0,.68,.03,.56,.1,.89,.45,.91,1.03,.02,.53-.4,.98-1,1-1.18,.03-2.37,.02-3.55,.02-.66,0-1.32,0-1.98,0Z"/><path d="M59.42,43.44c1.77,0,3.55-.01,5.32,0,.69,0,1.14,.42,1.14,1,0,.58-.43,1-1.11,1.06-.18,.01-.36,0-.55,0-3.03,0-6.05,0-9.08,0-.32,0-.64,0-.96,0-.85-.02-1.31-.4-1.3-1.06,0-.65,.44-1,1.27-1.01,1.75,0,3.5,0,5.25,0h0Z"/><path d="M49.01,20.01c.43,0,.87-.03,1.3,0,.67,.07,1.05,.48,1.01,1.06-.04,.63-.42,.96-1.02,.98-.91,.03-1.82,.04-2.73,0-.65-.03-1.07-.47-1.07-1.02,0-.54,.43-.98,1.07-1.03,.48-.04,.96,0,1.43,0h0Z"/><path d="M48.92,37.59c.45,0,.91-.02,1.36,0,.64,.03,1.05,.44,1.05,1.02,0,.54-.39,1-.98,1.02-.95,.04-1.9,.04-2.86,0-.58-.02-.99-.5-.99-1.02,0-.55,.43-.99,1.06-1.02,.45-.02,.91,0,1.36,0Z"/><path d="M48.89,33.78c-.45,0-.91,.02-1.36,0-.59-.03-1-.45-1.03-.98-.02-.55,.4-1.03,1.02-1.06,.93-.03,1.86-.03,2.79,0,.63,.02,1.03,.48,1.01,1.05-.02,.58-.42,.95-1.07,.99-.05,0-.09,0-.14,0-.41,0-.82,0-1.22,0h0Z"/><path d="M48.87,27.92c-.45,0-.91,.02-1.36,0-.59-.04-1.02-.47-1-1,.02-.57,.34-.99,.9-1.02,1.02-.05,2.04-.06,3.05,.01,.56,.04,.88,.46,.85,1.05-.03,.58-.37,.92-.95,.95-.5,.03-1,0-1.5,0h0Z"/><path d="M48.96,43.46c.48,0,.95-.02,1.43,0,.55,.04,.88,.36,.92,.91,.05,.58-.24,1.04-.8,1.07-1.06,.07-2.13,.06-3.18,0-.53-.03-.84-.48-.81-1.01,.03-.56,.36-.93,.95-.97,.5-.03,1,0,1.49,0Z"/><path d="M19.35,65.95c-4.49,0-8.98,0-13.46,0-1.32,0-1.6-.28-1.6-1.61,0-8.59,0-17.18,0-25.76,0-1.31,.3-1.61,1.62-1.61,8.93,0,17.86,0,26.79,0,1.35,0,1.62,.28,1.62,1.66,0,8.57,0,17.13,0,25.7,0,1.37-.26,1.62-1.64,1.62-4.44,0-8.89,0-13.33,0Zm3.74-9.15h-7.55v7.03h7.55v-7.03Zm-7.55-17.7v7.04h7.53v-7.04h-7.53Zm16.68,17.7h-6.97v7.02h6.97v-7.02Zm-6.97-17.69v7.02h6.97v-7.02h-6.97Zm-11.86,.02H6.43v7.02h6.94v-7.02Zm0,17.68H6.44v7.03h6.94v-7.03Zm2.14-2.17h7.55v-6.34h-7.55v6.34Zm16.68,.02v-6.34h-6.97v6.34h6.97Zm-25.78-.01h6.94v-6.34H6.42v6.34Z"/><path d="M19.34,22.3c4.46,0,8.93,0,13.39,0,1.27,0,1.59,.31,1.59,1.56,0,3.1,0,6.19,0,9.29,0,1.19-.32,1.53-1.48,1.53-9.02,0-18.04,0-27.06,0-1.16,0-1.49-.34-1.49-1.52,0-3.12,0-6.24,0-9.36,0-1.16,.35-1.5,1.52-1.5,4.51,0,9.02,0,13.53,0Zm12.87,10.24v-8.11H6.45v8.11h25.76Z"/><path d="M42.21,6.94c-1.66,0-3.32,0-4.98,0-.25,0-.5-.02-.74-.07-.51-.12-.78-.48-.78-.98,0-.5,.28-.86,.79-.97,.22-.05,.45-.07,.68-.07,3.34,0,6.69,0,10.03,0,.18,0,.36,0,.54,.03,.57,.08,.92,.4,.93,.99,.02,.63-.35,.96-.94,1.05-.2,.03-.41,.03-.61,.03-1.64,0-3.28,0-4.91,0Z"/><path d="M42.25,12.78c-1.66,0-3.32,0-4.98,0-.27,0-.61,.06-.8-.08-.31-.21-.69-.55-.72-.86-.03-.32,.29-.7,.54-.99,.12-.14,.42-.15,.65-.15,3.5,0,7,0,10.51,0,.18,0,.36,.03,.54,.08,.5,.16,.74,.51,.71,1.03-.03,.52-.33,.84-.84,.92-.25,.04-.5,.04-.75,.04-1.61,0-3.23,0-4.84,0Z"/><path d="M31.7,6.91c-.48,0-.95,.04-1.43,0-.6-.06-.95-.44-.94-1.05,.02-.57,.36-.95,.94-.97,.97-.04,1.95-.04,2.92,0,.58,.02,.93,.42,.94,.97,.02,.6-.34,.99-.94,1.05-.49,.05-1,0-1.49,0Z"/><path d="M31.75,12.76c-.48,0-.96,.02-1.43,0-.58-.03-.92-.37-.98-.94-.05-.54,.31-1.04,.92-1.07,1-.05,2-.05,3,0,.57,.03,.91,.46,.88,1.03-.02,.56-.36,.94-.95,.97-.48,.03-.96,0-1.43,0h0Z"/><path class="cls-1" d="M36.21,18.91c.58-1.44,1.98-2.27,3.43-2.05,1.52,.23,2.68,1.42,2.76,2.93,.06,1.15,.01,2.31,.01,3.54-1.24,0-2.44,0-3.64-.02-.11,0-.27-.21-.3-.35-.48-2.35-.55-2.49-2.26-4.05Z"/><path class="cls-1" d="M55.9,51.65v1.74c-.53-.16-.85-.5-.76-.98,.06-.32,.38-.59,.59-.88l.17,.12Z"/><path class="cls-1" d="M57.4,58.18v-1.86l.2-.09c.15,.34,.41,.67,.41,1.01,0,.34-.26,.68-.4,1.01l-.21-.08Z"/><path class="cls-1" d="M23.09,56.8v7.03h-7.55v-7.03h7.55Z"/><path class="cls-1" d="M15.53,39.1h7.53v7.04h-7.53v-7.04Z"/><path class="cls-1" d="M32.21,56.79v7.02h-6.97v-7.02h6.97Z"/><path class="cls-1" d="M25.24,39.1h6.97v7.02h-6.97v-7.02Z"/><path class="cls-1" d="M13.37,39.12v7.02H6.43v-7.02h6.94Z"/><path class="cls-1" d="M13.38,56.79v7.03H6.44v-7.03h6.94Z"/><path class="cls-1" d="M15.52,54.63v-6.34h7.55v6.34h-7.55Z"/><path class="cls-1" d="M32.2,54.65h-6.97v-6.34h6.97v6.34Z"/><path class="cls-1" d="M6.42,54.64v-6.34h6.94v6.34H6.42Z"/><path class="cls-1" d="M32.21,32.54H6.45v-8.11h25.76v8.11Zm-3.32-1.21h0c.41,0,.82,.03,1.23,0,.55-.05,.87-.4,.91-.94,.03-.54-.25-.98-.79-1.03-.88-.07-1.77-.07-2.65,0-.54,.04-.82,.46-.8,1.01,.02,.55,.33,.9,.88,.95,.4,.04,.82,0,1.23,0Z"/><path d="M28.89,31.33c-.41,0-.82,.03-1.23,0-.55-.06-.86-.4-.88-.95-.02-.55,.26-.97,.8-1.01,.88-.06,1.77-.06,2.65,0,.54,.04,.82,.49,.79,1.03-.03,.54-.35,.89-.91,.94-.41,.04-.82,0-1.23,0h0Z"/></svg>