<?xml version="1.0" encoding="utf-8"?>
<!-- Generator: Adobe Illustrator 26.3.1, SVG Export Plug-In . SVG Version: 6.00 Build 0)  -->
<svg version="1.1" id="_x2018_лой_x5F_1" xmlns="http://www.w3.org/2000/svg" xmlns:xlink="http://www.w3.org/1999/xlink"
	 x="0px" y="0px" viewBox="0 0 3000 2000" style="enable-background:new 0 0 3000 2000;" xml:space="preserve">
<style type="text/css">
	.st0{fill:#FFFFFF;}
	.st1{fill:#EBF3FA;}
	.st2{opacity:0.4;fill:#CDDFF9;}
	.st3{fill:#CDDFF9;}
	.st4{fill:#DFEBFD;}
	.st5{opacity:0.5;}
	.st6{fill:#AAC9F5;}
	.st7{fill:#CDE0FB;}
	.st8{fill:#2B478B;}
	.st9{fill:#DDE7FE;}
	.st10{fill:#AEC3FF;}
	.st11{fill:#233862;}
	.st12{fill:#FFB27D;}
	.st13{fill:#ED985F;}
	.st14{fill:#2C3A64;}
	.st15{fill:#F99746;}
	.st16{fill:#CFDEFF;}
	.st17{fill:#1F1F89;}
	.st18{fill:#F78248;}
	.st19{fill:#F77D48;}
	.st20{fill:#FFB93E;}
	.st21{fill:#FFA412;}
	.st22{fill:#FFEDDC;}
	.st23{fill:#DB6A1D;}
	.st24{fill:#E5C1A1;}
	.st25{fill:#F9DDBF;}
	.st26{opacity:0.5;fill:#E2810E;}
	.st27{fill:#E2810E;}
	.st28{fill:#ED7D2B;}
	.st29{fill:#ED975D;}
	.st30{fill:#8EA3ED;}
	.st31{fill:#2A539B;}
	.st32{fill:#4075C1;}
	.st33{fill:#163560;}
	.st34{fill:#D35B31;}
	.st35{fill:#E8945B;}
	.st36{fill:#2E3552;}
</style>
<rect class="st0" width="3000" height="2000"/>
<g>
	<path class="st1" d="M356.49,1724.17c0,0-285.47-273.24,4.08-668.82C619.28,701.9,426.1,533.02,691.64,360.79
		c268.41-174.09,496.79-68.06,753.71,66.52c256.92,134.58,611.72-187.6,995.07-16.31c383.35,171.28,328.23,433.1,233.4,702.28
		c-80.05,227.24,163.37,391.43,30.59,611.27C2704.42,1724.56,348.33,1716.01,356.49,1724.17z"/>
	<path class="st2" d="M1828.14,732.38c0,0,40.42-169.47,175.43-187.78c0,0,26.27-3.16,34.94,25.77
		c8.67,28.94-43.54,29.02-75.84,40.57C1930.37,622.49,1855.01,671.62,1828.14,732.38z"/>
	<path class="st2" d="M1830.62,764.5c0,0,77.41-156.08,213.08-143.64c0,0,26.31,2.81,28.27,32.96
		c1.96,30.14-48.94,18.51-83.01,22.52C1954.89,680.35,1870.43,711.31,1830.62,764.5z"/>
	<path class="st3" d="M2238.04,1414.52c0,0,40.42-169.47,175.43-187.78c0,0,26.27-3.16,34.94,25.78
		c8.67,28.94-43.54,29.02-75.84,40.57C2340.27,1304.63,2264.91,1353.76,2238.04,1414.52z"/>
	<path class="st4" d="M2242.4,1358.93c0,0-22.15-172.81,97.64-237.7c0,0,23.45-12.25,41.8,11.75c18.35,24-30.45,42.54-56.58,64.78
		C2299.14,1219.99,2246.03,1292.59,2242.4,1358.93z"/>
	<path class="st4" d="M2647.62,1394.65c-15.22-64.67-124.16-48.29-124.16-48.29s-77.29,109.66-98.77,111.61
		s47.75-106.65,47.75-106.65c-41.3-5.4-148.6,41.77-148.6,41.77s2.27,131.05-19.02,127.66c-21.3-3.39,3.91-116.14,3.91-116.14
		c-40.5,10.66-79.5,56.13-79.5,56.13c-49.35,74.52,49.01,133.97,49.01,133.97s-0.19,45.43-30.02,96.55l0,0c0,0-6.66,9.4-13.65,25.52
		l10.93,0.37c0.99-2.9,2.07-5.7,3.25-8.38c0-0.02,0.01-0.03,0.02-0.05c0.02-0.04,0.04-0.08,0.05-0.12c0.81-1.66,1.96-4.03,3.4-6.91
		c0,0,0-0.01,0.01-0.01c0-0.01,0.01-0.01,0.01-0.01c3.56-6.42,5.98-11.17,7.52-14.6c0-0.01,0.01-0.02,0.01-0.03
		c10.7-20.16,26.01-46.38,35.82-51.66c0,0-1.15-1.74-2.17-5.09c0.69,1.62,1.42,3.31,2.17,5.09c17.36,40.68,110.7,50.51,163.19,41.58
		c52.49-8.92,30.26-24.37,2.99-49.15c-27.27-24.78-86.29-20.48-103.35-30.41s8.65-18.42,43.31-14.58
		c34.66,3.84,50.87,39.14,106.83,46.37s102.28-96.79,102.28-96.79c-39.17,10.71-107.95-12.99-110.18-26.43
		c-2.22-13.44,100.65-8.64,116.83-12.1S2662.83,1459.32,2647.62,1394.65z"/>
	<path class="st4" d="M644.29,825.69c15.22-64.67,124.16-48.29,124.16-48.29s77.29,109.66,98.77,111.61
		c21.48,1.95-47.75-106.65-47.75-106.65c41.3-5.4,148.6,41.77,148.6,41.77s-2.28,131.05,19.02,127.66
		c21.3-3.39-3.91-116.14-3.91-116.14c40.5,10.66,79.5,56.13,79.5,56.13c49.35,74.52-49.01,133.97-49.01,133.97
		s0.19,45.43,30.02,96.55c0,0,0,0,0,0s6.66,9.4,13.65,25.52l-10.93,0.37c-0.99-2.9-2.07-5.7-3.25-8.38c0-0.02-0.01-0.03-0.02-0.05
		c-0.02-0.04-0.03-0.08-0.05-0.12c-0.81-1.66-1.96-4.03-3.4-6.91c0,0,0-0.01-0.01-0.01c0-0.01-0.01-0.01-0.01-0.01
		c-3.56-6.42-5.98-11.17-7.52-14.6c-0.01-0.01-0.01-0.02-0.01-0.03c-10.7-20.16-26.02-46.38-35.82-51.66c0,0,1.15-1.74,2.17-5.09
		c-0.69,1.62-1.41,3.31-2.17,5.09c-17.36,40.68-110.7,50.51-163.19,41.58c-52.49-8.92-30.26-24.38-2.99-49.15
		c27.27-24.78,86.29-20.48,103.35-30.41c17.06-9.93-8.65-18.42-43.31-14.58c-34.66,3.84-50.87,39.14-106.83,46.37
		c-55.96,7.23-102.28-96.79-102.28-96.79c39.17,10.71,107.95-12.99,110.18-26.43c2.22-13.44-100.65-8.64-116.83-12.1
		C658.22,921.45,629.07,890.36,644.29,825.69z"/>
	<path class="st4" d="M1306.83,509.64c31.98-61.27,137.59-16.72,137.59-16.72s49.69,130.44,70.84,137.93
		c21.15,7.49-20.69-119.8-20.69-119.8c43.03,5.19,139.05,80.36,139.05,80.36S1597.6,722.93,1619.94,725
		c22.34,2.06,25.95-118.09,25.95-118.09c38.09,21.17,65.7,77.04,65.7,77.04c30.57,87.82-83.89,122.43-83.89,122.43
		s-11.5,45.85,5.41,105.06l0,0c0,0,4.29,11.19,7.19,29.24l-11.12-2.44c-0.25-3.18-0.62-6.27-1.12-9.28c0-0.02,0-0.04-0.01-0.05
		c-0.01-0.04-0.02-0.09-0.02-0.13c-0.38-1.88-0.94-4.56-1.65-7.84c0,0,0-0.01,0-0.01c0-0.01-0.01-0.01,0-0.02
		c-1.94-7.39-3.15-12.79-3.83-16.65c0-0.01,0-0.02,0-0.04c-5.6-23.08-14.29-53.45-22.81-61.3c0,0,1.61-1.46,3.5-4.57
		c-1.12,1.46-2.28,2.98-3.5,4.57c-27.97,36.54-124.6,22.42-175.21-0.08c-50.62-22.5-24.23-32.36,9.63-50.32
		c33.86-17.96,92.26,1.57,112.01-4.05c19.75-5.62-3.98-20.79-39.91-25.84c-35.93-5.05-61.35,26.36-119.63,19.25
		s-78.2-123.9-78.2-123.9c36.73,20.88,112.17,14.69,117.87,1.71c5.7-12.98-99.24-34.61-114.66-42.27
		C1296.22,609.76,1274.84,570.91,1306.83,509.64z"/>
	<g class="st5">
		<path class="st6" d="M2575.8,601.15l61.78,236.33c2.73,10.43-3.58,21.19-14.01,23.92L2209,969.77
			c-10.43,2.73-21.19-3.58-23.92-14.01l-61.78-236.33c-2.72-10.43,3.58-21.19,14.01-23.92l414.58-108.37
			C2562.31,584.42,2573.08,590.72,2575.8,601.15z"/>
		<g>
			<path class="st7" d="M2403.9,868.33l-110.49,28.88c-4.68,1.22-9.5-1.6-10.72-6.28l-0.28-1.06c-1.22-4.68,1.6-9.5,6.28-10.72
				l110.49-28.88c4.67-1.22,9.5,1.6,10.72,6.28l0.28,1.06C2411.4,862.28,2408.57,867.11,2403.9,868.33z"/>
			<g>
				<path class="st7" d="M2346.09,760.48c1.05,4.03,1.21,7.51,0.48,10.45c-0.92,3.71-3.22,6.05-6.91,7.01
					c-3.69,0.96-6.84,0.05-9.46-2.73c-2.08-2.21-3.64-5.32-4.69-9.35c-1.05-4.03-1.22-7.5-0.51-10.4c0.92-3.71,3.23-6.05,6.95-7.02
					c3.72-0.97,6.88-0.06,9.5,2.72C2343.49,753.35,2345.03,756.45,2346.09,760.48z M2341.01,761.79c-0.66-2.53-1.5-4.57-2.52-6.14
					c-1.56-2.35-3.34-3.26-5.34-2.74c-2.05,0.54-3.17,2.19-3.37,4.97c-0.15,1.88,0.11,4.09,0.78,6.64c1.8,6.87,4.45,9.85,7.96,8.93
					c2.03-0.53,3.13-2.21,3.31-5.04C2341.96,766.57,2341.69,764.36,2341.01,761.79z"/>
				<path class="st7" d="M2368.77,754.55c1.05,4.03,1.21,7.51,0.48,10.45c-0.92,3.71-3.22,6.05-6.91,7.01
					c-3.69,0.96-6.84,0.05-9.46-2.73c-2.08-2.21-3.64-5.32-4.69-9.35c-1.05-4.03-1.22-7.5-0.51-10.4c0.92-3.71,3.23-6.05,6.95-7.02
					c3.72-0.97,6.88-0.06,9.5,2.72C2366.17,747.41,2367.72,750.52,2368.77,754.55z M2363.7,755.86c-0.66-2.53-1.5-4.57-2.52-6.14
					c-1.56-2.35-3.34-3.26-5.34-2.74c-2.05,0.54-3.17,2.19-3.37,4.97c-0.15,1.88,0.11,4.09,0.78,6.64c1.8,6.87,4.45,9.85,7.96,8.94
					c2.03-0.53,3.13-2.21,3.31-5.04C2364.65,760.64,2364.38,758.43,2363.7,755.86z"/>
				<path class="st7" d="M2403.16,745.56c1.05,4.03,1.21,7.51,0.48,10.45c-0.92,3.71-3.22,6.05-6.91,7.01
					c-3.69,0.96-6.84,0.05-9.46-2.73c-2.08-2.21-3.64-5.32-4.69-9.35c-1.05-4.03-1.22-7.49-0.51-10.4c0.92-3.71,3.24-6.05,6.95-7.02
					c3.72-0.97,6.88-0.06,9.5,2.72C2400.55,738.43,2402.1,741.53,2403.16,745.56z M2398.08,746.87c-0.66-2.53-1.5-4.57-2.52-6.14
					c-1.56-2.35-3.34-3.26-5.34-2.74c-2.05,0.54-3.17,2.19-3.37,4.97c-0.15,1.88,0.11,4.09,0.78,6.64c1.8,6.87,4.45,9.85,7.96,8.94
					c2.03-0.53,3.13-2.21,3.31-5.04C2399.03,751.66,2398.76,749.45,2398.08,746.87z"/>
				<path class="st7" d="M2425.84,739.63c1.05,4.03,1.21,7.51,0.48,10.45c-0.92,3.71-3.22,6.05-6.91,7.01
					c-3.69,0.96-6.84,0.05-9.46-2.73c-2.08-2.21-3.64-5.32-4.69-9.35c-1.05-4.03-1.22-7.5-0.51-10.4c0.92-3.71,3.24-6.05,6.95-7.02
					c3.72-0.97,6.88-0.06,9.5,2.72C2423.24,732.5,2424.79,735.6,2425.84,739.63z M2420.77,740.94c-0.66-2.53-1.5-4.57-2.52-6.14
					c-1.56-2.35-3.34-3.26-5.34-2.74c-2.05,0.54-3.17,2.19-3.37,4.97c-0.15,1.88,0.11,4.09,0.78,6.64c1.8,6.87,4.45,9.85,7.96,8.93
					c2.03-0.53,3.13-2.21,3.31-5.04C2421.72,745.73,2421.44,743.52,2420.77,740.94z"/>
				<path class="st7" d="M2448.53,733.7c1.05,4.03,1.21,7.51,0.48,10.45c-0.92,3.71-3.22,6.05-6.91,7.01
					c-3.69,0.96-6.84,0.05-9.46-2.73c-2.08-2.21-3.64-5.32-4.69-9.35c-1.05-4.03-1.22-7.5-0.51-10.4c0.92-3.71,3.24-6.05,6.95-7.02
					c3.72-0.97,6.88-0.06,9.5,2.72C2445.93,726.57,2447.48,729.67,2448.53,733.7z M2443.46,735.01c-0.66-2.53-1.5-4.57-2.52-6.14
					c-1.56-2.35-3.34-3.26-5.34-2.74c-2.05,0.54-3.17,2.19-3.37,4.97c-0.15,1.88,0.11,4.09,0.78,6.64c1.8,6.87,4.45,9.85,7.96,8.94
					c2.03-0.53,3.13-2.21,3.31-5.04C2444.4,739.79,2444.13,737.59,2443.46,735.01z"/>
				<path class="st7" d="M2471.22,727.77c1.05,4.03,1.21,7.51,0.48,10.45c-0.92,3.71-3.22,6.05-6.91,7.01
					c-3.69,0.96-6.84,0.05-9.46-2.73c-2.08-2.21-3.64-5.32-4.69-9.35c-1.05-4.03-1.22-7.5-0.51-10.4c0.92-3.71,3.24-6.05,6.95-7.02
					c3.72-0.97,6.88-0.06,9.5,2.72C2468.62,720.64,2470.17,723.74,2471.22,727.77z M2466.15,729.08c-0.66-2.53-1.5-4.57-2.52-6.14
					c-1.56-2.35-3.34-3.26-5.34-2.74c-2.05,0.54-3.17,2.19-3.37,4.97c-0.15,1.88,0.11,4.09,0.78,6.64c1.8,6.87,4.45,9.85,7.96,8.94
					c2.03-0.53,3.13-2.21,3.31-5.04C2467.09,733.86,2466.82,731.65,2466.15,729.08z"/>
				<path class="st7" d="M2505.6,718.78c1.05,4.03,1.21,7.51,0.48,10.45c-0.92,3.71-3.22,6.05-6.91,7.01
					c-3.69,0.96-6.84,0.05-9.46-2.73c-2.08-2.21-3.64-5.32-4.69-9.35c-1.05-4.03-1.22-7.5-0.51-10.4c0.92-3.71,3.24-6.05,6.95-7.02
					c3.72-0.97,6.88-0.06,9.5,2.72C2503,711.65,2504.55,714.76,2505.6,718.78z M2500.53,720.09c-0.66-2.53-1.5-4.57-2.52-6.14
					c-1.56-2.35-3.34-3.26-5.34-2.74c-2.05,0.54-3.18,2.19-3.37,4.97c-0.15,1.88,0.11,4.09,0.78,6.64c1.8,6.87,4.45,9.85,7.96,8.94
					c2.03-0.53,3.13-2.21,3.31-5.04C2501.47,724.88,2501.2,722.67,2500.53,720.09z"/>
				<path class="st7" d="M2528.29,712.85c1.05,4.03,1.21,7.51,0.48,10.45c-0.92,3.71-3.22,6.05-6.91,7.01
					c-3.69,0.96-6.84,0.05-9.46-2.73c-2.08-2.21-3.64-5.32-4.69-9.35c-1.05-4.03-1.22-7.5-0.51-10.4c0.92-3.71,3.24-6.05,6.95-7.02
					c3.71-0.97,6.88-0.06,9.5,2.72C2525.69,705.72,2527.23,708.82,2528.29,712.85z M2523.21,714.16c-0.66-2.53-1.5-4.57-2.52-6.14
					c-1.56-2.35-3.34-3.26-5.34-2.74c-2.05,0.54-3.17,2.19-3.37,4.97c-0.15,1.88,0.11,4.09,0.78,6.64c1.8,6.87,4.45,9.85,7.96,8.93
					c2.03-0.53,3.13-2.21,3.31-5.04C2524.16,718.95,2523.89,716.74,2523.21,714.16z"/>
				<path class="st7" d="M2550.97,706.92c1.05,4.03,1.21,7.51,0.48,10.45c-0.92,3.71-3.22,6.05-6.91,7.01
					c-3.69,0.96-6.84,0.05-9.46-2.73c-2.08-2.21-3.64-5.32-4.69-9.35c-1.05-4.03-1.22-7.5-0.51-10.4c0.92-3.71,3.24-6.05,6.95-7.02
					c3.72-0.97,6.88-0.06,9.5,2.72C2548.37,699.79,2549.92,702.89,2550.97,706.92z M2545.9,708.23c-0.66-2.53-1.5-4.57-2.52-6.14
					c-1.56-2.35-3.34-3.26-5.34-2.74c-2.05,0.54-3.17,2.19-3.37,4.97c-0.15,1.88,0.11,4.09,0.78,6.64c1.8,6.87,4.45,9.85,7.96,8.94
					c2.03-0.53,3.13-2.21,3.31-5.04C2546.85,713.02,2546.58,710.81,2545.9,708.23z"/>
				<path class="st7" d="M2573.66,700.99c1.05,4.03,1.21,7.51,0.48,10.45c-0.92,3.71-3.22,6.05-6.91,7.01
					c-3.69,0.96-6.84,0.05-9.46-2.73c-2.08-2.21-3.64-5.32-4.69-9.35c-1.05-4.03-1.22-7.5-0.51-10.4c0.92-3.71,3.24-6.05,6.95-7.02
					c3.72-0.97,6.88-0.06,9.5,2.72C2571.06,693.86,2572.61,696.96,2573.66,700.99z M2568.59,702.3c-0.66-2.53-1.5-4.57-2.52-6.14
					c-1.56-2.35-3.34-3.26-5.34-2.74c-2.05,0.54-3.17,2.19-3.37,4.97c-0.15,1.88,0.11,4.09,0.78,6.64c1.8,6.87,4.45,9.85,7.96,8.94
					c2.03-0.53,3.13-2.21,3.31-5.04C2569.54,707.09,2569.26,704.88,2568.59,702.3z"/>
			</g>
			<path class="st7" d="M2274.51,698.24l-108.13,28.27c-4.68,1.22-9.5-1.6-10.72-6.28l0,0c-1.22-4.67,1.6-9.5,6.28-10.72
				l108.13-28.27c4.67-1.22,9.5,1.6,10.72,6.28l0,0C2282.01,692.2,2279.19,697.02,2274.51,698.24z"/>
			<g>
				<g>
					<path class="st7" d="M2536.1,649.19c-0.81-3.09-2.62-5.64-5-7.42c-0.69-0.51-1.68-0.31-2.11,0.44l-0.37,0.65
						c-0.36,0.62-0.2,1.42,0.37,1.85c1.72,1.29,3.03,3.15,3.62,5.39c0.59,2.24,0.35,4.5-0.52,6.47c-0.29,0.66-0.03,1.43,0.58,1.79
						l0.64,0.38c0.74,0.44,1.7,0.14,2.05-0.65C2536.58,655.4,2536.91,652.28,2536.1,649.19z"/>
				</g>
				<g>
					<path class="st7" d="M2543.11,647.36c-1.33-5.08-4.43-9.22-8.47-11.94c-0.68-0.46-1.62-0.23-2.03,0.49l-0.21,0.37
						c-0.38,0.66-0.17,1.48,0.46,1.91c3.37,2.29,5.96,5.76,7.07,10c1.11,4.24,0.55,8.53-1.27,12.18c-0.34,0.68-0.11,1.5,0.54,1.89
						l0.36,0.22c0.71,0.42,1.64,0.17,2.01-0.57C2543.75,657.57,2544.43,652.44,2543.11,647.36z"/>
				</g>
				<g>
					<path class="st7" d="M2549.24,645.76c-1.77-6.79-5.98-12.3-11.46-15.86c-0.69-0.45-1.61-0.21-2.02,0.5l0,0
						c-0.38,0.66-0.18,1.5,0.46,1.91c4.89,3.17,8.66,8.1,10.24,14.17c1.59,6.07,0.72,12.21-2,17.37c-0.35,0.67-0.12,1.51,0.53,1.9
						l0,0c0.7,0.42,1.63,0.17,2.01-0.55C2550.05,659.42,2551.02,652.55,2549.24,645.76z"/>
				</g>
				<g>
					<path class="st7" d="M2555.9,644.02c-2.26-8.65-7.68-15.65-14.69-20.08c-0.69-0.44-1.61-0.21-2.02,0.5l-0.36,0.63
						c-0.38,0.66-0.17,1.51,0.47,1.92c6.26,3.97,11.09,10.22,13.11,17.94c2.02,7.72,0.86,15.53-2.65,22.06
						c-0.36,0.67-0.13,1.51,0.53,1.91l0.63,0.38c0.7,0.42,1.62,0.17,2.01-0.55C2556.86,661.42,2558.16,652.66,2555.9,644.02z"/>
				</g>
			</g>
		</g>
	</g>
	<g>
		<path class="st8" d="M2232.25,1698.5H932.53c-18.58,0-33.78-15.2-33.78-33.78V804.03c0-18.58,15.2-33.78,33.78-33.78h1299.72
			c18.58,0,33.78,15.2,33.78,33.78v860.69C2266.03,1683.3,2250.83,1698.5,2232.25,1698.5z"/>
		<rect x="929.59" y="802.69" class="st9" width="1305.6" height="886.38"/>
		<path class="st8" d="M2404.32,1721.85H760.47c-13.41,0-24.29-10.87-24.29-24.29v-10.85c0-13.41,10.87-24.29,24.29-24.29h1643.85
			c13.41,0,24.29,10.87,24.29,24.29v10.85C2428.6,1710.98,2417.73,1721.85,2404.32,1721.85z"/>
		<rect x="929.59" y="802.69" class="st10" width="1305.6" height="862.83"/>
	</g>
	<g>
		<path class="st11" d="M494.16,1726.19c0,0,0-12.77,1.93-17.02c1.93-4.25,8.99-21.54,8.99-21.54h27.62c0,0,5.14,15.78,5.46,20.94
			c0.32,5.16,0,17.63,0,17.63H494.16z"/>
		<path class="st11" d="M669.52,1726.19c0,0,0-12.77-1.93-17.02c-1.93-4.25-8.99-21.54-8.99-21.54h-27.62c0,0-5.14,15.78-5.46,20.94
			s0,17.63,0,17.63H669.52z"/>
		<path class="st12" d="M558.87,1009.17c0,0-0.97,28.45-4.83,41.19l-30.5,20.1l114.82,16.23l-27.38-35.74c0,0-8.27-38.14-3.93-52.25
			C611.38,984.59,558.87,1009.17,558.87,1009.17z"/>
		<path class="st13" d="M558.7,1013.1c0-0.01,9.08,20.65,26.18,20.19c17.1-0.46,20.99-18.73,20.99-18.73L558.7,1013.1z"/>
		<path class="st14" d="M548.5,996.38c0,0-5.52-26.05-9.38-33.94c-3.85-7.89-7.07-43.09,35.65-44.91c0,0,16.38,1.82,25.37-3.34
			c0,0,0,5.16-2.25,6.98c0,0,14.77-3.34,26.34,8.8c11.56,12.14-7.71,54.62-6.74,64.63L548.5,996.38z"/>
		<path class="st12" d="M582.93,1025.31c-12.39-0.21-35.2-15.79-35.2-35.1v-30.12c0-7.05,5.2-12.82,11.56-12.82h47.28
			c6.36,0,11.56,5.77,11.56,12.82v28.42C618.13,1008.75,597.14,1025.55,582.93,1025.31z"/>
		<path class="st14" d="M547.73,976.17c0,0,0.06-18.1,15.24-20.88c15.17-2.78,49.14,8.82,53.96-4.38
			c4.82-13.2-65.65-12.97-69.2-4.55C544.18,954.78,547.73,976.17,547.73,976.17z"/>
		<path class="st8" d="M497.62,1283.78c0,0,4.83,139.41-2.39,218.96c-7.23,79.55,0.05,190.25,0.05,190.25s23.11,12.04,48.16,0
			c0,0,27.47-153.68,27.3-190.25c-0.18-38.95,29.9-212.88,29.9-212.88L497.62,1283.78z"/>
		<path class="st8" d="M668.53,1692.98c0,0-23.1,12.04-48.15,0c0,0-27.47-153.67-27.3-190.25c0.08-16.45-5.24-56.98-11.42-98.31
			c-8.45-56.54-18.49-114.57-18.49-114.57l107.01-6.32c0,0-8.83,139.65-1.6,219.19C675.81,1582.29,668.53,1692.98,668.53,1692.98z"
			/>
		<path class="st15" d="M668.9,1306.97c0,0-45.62,8.35-87.24,8.35c-18.15,0-37.87-1.88-53.58-3.87
			c-17.36-2.18-29.81-4.48-29.81-4.48s-9.25,0.76-3.79-42.32c4.15-32.79,2.85-62.39,1.93-92.85c-0.11-3.39-0.03-7.39,0.19-11.85
			c1.77-35.51,13.14-99.44,21.8-102.87c0,0,12.88-4.52,35.64-6.73c0,0.42,13.21,18.66,28.89,20.71c9.74-3.64,17.39-6.75,28.05-20.12
			c13.5,1.48,28.22,4.01,43.96,8.01c0,0,1.64,6.77,7.82,124.27C665.22,1229.77,682.03,1307.13,668.9,1306.97z"/>
		<path class="st11" d="M593.07,1502.74c0.08-16.45-5.24-56.98-11.42-98.31c6.41-24.69,22.02-48.45,22.02-48.45
			C623.42,1408.32,593.07,1502.74,593.07,1502.74z"/>
		<path class="st15" d="M454.25,1196.95c-1.09,0.86,2.71,9.74,8.3,21.32c11.5,23.79,30.61,58.91,30.61,58.91
			c-2.77,9.91-5.8,16.04-5.8,16.04c-32.14-23.86-52.87-44.16-66.1-59.72c-18.6-21.89-22.41-34.44-22.41-34.44
			c71.57-137.63,121.93-142.71,121.93-142.71l-5.95,90.96C514.83,1147.3,457.56,1194.35,454.25,1196.95z"/>
		<path class="st12" d="M489.34,1278.91c0,0,17.34-15.17,24.41-6.68c7.07,8.5,8.35,21.85,2.89,20.94
			c-5.46-0.91-16.7-5.76-18.31-3.34c-1.61,2.43-8.8,7.07-10.98,3.38C485.16,1289.53,489.34,1278.91,489.34,1278.91z"/>
		<path class="st12" d="M493.15,1277.18c-2.77,9.91-5.8,16.04-5.8,16.04c-32.14-23.86-52.87-44.16-66.1-59.72
			c9.97-0.7,24.53-4.07,41.29-15.23C474.05,1242.05,493.15,1277.18,493.15,1277.18z"/>
		<path class="st15" d="M769.57,1199.05c0,0-3.81,12.55-22.41,34.44c-13.23,15.57-33.95,35.87-66.09,59.72c0,0-3.04-6.13-5.8-16.04
			c0,0,19.11-35.13,30.61-58.91c5.59-11.58,9.38-20.46,8.3-21.32c-2.57-2.02-37.56-30.74-53.16-43.55c-4.53-3.72-7.42-6.1-7.42-6.1
			l-3.57-89.61C650.01,1057.7,698,1061.42,769.57,1199.05z"/>
		<path class="st12" d="M679.07,1278.91c0,0-17.34-15.17-24.41-6.68c-7.07,8.5-8.35,21.85-2.89,20.94
			c5.46-0.91,16.7-5.76,18.31-3.34c1.61,2.43,8.8,7.07,10.98,3.38C683.24,1289.53,679.07,1278.91,679.07,1278.91z"/>
		<path class="st12" d="M675.26,1277.18c2.77,9.91,5.8,16.04,5.8,16.04c32.14-23.86,52.87-44.16,66.1-59.72
			c-9.97-0.7-24.53-4.07-41.29-15.23C694.36,1242.05,675.26,1277.18,675.26,1277.18z"/>
		<path class="st8" d="M555.64,1043.42c0,0-5.1,2.01-6.54,7.47c0,0,20.45,19.87,33.83,20.18L555.64,1043.42z"/>
		<path class="st8" d="M582.93,1071.07l26.39-28.65c0,0,5.45,3.39,5.37,8.96C614.69,1051.38,594.28,1071.83,582.93,1071.07z"/>
		<path class="st8" d="M578.17,1068.96c0,0-20.15,164.31-13.13,184.33c3.61,10.31,8.45,19.23,12.29,25.45
			c2.76,4.48,9.62,4.47,12.36-0.03c5.35-8.77,12.34-21.47,12.34-27.92c0-10.44-15.29-181.99-15.29-181.99L578.17,1068.96z"/>
		<path class="st8" d="M572.9,1060.9c0,0,12.18-1.15,19.59-0.44c1.47,0.14,2.29,1.66,1.57,2.88c-2.08,3.53-6.32,9.66-10.75,9.66
			C577.08,1073,567.38,1061.31,572.9,1060.9z"/>
		<path class="st0" d="M573.05,1005.91c0,0,3.86,4.93,10.6,4.76c6.74-0.18,9.91-4.76,9.91-4.76S582.19,1004.15,573.05,1005.91z"/>
	</g>
	<g>
		<g>
			<rect x="1237.18" y="702.12" class="st16" width="844.37" height="899.18"/>
			<g>
				<path class="st8" d="M1842.29,1449.91h-160.89c-0.14,0-0.25-0.11-0.25-0.25v-9.94c0-0.14,0.11-0.25,0.25-0.25h160.89
					c0.14,0,0.25,0.11,0.25,0.25v9.94C1842.54,1449.79,1842.43,1449.91,1842.29,1449.91z"/>
				<path class="st8" d="M1882.28,1426.17h-200.88c-0.13,0-0.24-0.11-0.24-0.24v-9.97c0-0.13,0.11-0.24,0.24-0.24h200.88
					c0.13,0,0.24,0.11,0.24,0.24v9.97C1882.51,1426.06,1882.41,1426.17,1882.28,1426.17z"/>
			</g>
			<g>
				<rect x="1310.42" y="853.96" class="st10" width="697.88" height="491.01"/>
				<g>
					<g>
						<rect x="1474.07" y="826.25" class="st17" width="1.12" height="518.72"/>
					</g>
					<g>
						<rect x="1911.08" y="826.25" class="st17" width="1.12" height="518.72"/>
					</g>
					<g>
						<rect x="1548.28" y="826.25" class="st17" width="1.12" height="518.72"/>
					</g>
					<g>
						<rect x="1310.42" y="1253.1" class="st17" width="697.88" height="1.12"/>
					</g>
					<g>
						<rect x="1310.42" y="1150.34" class="st17" width="697.88" height="1.12"/>
					</g>
					<g>
						<rect x="1310.42" y="1047.58" class="st17" width="697.88" height="1.12"/>
					</g>
					<g>
						<rect x="1310.42" y="944.82" class="st17" width="697.88" height="1.12"/>
					</g>
				</g>
				<rect x="1310.42" y="765.17" class="st18" width="697.88" height="99.64"/>
			</g>
			<g>
				<path class="st19" d="M1942.43,1516.89c-15.73,4.81-31.08,7.33-43.15,6.38c-18.4-1.45-28.75-10.55-29.17-25.64
					c-0.33-11.97,4.93-22.45,15.24-30.95c-0.1-0.82-0.18-1.63-0.25-2.45c-0.68-8.44,1.23-14.04,5.67-16.66
					c7.18-4.23,17.85,1.56,18.3,1.8l-2.39,3.85c-2.39-1.31-9.49-4.21-13.42-1.87c-3.39,2-3.79,7.53-3.5,12.01
					c8.39-5.73,19.35-10.42,32.71-13.82c9.88-2.53,20.88-4.21,30.82-4.97c0.05-1.05,0.14-1.99,0.27-2.76
					c0.32-2.07,1.09-4.49,3.24-4.98c0.82-0.17,2.4-0.15,3.81,1.88c0.9,1.3,1.36,3.18,1.45,5.42c3.42-0.07,6.61-0.02,9.43,0.18
					c0.03-0.06,0.05-0.11,0.08-0.17c-0.69-5.29-0.2-11.52,0.73-15.54c1.2-5.17,3.16-7.78,5.91-8.03c1.65-0.14,3.09,0.7,3.74,2.19
					c1.54,3.5-1.35,12.97-5.52,22.05c0,0.01,0,0.03,0.01,0.05c3.92,0.62,6.58,1.65,7.41,3.08c0.63,1.07,0.71,2.74-0.95,4.19
					c-3.16,2.75-5.69,2.06-6.91,1.4c-1.03-0.56-1.87-1.51-2.53-2.74c-3.16,5.91-6.61,10.96-9.31,13.1c-2.49,1.98-4.68,1.19-5.5,0.75
					c-0.43-0.23-0.83-0.53-1.2-0.9c-1.08,2.48-2.29,4.87-3.6,7.03c-4.94,8.19-10.51,12.41-16.1,12.16c-2.29-0.1-4.32-0.96-6.03-2.52
					c-3.09,6.32-6.98,12.34-10.84,16.83c-3.93,4.57-8.94,6.25-14.12,4.73c-9.17-2.7-17.46-15.23-20.56-30.06
					c-7.83,7.23-11.65,15.8-11.38,25.62c0.35,12.87,8.71,20.03,24.84,21.3c40.7,3.2,112.07-32.54,117.48-58.84l0,0
					C2012.76,1481.37,1978.89,1505.73,1942.43,1516.89z M1890.37,1468.47c2.48,15.65,10.78,27.15,17.82,29.23
					c3.3,0.97,6.34-0.13,9.04-3.27c4.59-5.34,8.54-11.94,11.38-18.37c-0.82-1.66-1.47-3.61-1.96-5.82
					c-1.14-5.16-1.33-12.24,0.02-17.1c-7.6,1.77-15.22,4.17-22.28,7.33C1898.97,1462.87,1894.3,1465.54,1890.37,1468.47z
					 M1933.82,1475.79c1.01,1.46,2.37,2.6,4.16,2.67c3.58,0.14,7.88-3.46,11.78-9.91c2.03-3.36,3.65-6.95,4.88-10.4
					c-0.79-2.8-1.19-6.07-1.33-9.07c-5.24,0.4-10.95,1.07-16.83,2.07C1939.54,1456.78,1937.77,1466.3,1933.82,1475.79z
					 M1959.56,1458.23c0.74,2.1,1.4,2.5,1.4,2.51c2.64-2.14,5.66-6.78,8.4-12.07c-2.24-0.08-4.77-0.09-7.53-0.02
					C1961.46,1451.62,1960.66,1454.92,1959.56,1458.23z M1931.83,1452.5c-1.2,2.37-2.07,9.95-0.6,16.69
					C1933.59,1461.79,1934.08,1455.39,1931.83,1452.5z M1978.35,1449.65c0.01,0.01,0.02,0,0.03,0.01
					C1978.36,1449.65,1978.35,1449.65,1978.35,1449.65z M1977.65,1426.75c-0.42,1.15-0.82,2.77-1.12,4.67
					C1977.08,1429.58,1977.47,1427.98,1977.65,1426.75z"/>
			</g>
		</g>
		<g>
			<path class="st1" d="M1364.76,797.22h6.24v35.54h-6.24V797.22z"/>
			<path class="st1" d="M1380.49,797.22h5.79l19.04,24.57v-24.57h6.14v35.54h-5.23l-19.6-25.28v25.28h-6.14V797.22z"/>
			<path class="st1" d="M1417.55,797.22h6.9l10.71,27.31l10.66-27.31h6.75l-14.77,35.79h-5.48L1417.55,797.22z"/>
			<path class="st1" d="M1454.92,814.99c0-10,7.72-18.38,18.63-18.38c10.92,0,18.53,8.27,18.53,18.38c0,10-7.72,18.38-18.63,18.38
				S1454.92,825.09,1454.92,814.99z M1485.53,814.99c0-6.9-5.03-12.64-12.08-12.64s-11.98,5.64-11.98,12.64
				c0,6.9,5.03,12.64,12.08,12.64C1480.61,827.63,1485.53,821.99,1485.53,814.99z"/>
			<path class="st1" d="M1500,797.22h6.24v35.54H1500V797.22z"/>
			<path class="st1" d="M1514.16,814.99c0-10.1,7.56-18.38,18.33-18.38c6.55,0,10.51,2.28,13.91,5.53l-4.01,4.62
				c-2.84-2.64-5.89-4.42-9.95-4.42c-6.8,0-11.73,5.58-11.73,12.64c0,6.96,4.92,12.64,11.73,12.64c4.37,0,7.16-1.78,10.2-4.62
				l4.01,4.06c-3.71,3.86-7.77,6.3-14.42,6.3C1521.88,833.37,1514.16,825.29,1514.16,814.99z"/>
			<path class="st1" d="M1553.2,797.22h26.35v5.58h-20.1v9.24h17.82v5.58h-17.82v9.54h20.36v5.58h-26.6V797.22z"/>
		</g>
	</g>
	<g>
		<path class="st19" d="M1183.86,1724.05l-356.68-2.22c-15.9-0.1-28.71-13.07-28.61-28.97l2.33-374.89
			c0.1-15.9,13.07-28.71,28.97-28.61l356.69,2.22c15.9,0.1,28.71,13.07,28.61,28.97l-2.33,374.89
			C1212.73,1711.34,1199.76,1724.15,1183.86,1724.05z"/>
		<path class="st10" d="M1178.46,1389.73l-341.72-2.12c-6.99-0.04-12.62-5.75-12.58-12.74l0.27-43.39
			c0.04-6.99,5.75-12.62,12.74-12.58l341.72,2.12c6.99,0.04,12.62,5.75,12.58,12.74l-0.27,43.39
			C1191.15,1384.14,1185.45,1389.78,1178.46,1389.73z"/>
		<g>
			<g>
				<path class="st8" d="M951.06,1556.81l-29.26-0.18c-7.31-0.04-13.2-6.01-13.15-13.32l0.18-29.26c0.05-7.31,6.01-13.2,13.32-13.15
					l29.26,0.18c7.31,0.05,13.2,6.01,13.15,13.32l-0.18,29.26C964.34,1550.97,958.37,1556.86,951.06,1556.81z"/>
				<path class="st8" d="M950.64,1625.2l-29.26-0.18c-7.31-0.04-13.2-6.01-13.15-13.32l0.18-29.26c0.05-7.31,6.01-13.2,13.32-13.15
					l29.26,0.18c7.31,0.04,13.2,6.01,13.15,13.32l-0.18,29.26C963.91,1619.36,957.95,1625.25,950.64,1625.2z"/>
				<path class="st8" d="M950.21,1693.59l-29.26-0.18c-7.31-0.04-13.2-6.01-13.15-13.32l0.18-29.26c0.05-7.31,6.01-13.2,13.32-13.15
					l29.26,0.18c7.31,0.05,13.2,6.01,13.15,13.32l-0.18,29.26C963.49,1687.74,957.52,1693.63,950.21,1693.59z"/>
				<path class="st8" d="M1024.71,1557.27l-29.26-0.18c-7.31-0.05-13.2-6.01-13.15-13.32l0.18-29.26
					c0.05-7.31,6.01-13.2,13.32-13.15l29.26,0.18c7.31,0.04,13.2,6.01,13.15,13.32l-0.18,29.26
					C1037.98,1551.43,1032.02,1557.32,1024.71,1557.27z"/>
				<path class="st8" d="M1024.29,1625.66l-29.26-0.18c-7.31-0.04-13.2-6.01-13.15-13.32l0.18-29.26
					c0.05-7.31,6.01-13.2,13.32-13.15l29.26,0.18c7.31,0.04,13.2,6.01,13.15,13.32l-0.18,29.26
					C1037.56,1619.81,1031.6,1625.7,1024.29,1625.66z"/>
				<path class="st8" d="M1023.86,1694.04l-29.26-0.18c-7.31-0.05-13.2-6.01-13.15-13.32l0.18-29.26
					c0.05-7.31,6.01-13.2,13.32-13.15l29.26,0.18c7.31,0.04,13.2,6.01,13.15,13.32l-0.18,29.26
					C1037.13,1688.2,1031.17,1694.09,1023.86,1694.04z"/>
				<path class="st8" d="M1095.3,1626.1l-29.26-0.18c-7.31-0.05-13.2-6.01-13.15-13.32l0.18-29.26c0.05-7.31,6.01-13.2,13.32-13.15
					l29.26,0.18c7.31,0.04,13.2,6.01,13.15,13.32l-0.18,29.26C1108.58,1620.26,1102.61,1626.14,1095.3,1626.1z"/>
				<path class="st8" d="M1094.88,1694.49l-29.26-0.18c-7.31-0.04-13.2-6.01-13.15-13.32l0.18-29.26
					c0.05-7.31,6.01-13.2,13.32-13.15l29.26,0.18c7.31,0.04,13.2,6.01,13.15,13.32l-0.18,29.26
					C1108.15,1688.64,1102.19,1694.53,1094.88,1694.49z"/>
			</g>
			<g>
				<path class="st15" d="M881.2,1476.08l-29.26-0.18c-7.31-0.05-13.2-6.01-13.15-13.32l0.11-17.35c0.05-7.31,6.01-13.2,13.32-13.15
					l29.26,0.18c7.31,0.05,13.2,6.01,13.15,13.32l-0.11,17.35C894.48,1470.24,888.51,1476.13,881.2,1476.08z"/>
				<path class="st15" d="M880.76,1547.79l-29.26-0.18c-7.31-0.04-13.2-6.01-13.15-13.32l0.11-17.35
					c0.05-7.31,6.01-13.2,13.32-13.15l29.26,0.18c7.31,0.04,13.2,6.01,13.15,13.32l-0.11,17.35
					C894.03,1541.95,888.07,1547.83,880.76,1547.79z"/>
				<path class="st15" d="M880.31,1619.49l-29.26-0.18c-7.31-0.05-13.2-6.01-13.15-13.32l0.11-17.35
					c0.05-7.31,6.01-13.2,13.32-13.15l29.26,0.18c7.31,0.05,13.2,6.01,13.15,13.32l-0.11,17.35
					C893.59,1613.65,887.62,1619.54,880.31,1619.49z"/>
				<path class="st15" d="M879.87,1691.2l-29.26-0.18c-7.31-0.04-13.2-6.01-13.15-13.32l0.11-17.35c0.05-7.31,6.01-13.2,13.32-13.15
					l29.26,0.18c7.31,0.04,13.2,6.01,13.15,13.32l-0.11,17.35C893.14,1685.36,887.18,1691.24,879.87,1691.2z"/>
				<path class="st15" d="M951.49,1488.43l-29.26-0.18c-7.31-0.05-13.2-6.01-13.15-13.32l0.18-29.25
					c0.05-7.31,6.01-13.2,13.32-13.15l29.26,0.18c7.31,0.05,13.2,6.01,13.15,13.32l-0.18,29.25
					C964.76,1482.58,958.8,1488.47,951.49,1488.43z"/>
				<path class="st15" d="M1025.14,1488.88l-29.26-0.18c-7.31-0.05-13.2-6.01-13.15-13.32l0.18-29.25
					c0.05-7.31,6.01-13.2,13.32-13.15l29.26,0.18c7.31,0.05,13.2,6.01,13.15,13.32l-0.18,29.26
					C1038.41,1483.04,1032.45,1488.93,1025.14,1488.88z"/>
				<path class="st15" d="M1096.15,1489.33l-29.26-0.18c-7.31-0.04-13.2-6.01-13.15-13.32l0.18-29.26
					c0.05-7.31,6.01-13.2,13.32-13.15l29.26,0.18c7.31,0.05,13.2,6.01,13.15,13.32l-0.18,29.25
					C1109.43,1483.48,1103.46,1489.37,1096.15,1489.33z"/>
				<path class="st15" d="M1162.47,1558.46l-29.26-0.18c-7.31-0.04-13.2-6.01-13.15-13.32l0.18-29.26
					c0.05-7.31,6.01-13.2,13.32-13.15l29.26,0.18c7.31,0.04,13.2,6.01,13.15,13.32l-0.18,29.26
					C1175.74,1552.61,1169.78,1558.5,1162.47,1558.46z"/>
				<path class="st15" d="M1162.89,1490.07l-29.26-0.18c-7.31-0.05-13.2-6.01-13.15-13.32l0.18-29.26
					c0.05-7.31,6.01-13.2,13.32-13.15l29.26,0.18c7.31,0.04,13.2,6.01,13.15,13.32l-0.18,29.26
					C1176.17,1484.23,1170.2,1490.12,1162.89,1490.07z"/>
				<path class="st15" d="M1161.62,1695.23l-29.26-0.18c-7.31-0.05-13.2-6.01-13.15-13.32l0.61-97.64
					c0.05-7.31,6.01-13.2,13.32-13.15l29.26,0.18c7.31,0.04,13.2,6.01,13.15,13.32l-0.61,97.64
					C1174.89,1689.39,1168.93,1695.28,1161.62,1695.23z"/>
			</g>
		</g>
		<g>
			<path class="st8" d="M944.03,1353.37l0.06-9.37l1.36-3.56c1.19,0.31,1.93,1.05,2.22,2.25l-0.08,12.5l-0.9,0.89L944.03,1353.37z
				 M946.69,1356.95l0.89,0.9l-0.08,12.5c-0.31,1.19-1.05,1.93-2.25,2.22l-1.32-3.58l0.06-9.37L946.69,1356.95z"/>
			<path class="st8" d="M959.7,1344.98l-0.05,8.48l-2.7,2.66l-0.89-0.9l0.07-11.6L959.7,1344.98z M955.98,1369.51l0.07-11.6
				l0.9-0.89l2.66,2.69l-0.05,8.48L955.98,1369.51z M971.58,1372.73l-13.39-0.08c-1.19-0.3-1.93-1.05-2.22-2.25l3.58-1.32
				l10.71,0.07L971.58,1372.73z M970.42,1344.16l-10.67-0.07l-3.56-1.36c0.3-1.19,1.05-1.93,2.25-2.22l13.34,0.08L970.42,1344.16z
				 M971.25,1353.54l0.06-9.37l1.36-3.56c1.19,0.3,1.93,1.05,2.22,2.25l-0.08,12.5l-0.9,0.89L971.25,1353.54z M973.91,1357.12
				l0.89,0.9l-0.08,12.5c-0.31,1.19-1.05,1.93-2.25,2.22l-1.32-3.58l0.06-9.37L973.91,1357.12z"/>
			<path class="st8" d="M986.93,1345.15l-0.05,8.48l-2.69,2.66l-0.89-0.9l0.07-11.6L986.93,1345.15z M983.2,1369.68l0.07-11.6
				l0.9-0.89l2.66,2.69l-0.05,8.48L983.2,1369.68z M998.8,1372.9l-13.39-0.08c-1.19-0.3-1.93-1.05-2.22-2.25l3.58-1.32l10.71,0.07
				L998.8,1372.9z M997.64,1344.33l-10.67-0.07l-3.56-1.36c0.3-1.19,1.05-1.93,2.25-2.22l13.34,0.08L997.64,1344.33z
				 M998.48,1353.71l0.06-9.37l1.36-3.56c1.19,0.3,1.93,1.05,2.22,2.25l-0.08,12.5l-0.9,0.89L998.48,1353.71z M1001.13,1357.29
				l0.89,0.9l-0.08,12.5c-0.31,1.19-1.05,1.93-2.25,2.22l-1.32-3.58l0.06-9.37L1001.13,1357.29z"/>
			<path class="st8" d="M1014.15,1345.32l-0.05,8.48l-2.69,2.66l-0.89-0.9l0.07-11.6L1014.15,1345.32z M1010.43,1369.85l0.07-11.6
				l0.9-0.89l2.66,2.69l-0.05,8.48L1010.43,1369.85z M1026.03,1373.07l-13.39-0.08c-1.19-0.3-1.93-1.05-2.22-2.25l3.58-1.32
				l10.71,0.07L1026.03,1373.07z M1024.87,1344.5l-10.67-0.07l-3.56-1.36c0.3-1.19,1.05-1.93,2.25-2.22l13.34,0.08L1024.87,1344.5z
				 M1025.7,1353.87l0.06-9.37l1.36-3.56c1.19,0.31,1.93,1.05,2.22,2.25l-0.08,12.5l-0.9,0.89L1025.7,1353.87z M1028.36,1357.46
				l0.89,0.9l-0.08,12.5c-0.31,1.19-1.05,1.93-2.25,2.22l-1.32-3.58l0.06-9.37L1028.36,1357.46z"/>
			<path class="st8" d="M1041.37,1345.49l-0.05,8.48l-2.69,2.66l-0.89-0.9l0.07-11.6L1041.37,1345.49z M1037.65,1370.01l0.07-11.6
				l0.9-0.89l2.66,2.69l-0.05,8.48L1037.65,1370.01z M1053.25,1373.24l-13.39-0.08c-1.19-0.3-1.93-1.05-2.22-2.25l3.58-1.32
				l10.71,0.07L1053.25,1373.24z M1052.09,1344.67l-10.67-0.07l-3.56-1.36c0.3-1.19,1.05-1.93,2.25-2.22l13.34,0.08L1052.09,1344.67
				z M1052.92,1354.04l0.06-9.37l1.36-3.56c1.19,0.3,1.93,1.05,2.22,2.25l-0.08,12.5l-0.9,0.89L1052.92,1354.04z M1055.58,1357.63
				l0.89,0.9l-0.08,12.5c-0.31,1.19-1.05,1.93-2.25,2.22l-1.32-3.58l0.06-9.37L1055.58,1357.63z"/>
			<path class="st8" d="M1068.6,1345.66l-0.05,8.48l-2.69,2.66l-0.89-0.9l0.07-11.6L1068.6,1345.66z M1064.87,1370.18l0.07-11.6
				l0.9-0.89l2.66,2.69l-0.05,8.48L1064.87,1370.18z M1080.48,1373.41l-13.39-0.08c-1.19-0.3-1.93-1.05-2.22-2.25l3.58-1.32
				l10.71,0.07L1080.48,1373.41z M1079.31,1344.83l-10.67-0.07l-3.56-1.36c0.3-1.19,1.05-1.93,2.25-2.22l13.34,0.08L1079.31,1344.83
				z M1080.15,1354.21l0.06-9.37l1.36-3.56c1.19,0.3,1.93,1.05,2.22,2.25l-0.08,12.5l-0.9,0.89L1080.15,1354.21z M1082.8,1357.8
				l0.89,0.9l-0.08,12.5c-0.31,1.19-1.05,1.93-2.25,2.22l-1.32-3.58l0.06-9.37L1082.8,1357.8z"/>
			<path class="st8" d="M1095.82,1345.83l-0.05,8.48l-2.69,2.66l-0.89-0.9l0.07-11.6L1095.82,1345.83z M1092.1,1370.35l0.07-11.6
				l0.9-0.89l2.66,2.69l-0.05,8.48L1092.1,1370.35z M1107.7,1373.57l-13.39-0.08c-1.19-0.3-1.93-1.05-2.22-2.25l3.58-1.32
				l10.71,0.07L1107.7,1373.57z M1106.54,1345l-10.67-0.07l-3.56-1.36c0.3-1.19,1.05-1.93,2.25-2.22l13.34,0.08L1106.54,1345z
				 M1107.37,1354.38l0.06-9.37l1.36-3.56c1.19,0.31,1.93,1.05,2.22,2.25l-0.08,12.5l-0.9,0.89L1107.37,1354.38z M1110.03,1357.97
				l0.89,0.9l-0.08,12.5c-0.31,1.19-1.05,1.93-2.25,2.22l-1.32-3.58l0.06-9.37L1110.03,1357.97z"/>
			<path class="st8" d="M1123.04,1346l-0.05,8.48l-2.7,2.66l-0.89-0.9l0.07-11.6L1123.04,1346z M1119.32,1370.52l0.07-11.6l0.9-0.89
				l2.66,2.69l-0.05,8.48L1119.32,1370.52z M1134.92,1373.74l-13.39-0.08c-1.19-0.3-1.93-1.05-2.22-2.25l3.58-1.32l10.71,0.07
				L1134.92,1373.74z M1133.76,1345.17l-10.67-0.07l-3.56-1.36c0.3-1.19,1.05-1.93,2.25-2.22l13.34,0.08L1133.76,1345.17z
				 M1134.6,1354.55l0.06-9.37l1.36-3.56c1.19,0.3,1.93,1.05,2.22,2.25l-0.08,12.5l-0.9,0.89L1134.6,1354.55z M1137.25,1358.14
				l0.89,0.9l-0.08,12.5c-0.31,1.19-1.05,1.93-2.25,2.22l-1.32-3.58l0.06-9.37L1137.25,1358.14z"/>
			<path class="st8" d="M1150.27,1346.17l-0.05,8.48l-2.7,2.66l-0.89-0.9l0.07-11.6L1150.27,1346.17z M1146.54,1370.69l0.07-11.6
				l0.9-0.89l2.66,2.69l-0.05,8.48L1146.54,1370.69z M1162.15,1373.91l-13.39-0.08c-1.19-0.3-1.93-1.05-2.22-2.25l3.58-1.32
				l10.71,0.07L1162.15,1373.91z M1160.99,1345.34l-10.67-0.07l-3.56-1.36c0.3-1.19,1.05-1.93,2.25-2.22l13.34,0.08L1160.99,1345.34
				z M1161.82,1354.72l0.06-9.37l1.36-3.56c1.19,0.31,1.93,1.05,2.22,2.25l-0.08,12.5l-0.9,0.89L1161.82,1354.72z M1164.47,1358.31
				l0.89,0.9l-0.08,12.5c-0.31,1.19-1.05,1.93-2.25,2.22l-1.32-3.58l0.06-9.37L1164.47,1358.31z"/>
		</g>
	</g>
	<g>
		<g>
			<g>
				<g>
					<path class="st20" d="M1537.84,1702.46v14.52c0,1.15-0.42,2.23-1.14,3.12c-0.76,0.94-1.85,1.68-3.12,2.09
						c-0.4,0.14-0.8,0.23-1.22,0.29c-0.39,0.06-0.77,0.09-1.18,0.09h-275.29c-3.33,0-6.11-2.07-6.6-4.76
						c-0.03-0.18-0.05-0.36-0.06-0.55c0-0.09-0.01-0.19-0.01-0.28v-14.52c0-0.09,0.01-0.19,0.01-0.28c0.01-0.19,0.03-0.37,0.06-0.55
						c0.49-2.68,3.27-4.75,6.6-4.75h275.29c0.4,0,0.79,0.03,1.18,0.09c0.42,0.06,0.83,0.16,1.22,0.29c1.27,0.41,2.37,1.15,3.12,2.09
						C1537.42,1700.23,1537.84,1701.31,1537.84,1702.46z"/>
					<path class="st21" d="M1402.65,1722.57h-147.49c-2.73,0-5.04-1.77-5.72-4.14c-0.07-0.2-0.12-0.41-0.16-0.62
						c-0.03-0.18-0.05-0.36-0.06-0.55c0-0.09-0.01-0.19-0.01-0.28v-14.52c0-0.09,0.01-0.19,0.01-0.28c0.01-0.19,0.03-0.37,0.06-0.55
						c0.04-0.21,0.1-0.41,0.16-0.62c0.69-2.37,2.99-4.14,5.72-4.14h129.38C1386.61,1704.44,1391.42,1714.9,1402.65,1722.57z"/>
					<g>
						<rect x="1501.21" y="1696.87" class="st21" width="3.13" height="25.7"/>
						<rect x="1490.62" y="1696.87" class="st21" width="3.13" height="25.7"/>
						<rect x="1477.92" y="1696.87" class="st21" width="3.13" height="25.7"/>
						<rect x="1458.45" y="1696.87" class="st21" width="3.13" height="25.7"/>
						<rect x="1437.86" y="1696.87" class="st21" width="3.13" height="25.7"/>
						<rect x="1406.3" y="1696.87" class="st21" width="3.13" height="25.7"/>
						<rect x="1376.75" y="1696.87" class="st21" width="3.13" height="25.7"/>
						<rect x="1350.37" y="1696.87" class="st21" width="3.13" height="25.7"/>
						<rect x="1511.29" y="1696.87" class="st21" width="3.13" height="25.7"/>
						<rect x="1517.95" y="1696.87" class="st21" width="3.13" height="25.7"/>
						<rect x="1524.38" y="1696.87" class="st21" width="3.13" height="25.7"/>
						<path class="st21" d="M1532.35,1696.96v25.52c-0.38,0.06-0.77,0.09-1.17,0.09h-1.96v-25.7h1.96
							C1531.58,1696.87,1531.97,1696.9,1532.35,1696.96z"/>
						<path class="st21" d="M1536.69,1699.34v20.76c-0.76,0.94-1.85,1.68-3.13,2.09v-24.95
							C1534.85,1697.66,1535.94,1698.4,1536.69,1699.34z"/>
					</g>
				</g>
				<g>
					<path class="st20" d="M1508.4,1676.77v14.51c0,1.16-0.42,2.24-1.14,3.13c-0.19,0.23-0.4,0.46-0.63,0.66
						c-0.69,0.62-1.54,1.12-2.5,1.43c-0.39,0.13-0.8,0.22-1.22,0.28c-0.38,0.06-0.77,0.09-1.17,0.09h-275.3
						c-3.32,0-6.1-2.08-6.59-4.76c-0.03-0.18-0.05-0.36-0.06-0.54c-0.01-0.09-0.01-0.19-0.01-0.29v-14.51c0-0.1,0-0.2,0.01-0.29
						c0.01-0.18,0.03-0.36,0.06-0.54c0.49-2.68,3.27-4.76,6.59-4.76h275.3c0.17,0,0.35,0.01,0.52,0.03c0.07,0,0.13,0.01,0.19,0.02
						c0.01-0.01,0.03-0.01,0.04,0c0.08,0,0.16,0.01,0.25,0.03c0.06,0.01,0.11,0.02,0.17,0.03c0.42,0.06,0.83,0.16,1.22,0.28
						c0.23,0.08,0.46,0.16,0.67,0.26h0.01c0.15,0.07,0.29,0.14,0.43,0.21c0.08,0.04,0.16,0.09,0.24,0.14s0.16,0.09,0.22,0.14
						c0.29,0.17,0.56,0.37,0.81,0.59c0.09,0.07,0.15,0.15,0.23,0.21c0.05,0.04,0.09,0.09,0.14,0.13c0.03,0.03,0.05,0.05,0.07,0.08
						l0.06,0.06c0.09,0.09,0.17,0.18,0.25,0.28C1507.98,1674.54,1508.4,1675.6,1508.4,1676.77z"/>
					<path class="st21" d="M1373.22,1696.87h-147.49c-2.73,0-5.03-1.78-5.71-4.15c-0.06-0.2-0.12-0.4-0.16-0.61
						c-0.03-0.18-0.05-0.36-0.06-0.54c-0.01-0.09-0.01-0.19-0.01-0.29v-14.51c0-0.1,0-0.2,0.01-0.29c0.01-0.18,0.03-0.36,0.06-0.54
						c0.04-0.21,0.09-0.41,0.16-0.61c0.68-2.38,2.98-4.15,5.71-4.15h129.38c0.05,0.21,0.11,0.42,0.18,0.64
						C1357.44,1679.31,1362.29,1689.42,1373.22,1696.87z"/>
					<g>
						<rect x="1471.77" y="1671.17" class="st21" width="3.13" height="25.7"/>
						<rect x="1461.18" y="1671.17" class="st21" width="3.13" height="25.7"/>
						<rect x="1448.48" y="1671.17" class="st21" width="3.13" height="25.7"/>
						<rect x="1429.01" y="1671.17" class="st21" width="3.13" height="25.7"/>
						<rect x="1408.43" y="1671.17" class="st21" width="3.13" height="25.7"/>
						<rect x="1376.87" y="1671.17" class="st21" width="3.13" height="25.7"/>
						<rect x="1347.32" y="1671.17" class="st21" width="3.13" height="25.7"/>
						<rect x="1320.93" y="1671.17" class="st21" width="3.13" height="25.7"/>
						<rect x="1481.86" y="1671.17" class="st21" width="3.13" height="25.7"/>
						<rect x="1488.52" y="1671.17" class="st21" width="3.13" height="25.7"/>
						<rect x="1494.95" y="1671.17" class="st21" width="3.13" height="25.7"/>
						<path class="st21" d="M1502.92,1671.26v25.52c-0.38,0.06-0.77,0.09-1.17,0.09h-1.95v-25.7h1.95
							C1502.14,1671.17,1502.53,1671.2,1502.92,1671.26z"/>
						<path class="st21" d="M1507.26,1673.64v20.76c-0.76,0.94-1.85,1.68-3.13,2.09v-24.95
							C1505.41,1671.96,1506.5,1672.7,1507.26,1673.64z"/>
					</g>
				</g>
				<g>
					<path class="st20" d="M1522.62,1651.7v14.52c0,1.15-0.42,2.23-1.14,3.12c-0.76,0.94-1.84,1.68-3.12,2.09
						c-0.39,0.13-0.8,0.22-1.22,0.29c-0.38,0.05-0.77,0.09-1.17,0.09h-275.3c-1.1,0-2.15-0.23-3.07-0.64
						c-1.82-0.8-3.17-2.3-3.51-4.06c-0.03-0.12-0.03-0.24-0.05-0.36c-0.01-0.08-0.02-0.16-0.02-0.25c-0.01-0.09-0.01-0.19-0.01-0.28
						v-14.52c0-0.09,0-0.19,0.01-0.28c0.01-0.18,0.03-0.37,0.06-0.54c0.49-2.69,3.27-4.76,6.59-4.76h275.3
						c0.4,0,0.79,0.03,1.17,0.09c0.42,0.06,0.83,0.15,1.22,0.28c1.28,0.42,2.37,1.16,3.12,2.1
						C1522.2,1649.47,1522.62,1650.54,1522.62,1651.7z"/>
					<path class="st21" d="M1387.44,1671.8h-147.49c-0.99,0-1.92-0.23-2.73-0.64c-1.63-0.8-2.83-2.3-3.13-4.06
						c-0.03-0.12-0.03-0.24-0.05-0.36c-0.01-0.08-0.02-0.16-0.02-0.25c-0.01-0.09-0.01-0.19-0.01-0.28v-14.52
						c0-0.09,0-0.19,0.01-0.28c0.01-0.18,0.03-0.37,0.06-0.54c0.04-0.2,0.09-0.4,0.15-0.6c0.67-2.39,2.98-4.17,5.72-4.17h129.38
						c2.01,7.35,6.62,17.46,17.21,25.06C1386.83,1671.38,1387.13,1671.6,1387.44,1671.8z"/>
					<g>
						<rect x="1486" y="1646.1" class="st21" width="3.13" height="25.7"/>
						<rect x="1475.41" y="1646.1" class="st21" width="3.13" height="25.7"/>
						<rect x="1462.71" y="1646.1" class="st21" width="3.13" height="25.7"/>
						<rect x="1443.24" y="1646.1" class="st21" width="3.13" height="25.7"/>
						<rect x="1422.65" y="1646.1" class="st21" width="3.13" height="25.7"/>
						<rect x="1391.09" y="1646.1" class="st21" width="3.13" height="25.7"/>
						<rect x="1361.54" y="1646.1" class="st21" width="3.13" height="25.7"/>
						<rect x="1335.16" y="1646.1" class="st21" width="3.13" height="25.7"/>
						<rect x="1496.08" y="1646.1" class="st21" width="3.13" height="25.7"/>
						<rect x="1502.74" y="1646.1" class="st21" width="3.13" height="25.7"/>
						<rect x="1509.17" y="1646.1" class="st21" width="3.13" height="25.7"/>
						<path class="st21" d="M1517.14,1646.19v25.52c-0.38,0.06-0.77,0.09-1.17,0.09h-1.96v-25.7h1.96
							C1516.37,1646.1,1516.76,1646.13,1517.14,1646.19z"/>
						<path class="st21" d="M1521.48,1648.57v20.76c-0.76,0.94-1.85,1.68-3.13,2.09v-24.95
							C1519.64,1646.89,1520.73,1647.63,1521.48,1648.57z"/>
					</g>
				</g>
				<g>
					<path class="st20" d="M1529.22,1626v14.51c0,1.16-0.42,2.23-1.14,3.12c-0.09,0.12-0.2,0.23-0.3,0.34
						c-0.52,0.56-1.17,1.03-1.9,1.38c-0.29,0.14-0.6,0.27-0.92,0.37c-0.4,0.13-0.8,0.22-1.22,0.28c-0.19,0.03-0.38,0.05-0.58,0.07
						c-0.2,0.02-0.4,0.03-0.6,0.03h-275.29c-3.33,0-6.11-2.08-6.6-4.76c-0.03-0.18-0.05-0.36-0.06-0.54v-15.09
						c0.17-2.73,2.68-4.95,5.87-5.26c0.26-0.03,0.52-0.04,0.79-0.04h275.29c0.2,0,0.4,0.01,0.6,0.03c0.2,0.02,0.39,0.03,0.58,0.07
						c0.42,0.06,0.83,0.16,1.22,0.28c1.27,0.41,2.36,1.15,3.12,2.09C1528.8,1623.76,1529.22,1624.84,1529.22,1626z"/>
					<path class="st21" d="M1394.04,1646.11h-147.49c-2.73,0-5.04-1.77-5.72-4.15c-0.06-0.2-0.12-0.41-0.16-0.62
						c-0.03-0.18-0.05-0.36-0.06-0.54v-15.09c0.15-2.72,2.4-4.95,5.24-5.26c0.23-0.03,0.46-0.04,0.71-0.04h129.38
						c0,0.02,0.01,0.03,0.01,0.04C1378.01,1628,1382.82,1638.44,1394.04,1646.11z"/>
					<g>
						<rect x="1492.59" y="1620.4" class="st21" width="3.13" height="25.7"/>
						<rect x="1482" y="1620.4" class="st21" width="3.13" height="25.7"/>
						<rect x="1469.3" y="1620.4" class="st21" width="3.13" height="25.7"/>
						<rect x="1449.83" y="1620.4" class="st21" width="3.13" height="25.7"/>
						<rect x="1429.25" y="1620.4" class="st21" width="3.13" height="25.7"/>
						<rect x="1397.69" y="1620.4" class="st21" width="3.13" height="25.7"/>
						<rect x="1368.14" y="1620.4" class="st21" width="3.13" height="25.7"/>
						<rect x="1341.75" y="1620.4" class="st21" width="3.13" height="25.7"/>
						<rect x="1502.67" y="1620.4" class="st21" width="3.13" height="25.7"/>
						<rect x="1509.33" y="1620.4" class="st21" width="3.13" height="25.7"/>
						<rect x="1515.77" y="1620.4" class="st21" width="3.13" height="25.7"/>
						<path class="st21" d="M1523.73,1620.49v25.52c-0.38,0.06-0.77,0.09-1.17,0.09h-1.96v-25.7h1.96
							C1522.96,1620.4,1523.35,1620.43,1523.73,1620.49z"/>
						<path class="st21" d="M1528.08,1622.87v20.76c-0.76,0.94-1.85,1.68-3.13,2.09v-24.95
							C1526.23,1621.19,1527.32,1621.93,1528.08,1622.87z"/>
					</g>
				</g>
				<g>
					<path class="st20" d="M1508.98,1600.34v14.51c0,1.16-0.41,2.23-1.14,3.12c-0.76,0.95-1.85,1.69-3.13,2.1
						c-0.39,0.13-0.8,0.22-1.21,0.28c-0.13,0.03-0.26,0.04-0.39,0.05h-0.05c-0.07,0.01-0.14,0.02-0.21,0.02
						c-0.06,0.01-0.11,0.01-0.18,0.02c-0.12,0-0.23,0.01-0.35,0.01h-275.29c-3.55,0-6.48-2.36-6.66-5.31
						c-0.01-0.09-0.01-0.19-0.01-0.29v-14.51c0-0.09,0-0.2,0.01-0.29c0-0.08,0.01-0.16,0.02-0.23c0.27-2.37,2.31-4.33,5-4.89
						c0.06-0.02,0.13-0.03,0.2-0.04c0.46-0.09,0.95-0.14,1.44-0.14h275.29c0.21,0,0.4,0.01,0.59,0.03c0.09,0.01,0.17,0.02,0.25,0.03
						c0.01,0,0.01,0,0.02,0h0.01c0.1,0.01,0.21,0.03,0.31,0.04c0.41,0.06,0.83,0.16,1.21,0.28c1.28,0.41,2.37,1.15,3.13,2.1
						C1508.56,1598.11,1508.98,1599.18,1508.98,1600.34z"/>
					<path class="st21" d="M1373.79,1620.44h-147.48c-3.17,0-5.78-2.36-5.94-5.31c-0.01-0.09-0.01-0.19-0.01-0.29v-14.51
						c0-0.09,0-0.2,0.01-0.29c0-0.08,0.01-0.16,0.02-0.23c0.24-2.43,2.14-4.4,4.62-4.93c0.08-0.03,0.16-0.04,0.25-0.05
						c0.34-0.06,0.7-0.09,1.06-0.09h129.37c0.02,0.07,0.03,0.12,0.05,0.19c2.09,7.53,6.91,17.87,18,25.47
						C1373.75,1620.42,1373.78,1620.43,1373.79,1620.44z"/>
					<g>
						<rect x="1472.35" y="1594.74" class="st21" width="3.13" height="25.7"/>
						<rect x="1461.76" y="1594.74" class="st21" width="3.13" height="25.7"/>
						<rect x="1449.06" y="1594.74" class="st21" width="3.13" height="25.7"/>
						<rect x="1429.59" y="1594.74" class="st21" width="3.13" height="25.7"/>
						<rect x="1409.01" y="1594.74" class="st21" width="3.13" height="25.7"/>
						<rect x="1377.45" y="1594.74" class="st21" width="3.13" height="25.7"/>
						<rect x="1347.9" y="1594.74" class="st21" width="3.13" height="25.7"/>
						<rect x="1321.51" y="1594.74" class="st21" width="3.13" height="25.7"/>
						<rect x="1482.43" y="1594.74" class="st21" width="3.13" height="25.7"/>
						<rect x="1489.09" y="1594.74" class="st21" width="3.13" height="25.7"/>
						<rect x="1495.53" y="1594.74" class="st21" width="3.13" height="25.7"/>
						<path class="st21" d="M1503.49,1594.83v25.52c-0.38,0.06-0.77,0.09-1.17,0.09h-1.96v-25.7h1.96
							C1502.72,1594.74,1503.11,1594.77,1503.49,1594.83z"/>
						<path class="st21" d="M1507.84,1597.21v20.76c-0.76,0.94-1.85,1.68-3.13,2.09v-24.95
							C1505.99,1595.53,1507.08,1596.27,1507.84,1597.21z"/>
					</g>
				</g>
				<g>
					<path class="st20" d="M1508.4,1574.82v14.51c0,1.16-0.42,2.23-1.14,3.12c-0.19,0.23-0.4,0.46-0.63,0.67
						c-0.69,0.62-1.54,1.12-2.5,1.43c-0.31,0.1-0.63,0.18-0.95,0.24h-0.01c-0.01,0-0.01,0-0.02,0c-0.09,0.02-0.16,0.03-0.25,0.04
						c-0.38,0.06-0.77,0.09-1.17,0.09h-275.3c-0.28,0-0.58-0.02-0.86-0.05c-0.11-0.01-0.22-0.03-0.33-0.04
						c-2.8-0.43-5.01-2.35-5.41-4.73c-0.03-0.16-0.04-0.32-0.05-0.48c-0.01-0.1-0.01-0.2-0.01-0.29v-14.51c0-0.1,0-0.2,0.01-0.29
						c0.01-0.18,0.03-0.36,0.06-0.54c0.49-2.68,3.27-4.76,6.59-4.76h275.3c0.17,0,0.35,0.01,0.52,0.02c0.03,0,0.05,0.01,0.07,0.01
						c0.05,0.01,0.1,0.01,0.16,0.01c0.08,0.01,0.16,0.02,0.25,0.03c0.06,0,0.11,0.01,0.17,0.03c0.42,0.06,0.83,0.16,1.22,0.28
						c0.23,0.08,0.46,0.16,0.67,0.26h0.01c0.86,0.38,1.61,0.91,2.2,1.55c0.09,0.09,0.17,0.19,0.25,0.28
						C1507.98,1572.58,1508.4,1573.66,1508.4,1574.82z"/>
					<path class="st21" d="M1373.22,1594.93h-147.49c-0.11,0-0.23-0.01-0.34-0.01c-0.13-0.01-0.26-0.03-0.38-0.03
						c-2.67-0.32-4.8-2.3-5.16-4.78c-0.03-0.16-0.04-0.32-0.05-0.48c-0.01-0.1-0.01-0.2-0.01-0.29v-14.51c0-0.1,0-0.2,0.01-0.29
						c0.01-0.18,0.03-0.36,0.06-0.54c0.04-0.21,0.09-0.41,0.16-0.61c0.68-2.38,2.98-4.15,5.71-4.15h129.38
						c0.05,0.21,0.11,0.42,0.18,0.64c2.14,7.45,6.93,17.44,17.66,24.88C1373.04,1594.81,1373.13,1594.86,1373.22,1594.93z"/>
					<g>
						<rect x="1471.77" y="1569.22" class="st21" width="3.13" height="25.7"/>
						<rect x="1461.18" y="1569.22" class="st21" width="3.13" height="25.7"/>
						<rect x="1448.48" y="1569.22" class="st21" width="3.13" height="25.7"/>
						<rect x="1429.01" y="1569.22" class="st21" width="3.13" height="25.7"/>
						<rect x="1408.43" y="1569.22" class="st21" width="3.13" height="25.7"/>
						<rect x="1376.87" y="1569.22" class="st21" width="3.13" height="25.7"/>
						<rect x="1347.32" y="1569.22" class="st21" width="3.13" height="25.7"/>
						<rect x="1320.93" y="1569.22" class="st21" width="3.13" height="25.7"/>
						<rect x="1481.86" y="1569.22" class="st21" width="3.13" height="25.7"/>
						<rect x="1488.52" y="1569.22" class="st21" width="3.13" height="25.7"/>
						<rect x="1494.95" y="1569.22" class="st21" width="3.13" height="25.7"/>
						<path class="st21" d="M1502.92,1569.31v25.52c-0.38,0.06-0.77,0.09-1.17,0.09h-1.95v-25.7h1.95
							C1502.14,1569.22,1502.53,1569.25,1502.92,1569.31z"/>
						<path class="st21" d="M1507.26,1571.69v20.76c-0.76,0.94-1.85,1.68-3.13,2.09v-24.95
							C1505.41,1570.02,1506.5,1570.75,1507.26,1571.69z"/>
					</g>
				</g>
				<g>
					<path class="st20" d="M1522.62,1549.75v14.51c0,1.16-0.42,2.24-1.14,3.13c-0.76,0.94-1.84,1.68-3.12,2.09
						c-0.39,0.13-0.8,0.22-1.22,0.28c-0.38,0.06-0.77,0.1-1.17,0.1h-275.3c-1.1,0-2.15-0.23-3.07-0.64c-1.82-0.8-3.17-2.3-3.51-4.06
						c-0.03-0.12-0.03-0.24-0.05-0.36c-0.01-0.09-0.02-0.16-0.02-0.25c-0.01-0.09-0.01-0.19-0.01-0.29v-14.51
						c0-0.09,0-0.2,0.01-0.29c0.01-0.18,0.03-0.36,0.06-0.54c0.49-2.68,3.27-4.76,6.59-4.76h275.3c0.4,0,0.79,0.03,1.17,0.09
						c0.42,0.06,0.83,0.16,1.22,0.28c1.28,0.41,2.37,1.15,3.12,2.1C1522.2,1547.52,1522.62,1548.59,1522.62,1549.75z"/>
					<path class="st21" d="M1387.44,1569.86h-147.49c-0.99,0-1.92-0.23-2.73-0.64c-1.63-0.8-2.83-2.3-3.13-4.06
						c-0.03-0.12-0.03-0.24-0.05-0.36c-0.01-0.09-0.02-0.16-0.02-0.25c-0.01-0.09-0.01-0.19-0.01-0.29v-14.51
						c0-0.09,0-0.2,0.01-0.29c0.01-0.18,0.03-0.36,0.06-0.54c0.04-0.2,0.09-0.4,0.15-0.6c0.67-2.38,2.98-4.17,5.72-4.17h129.38
						c2.01,7.36,6.62,17.47,17.21,25.07C1386.83,1569.44,1387.13,1569.64,1387.44,1569.86z"/>
					<g>
						<rect x="1486" y="1544.16" class="st21" width="3.13" height="25.7"/>
						<rect x="1475.41" y="1544.16" class="st21" width="3.13" height="25.7"/>
						<rect x="1462.71" y="1544.16" class="st21" width="3.13" height="25.7"/>
						<rect x="1443.24" y="1544.16" class="st21" width="3.13" height="25.7"/>
						<rect x="1422.65" y="1544.16" class="st21" width="3.13" height="25.7"/>
						<rect x="1391.09" y="1544.16" class="st21" width="3.13" height="25.7"/>
						<rect x="1361.54" y="1544.16" class="st21" width="3.13" height="25.7"/>
						<rect x="1335.16" y="1544.16" class="st21" width="3.13" height="25.7"/>
						<rect x="1496.08" y="1544.16" class="st21" width="3.13" height="25.7"/>
						<rect x="1502.74" y="1544.16" class="st21" width="3.13" height="25.7"/>
						<rect x="1509.17" y="1544.16" class="st21" width="3.13" height="25.7"/>
						<path class="st21" d="M1517.14,1544.25v25.52c-0.38,0.06-0.77,0.09-1.17,0.09h-1.96v-25.7h1.96
							C1516.37,1544.16,1516.76,1544.19,1517.14,1544.25z"/>
						<path class="st21" d="M1521.48,1546.63v20.76c-0.76,0.94-1.85,1.68-3.13,2.09v-24.95
							C1519.64,1544.95,1520.73,1545.69,1521.48,1546.63z"/>
					</g>
				</g>
				<g>
					<path class="st20" d="M1545.12,1524.05v14.52c0,1.15-0.42,2.22-1.14,3.11l-0.01,0.01c-0.09,0.12-0.2,0.23-0.3,0.34
						c-0.42,0.45-0.91,0.83-1.47,1.15c-0.28,0.16-0.57,0.3-0.88,0.42c-0.01,0-0.01,0.01-0.01,0.01c-0.15,0.06-0.3,0.12-0.46,0.17
						c-0.39,0.13-0.8,0.22-1.22,0.28c-0.38,0.06-0.77,0.09-1.17,0.09h-275.3c-3.32,0-6.1-2.07-6.59-4.76
						c-0.03-0.18-0.05-0.36-0.06-0.55c-0.01-0.09-0.01-0.19-0.01-0.28v-14.52c0-0.09,0-0.19,0.01-0.28
						c0.16-2.72,2.67-4.94,5.87-5.26c0.26-0.03,0.52-0.04,0.78-0.04h275.3c0.4,0,0.79,0.03,1.17,0.09c0.42,0.07,0.83,0.16,1.22,0.29
						c1.12,0.36,2.08,0.97,2.82,1.75c0.1,0.11,0.21,0.22,0.3,0.34l0.01,0.01C1544.7,1521.83,1545.12,1522.89,1545.12,1524.05z"/>
					<path class="st21" d="M1409.94,1544.15h-147.49c-2.74,0-5.05-1.78-5.72-4.16c-0.06-0.2-0.12-0.39-0.15-0.6
						c-0.03-0.18-0.05-0.36-0.06-0.55c-0.01-0.09-0.01-0.19-0.01-0.28v-14.52c0-0.09,0-0.19,0.01-0.28
						c0.15-2.72,2.39-4.94,5.23-5.26c0.23-0.03,0.46-0.04,0.71-0.04h129.38c0,0.01,0.01,0.03,0.01,0.04
						C1393.91,1526.06,1398.72,1536.5,1409.94,1544.15z"/>
					<g>
						<rect x="1508.5" y="1518.46" class="st21" width="3.13" height="25.7"/>
						<rect x="1497.91" y="1518.46" class="st21" width="3.13" height="25.7"/>
						<rect x="1485.2" y="1518.46" class="st21" width="3.13" height="25.7"/>
						<rect x="1465.74" y="1518.46" class="st21" width="3.13" height="25.7"/>
						<rect x="1445.15" y="1518.46" class="st21" width="3.13" height="25.7"/>
						<rect x="1413.59" y="1518.46" class="st21" width="3.13" height="25.7"/>
						<rect x="1384.04" y="1518.46" class="st21" width="3.13" height="25.7"/>
						<rect x="1357.65" y="1518.46" class="st21" width="3.13" height="25.7"/>
						<rect x="1518.58" y="1518.46" class="st21" width="3.13" height="25.7"/>
						<rect x="1525.24" y="1518.46" class="st21" width="3.13" height="25.7"/>
						<rect x="1531.67" y="1518.46" class="st21" width="3.13" height="25.7"/>
						<path class="st21" d="M1539.64,1518.55v25.52c-0.38,0.06-0.77,0.09-1.17,0.09h-1.96v-25.7h1.96
							C1538.86,1518.46,1539.25,1518.49,1539.64,1518.55z"/>
						<path class="st21" d="M1543.98,1520.93v20.76c-0.76,0.94-1.85,1.68-3.13,2.09v-24.95
							C1542.13,1519.25,1543.22,1519.99,1543.98,1520.93z"/>
					</g>
				</g>
				<g>
					<path class="st20" d="M1508.98,1498.39v14.51c0,1.16-0.41,2.23-1.14,3.12c-0.76,0.95-1.85,1.69-3.13,2.1
						c-0.39,0.13-0.8,0.22-1.21,0.28c-0.13,0.02-0.26,0.03-0.39,0.05h-0.05c-0.09,0.02-0.17,0.02-0.26,0.03
						c-0.05,0-0.1,0.01-0.15,0.01c-0.11,0-0.21,0.01-0.33,0.01h-275.29c-2.39,0-4.5-1.07-5.67-2.67c-0.58-0.77-0.93-1.68-0.99-2.64
						c-0.01-0.1-0.01-0.2-0.01-0.29v-14.51c0-0.1,0-0.2,0.01-0.29c0.15-2.38,2.1-4.39,4.72-5.06c0.61-0.16,1.26-0.25,1.94-0.25
						h275.29c0.12,0,0.23,0.01,0.35,0.01c0.06,0,0.12,0.01,0.17,0.02c0.22,0.01,0.44,0.03,0.65,0.07c0.41,0.06,0.83,0.16,1.21,0.28
						c0.2,0.06,0.39,0.13,0.57,0.21h0.01c0.73,0.3,1.38,0.71,1.93,1.21c0.01,0.01,0.02,0.02,0.03,0.03
						c0.03,0.03,0.05,0.04,0.08,0.07c0.19,0.17,0.36,0.36,0.52,0.56C1508.56,1496.16,1508.98,1497.23,1508.98,1498.39z"/>
					<path class="st21" d="M1373.79,1518.5h-147.48c-2.07,0-3.91-1.02-4.97-2.54c-0.57-0.81-0.92-1.75-0.97-2.77
						c-0.01-0.1-0.01-0.2-0.01-0.29v-14.51c0-0.1,0-0.2,0.01-0.29c0.15-2.56,2.13-4.68,4.74-5.19c0.39-0.08,0.79-0.12,1.2-0.12
						h129.37c0.05,0.2,0.11,0.39,0.17,0.59c2.14,7.5,6.98,17.6,17.88,25.07C1373.75,1518.47,1373.78,1518.48,1373.79,1518.5z"/>
					<g>
						<rect x="1472.35" y="1492.8" class="st21" width="3.13" height="25.7"/>
						<rect x="1461.76" y="1492.8" class="st21" width="3.13" height="25.7"/>
						<rect x="1449.06" y="1492.8" class="st21" width="3.13" height="25.7"/>
						<rect x="1429.59" y="1492.8" class="st21" width="3.13" height="25.7"/>
						<rect x="1409.01" y="1492.8" class="st21" width="3.13" height="25.7"/>
						<rect x="1377.45" y="1492.8" class="st21" width="3.13" height="25.7"/>
						<rect x="1347.9" y="1492.8" class="st21" width="3.13" height="25.7"/>
						<rect x="1321.51" y="1492.8" class="st21" width="3.13" height="25.7"/>
						<rect x="1482.43" y="1492.8" class="st21" width="3.13" height="25.7"/>
						<rect x="1489.09" y="1492.8" class="st21" width="3.13" height="25.7"/>
						<rect x="1495.53" y="1492.8" class="st21" width="3.13" height="25.7"/>
						<path class="st21" d="M1503.49,1492.89v25.52c-0.38,0.06-0.77,0.09-1.17,0.09h-1.96v-25.7h1.96
							C1502.72,1492.8,1503.11,1492.83,1503.49,1492.89z"/>
						<path class="st21" d="M1507.84,1495.27v20.76c-0.76,0.94-1.85,1.68-3.13,2.09v-24.95
							C1505.99,1493.59,1507.08,1494.33,1507.84,1495.27z"/>
					</g>
				</g>
				<g>
					<path class="st20" d="M1529.22,1473.28v14.51c0,1.16-0.42,2.23-1.14,3.12c-0.76,0.94-1.85,1.68-3.13,2.09
						c-0.39,0.13-0.8,0.23-1.22,0.29c-0.38,0.06-0.77,0.09-1.17,0.09h-275.3c-1.07,0-2.08-0.21-2.98-0.59
						c-2.01-0.84-3.44-2.52-3.66-4.48c-0.01-0.07-0.01-0.15-0.02-0.23c0-0.1-0.01-0.19-0.01-0.29v-14.51c0-0.1,0-0.19,0.01-0.29
						c0.17-2.72,2.68-4.95,5.87-5.27c0.26-0.03,0.52-0.04,0.79-0.04h275.3c0.4,0,0.79,0.03,1.17,0.09c0.42,0.06,0.83,0.16,1.22,0.29
						c1.28,0.41,2.37,1.15,3.13,2.09C1528.8,1471.05,1529.22,1472.13,1529.22,1473.28z"/>
					<path class="st21" d="M1394.04,1493.39h-147.49c-0.95,0-1.86-0.21-2.65-0.59c-1.79-0.84-3.07-2.52-3.27-4.48
						c-0.01-0.07-0.01-0.15-0.02-0.23c0-0.1-0.01-0.19-0.01-0.29v-14.51c0-0.1,0-0.19,0.01-0.29c0.15-2.72,2.39-4.95,5.24-5.27
						c0.23-0.03,0.46-0.04,0.7-0.04h129.37c0,0.01,0.01,0.03,0.01,0.04c2.02,7.37,6.65,17.47,17.25,25.07
						C1393.46,1493,1393.75,1493.19,1394.04,1493.39z"/>
					<g>
						<rect x="1492.59" y="1467.69" class="st21" width="3.13" height="25.7"/>
						<rect x="1482" y="1467.69" class="st21" width="3.13" height="25.7"/>
						<rect x="1469.3" y="1467.69" class="st21" width="3.13" height="25.7"/>
						<rect x="1449.83" y="1467.69" class="st21" width="3.13" height="25.7"/>
						<rect x="1429.25" y="1467.69" class="st21" width="3.13" height="25.7"/>
						<rect x="1397.69" y="1467.69" class="st21" width="3.13" height="25.7"/>
						<rect x="1368.14" y="1467.69" class="st21" width="3.13" height="25.7"/>
						<rect x="1341.75" y="1467.69" class="st21" width="3.13" height="25.7"/>
						<rect x="1502.67" y="1467.69" class="st21" width="3.13" height="25.7"/>
						<rect x="1509.33" y="1467.69" class="st21" width="3.13" height="25.7"/>
						<rect x="1515.77" y="1467.69" class="st21" width="3.13" height="25.7"/>
						<path class="st21" d="M1523.73,1467.78v25.52c-0.38,0.06-0.77,0.09-1.17,0.09h-1.96v-25.7h1.96
							C1522.96,1467.69,1523.35,1467.72,1523.73,1467.78z"/>
						<path class="st21" d="M1528.08,1470.16v20.76c-0.76,0.94-1.85,1.68-3.13,2.09v-24.95
							C1526.23,1468.48,1527.32,1469.22,1528.08,1470.16z"/>
					</g>
				</g>
				<g>
					<path class="st20" d="M1537.84,1447.62v14.51c0,1.16-0.42,2.23-1.14,3.12c-0.76,0.94-1.85,1.68-3.13,2.09
						c-0.39,0.13-0.8,0.23-1.22,0.29c-0.13,0.02-0.26,0.04-0.39,0.05c-0.07,0.01-0.14,0.01-0.22,0.02
						c-0.07,0.01-0.14,0.01-0.22,0.01c-0.12,0.01-0.24,0.01-0.35,0.01h-275.3c-3.55,0-6.47-2.36-6.65-5.31
						c0-0.1-0.01-0.19-0.01-0.29v-14.51c0-0.1,0-0.19,0.01-0.29c0.18-2.94,3.1-5.31,6.65-5.31h275.3c0.4,0,0.79,0.03,1.17,0.09
						c0.42,0.06,0.83,0.16,1.22,0.29c1.28,0.42,2.37,1.15,3.13,2.09C1537.42,1445.39,1537.84,1446.47,1537.84,1447.62z"/>
					<path class="st21" d="M1402.65,1467.73h-147.49c-3.17,0-5.78-2.36-5.94-5.31c0-0.1-0.01-0.19-0.01-0.29v-14.51
						c0-0.1,0-0.19,0.01-0.29c0.16-2.94,2.77-5.31,5.94-5.31h129.38c2.06,7.55,6.86,17.99,18.05,25.66
						C1402.61,1467.7,1402.63,1467.72,1402.65,1467.73z"/>
					<g>
						<rect x="1501.21" y="1442.03" class="st21" width="3.13" height="25.7"/>
						<rect x="1490.62" y="1442.03" class="st21" width="3.13" height="25.7"/>
						<rect x="1477.92" y="1442.03" class="st21" width="3.13" height="25.7"/>
						<rect x="1458.45" y="1442.03" class="st21" width="3.13" height="25.7"/>
						<rect x="1437.86" y="1442.03" class="st21" width="3.13" height="25.7"/>
						<rect x="1406.3" y="1442.03" class="st21" width="3.13" height="25.7"/>
						<rect x="1376.75" y="1442.03" class="st21" width="3.13" height="25.7"/>
						<rect x="1350.37" y="1442.03" class="st21" width="3.13" height="25.7"/>
						<rect x="1511.29" y="1442.03" class="st21" width="3.13" height="25.7"/>
						<rect x="1517.95" y="1442.03" class="st21" width="3.13" height="25.7"/>
						<rect x="1524.38" y="1442.03" class="st21" width="3.13" height="25.7"/>
						<path class="st21" d="M1532.35,1442.12v25.52c-0.38,0.06-0.77,0.09-1.17,0.09h-1.96v-25.7h1.96
							C1531.58,1442.03,1531.97,1442.06,1532.35,1442.12z"/>
						<path class="st21" d="M1536.69,1444.5v20.76c-0.76,0.94-1.85,1.68-3.13,2.09v-24.95
							C1534.85,1442.82,1535.94,1443.56,1536.69,1444.5z"/>
					</g>
				</g>
			</g>
			<g>
				<path class="st22" d="M1450.57,1295.57c0,0-14.46,20.36-27.72,20.64s-33.42-9.43-33.42-9.43s-12.17-27.13-3.92-37.74
					c0,0,8.28-3.63,16.94,2.78c1.49,1.11,3,2.5,4.48,4.29c2.1,2.52,4.46,3.96,6.96,4.72c9.46,2.88,20.69-3.89,24.89,2.64
					c2.45,3.8,5.12,6.65,7.31,8.66C1448.69,1294.44,1450.57,1295.57,1450.57,1295.57z"/>
				<path class="st22" d="M1262.06,1442.41c0,0,51.11-123.84,143.1-126.2c0,0,84.92,9.44,89.64,126.2H1262.06z"/>
				<path class="st23" d="M1379.96,1319.99c0,0,36.87,8.2,48.25,3.38c0,0,1.72-15.42-13.81-13.26c-10.63,1.48-17.55-3.63-21.62-5.7
					C1387.02,1301.48,1378.43,1313.54,1379.96,1319.99z"/>
				<path class="st24" d="M1412.05,1296.75c-2.36,1.77-9.6-24.93-9.6-24.93c1.49,1.11,3,2.5,4.48,4.29c2.1,2.52,4.46,3.96,6.96,4.72
					C1413.92,1281.6,1414.34,1295.03,1412.05,1296.75z"/>
				<path class="st24" d="M1446.09,1292.12c-0.52,0.31-17.57,10.52-19.88,10.52c-2.36,0,12.57-19.18,12.57-19.18
					C1441.23,1287.27,1443.9,1290.12,1446.09,1292.12z"/>
				<path class="st25" d="M1311.99,1407.81c-0.95-0.81,36.17-54.65,46.39-55.04c10.22-0.39,33.19,11.79,49.81,13.37
					s32.74-3.15,35.89,6.68c3.15,9.83,11.79,44.67,6.49,50.25C1445.27,1428.65,1332.4,1425.24,1311.99,1407.81z"/>
			</g>
		</g>
		<path class="st26" d="M1346.94,1594.74c-0.01,0.07-0.01,0.13-0.02,0.19c-0.48,8.63-1.87,17.16-4.13,25.47
			c0,0.01-0.01,0.03-0.01,0.04c-0.33,1.2-0.67,2.41-1.04,3.6c-2.3,7.59-5.34,14.97-9.07,22.06c-4.69,8.9-10.47,17.33-17.29,25.06
			c-0.18,0.21-0.37,0.43-0.56,0.64c-8.53,9.55-18.65,18.04-30.25,25.07c-2.44,1.49-4.94,2.91-7.52,4.26
			c-1.74,0.91-3.48,1.77-5.24,2.61c-1.68,0.97-3.45,1.81-5.12,2.83c-4.85,2.97-10.9,5.32-17.49,7.2v-11.3
			c0-0.09,0.01-0.19,0.01-0.28c0.01-0.19,0.03-0.37,0.06-0.55c0.04-0.21,0.1-0.41,0.16-0.62c0.69-2.37,2.99-4.14,5.72-4.14h-29.44
			c-2.73,0-5.03-1.78-5.71-4.15c-0.06-0.2-0.12-0.4-0.16-0.61c-0.03-0.18-0.05-0.36-0.06-0.54c-0.01-0.09-0.01-0.19-0.01-0.29
			v-14.51c0-0.1,0-0.2,0.01-0.29c0.01-0.18,0.03-0.36,0.06-0.54c0.04-0.21,0.09-0.41,0.16-0.61c0.68-2.38,2.98-4.15,5.71-4.15h11.49
			c-1.63-0.8-2.83-2.3-3.13-4.06c-0.03-0.12-0.03-0.24-0.05-0.36c-0.01-0.08-0.02-0.16-0.02-0.25c-0.01-0.09-0.01-0.19-0.01-0.28
			v-14.52c0-0.09,0-0.19,0.01-0.28c0.01-0.18,0.03-0.37,0.06-0.54c0.04-0.2,0.09-0.4,0.15-0.6c0.67-2.39,2.98-4.17,5.72-4.17h6.6
			c-2.73,0-5.04-1.77-5.72-4.15c-0.06-0.2-0.12-0.41-0.16-0.62c-0.03-0.18-0.05-0.36-0.06-0.54v-15.09c0.15-2.72,2.4-4.95,5.24-5.26
			h-19.53c-3.17,0-5.78-2.36-5.94-5.31c-0.01-0.09-0.01-0.19-0.01-0.29v-14.51c0-0.09,0-0.2,0.01-0.29c0-0.08,0.01-0.16,0.02-0.23
			c0.24-2.43,2.14-4.4,4.62-4.93c-2.67-0.32-4.8-2.3-5.16-4.78c-0.03-0.16-0.04-0.32-0.05-0.48c-0.01-0.1-0.01-0.2-0.01-0.29v-14.51
			c0-0.1,0-0.2,0.01-0.29c0.01-0.18,0.03-0.36,0.06-0.54c0.04-0.21,0.09-0.41,0.16-0.61c0.68-2.38,2.98-4.15,5.71-4.15h11.49
			c-1.63-0.8-2.83-2.3-3.13-4.06c-0.03-0.12-0.03-0.24-0.05-0.36c-0.01-0.09-0.02-0.16-0.02-0.25c-0.01-0.09-0.01-0.19-0.01-0.29
			v-14.51c0-0.09,0-0.2,0.01-0.29c0.01-0.18,0.03-0.36,0.06-0.54c0.04-0.2,0.09-0.4,0.15-0.6c0.67-2.38,2.98-4.17,5.72-4.17h22.5
			c-2.74,0-5.05-1.78-5.72-4.16c-0.06-0.2-0.12-0.39-0.15-0.6c-0.03-0.18-0.05-0.36-0.06-0.55c-0.01-0.09-0.01-0.19-0.01-0.28
			v-14.52c0-0.09,0-0.19,0.01-0.28c0.15-2.72,2.39-4.94,5.23-5.26h-35.43c-2.07,0-3.91-1.02-4.97-2.54l0.02-0.13l3.73-22.79
			l0.02-0.13l5.31-32.52c6.17,0.83,12.26,2.06,18.24,3.67c0.35,0.09,0.7,0.19,1.05,0.28c0.02,0.01,0.04,0.02,0.07,0.03
			c3.48,0.97,6.92,2.07,10.31,3.31c0.03,0.01,0.06,0.02,0.09,0.03c15.6,5.68,30.13,14.12,42.74,25.07c0.22,0.19,0.45,0.39,0.66,0.59
			c6.55,5.75,12.57,12.2,17.92,19.31c1.07,1.41,2.12,2.85,3.12,4.31c0.34,0.48,0.67,0.96,0.99,1.45c0.02,0.01,0.03,0.03,0.03,0.04
			c1.63,2.4,3.17,4.86,4.63,7.39c3.45,5.96,6.35,12.07,8.71,18.27c3.16,8.23,5.37,16.62,6.67,25.07c0.04,0.21,0.07,0.42,0.1,0.64
			C1347.01,1578.16,1347.39,1586.49,1346.94,1594.74z"/>
		<g>
			
				<ellipse transform="matrix(0.7071 -0.7071 0.7071 0.7071 -772.3181 1298.4105)" class="st27" cx="1181.16" cy="1581.48" rx="135.41" ry="135.41"/>
			<path class="st20" d="M1241.27,1702.81c-1.67,1.02-3.36,2-5.09,2.95c-0.58,0.32-1.17,0.64-1.75,0.95
				c-1.33,0.71-2.67,1.4-4.02,2.06c-64.48,31.67-143.14,7.36-178.19-56.23c-33.44-60.65-15.46-135.78,39.4-175.23
				c4.38-3.15,8.98-6.07,13.82-8.73c1.73-0.96,3.49-1.87,5.24-2.74c1.71-0.85,3.43-1.66,5.16-2.43c5.3-2.36,10.69-4.35,16.13-5.98
				c8.09-2.44,16.29-4.08,24.52-4.94c25.51-2.7,51.17,1.96,73.93,13.09c24.15,11.81,45.02,30.9,58.98,56.23
				C1324.55,1585.58,1302.89,1665.33,1241.27,1702.81z"/>
			<g>
				<path class="st21" d="M1171.76,1709.97c-11.32,0-22.71-1.6-33.89-4.84c-31.13-9-56.89-29.6-72.54-57.98
					c-15.65-28.38-19.3-61.16-10.3-92.29c9.01-31.13,29.6-56.89,57.98-72.54c58.59-32.3,132.53-10.91,164.83,47.68
					c32.3,58.59,10.91,132.53-47.68,164.83C1211.97,1704.86,1191.97,1709.97,1171.76,1709.97z M1171.39,1470.54
					c-19.26,0-38.77,4.71-56.8,14.65c-27.62,15.22-47.65,40.29-56.41,70.58c-8.76,30.29-5.21,62.18,10.02,89.8
					c15.22,27.62,40.29,47.65,70.58,56.42c30.29,8.76,62.18,5.21,89.8-10.02c57.01-31.43,77.82-103.38,46.4-160.38
					C1253.49,1492.6,1213.04,1470.54,1171.39,1470.54z"/>
			</g>
			<g>
				<path class="st21" d="M1231.26,1600.37c-0.27-0.67-0.55-1.31-0.84-1.95c-2.2-4.83-4.93-8.74-8.21-11.73
					c-3.71-3.38-8.02-5.92-12.93-7.61c-4.91-1.69-10.39-2.72-16.43-3.09c-6.04-0.37-12.62-0.46-19.73-0.26
					c-4.39,0.13-8.15,0.06-11.27-0.23c-3.11-0.28-5.76-0.86-7.93-1.73c-2.17-0.87-3.94-2.07-5.29-3.59
					c-1.36-1.51-2.47-3.36-3.36-5.55s-1.4-4.35-1.53-6.51c-0.13-2.15,0.19-4.19,0.96-6.12c0.77-1.93,2.03-3.71,3.78-5.35
					c1.74-1.64,4.04-3.04,6.91-4.2c5.28-2.15,10.22-2.1,14.79,0.14c4.58,2.24,8.3,6.91,11.18,14l27.59-11.2
					c-2.4-5.91-5.41-10.9-9.03-14.98c-3.61-4.07-7.69-7.22-12.23-9.44c-4.53-2.22-9.47-3.52-14.81-3.9
					c-5.34-0.38-10.89,0.19-16.65,1.7l-7.81-19.24l-15.27,6.2l7.7,18.97c-5.51,2.86-10.18,6.18-14.02,9.98
					c-3.83,3.8-6.78,7.9-8.84,12.32c-2.06,4.42-3.14,9.06-3.25,13.92c-0.1,4.86,0.87,9.8,2.91,14.83
					c2.35,5.79,5.38,10.38,9.09,13.76c3.71,3.38,8.01,5.91,12.91,7.56c4.9,1.66,10.38,2.66,16.44,2.98
					c6.06,0.33,12.66,0.32,19.78-0.02c4.13-0.23,7.72-0.21,10.76,0.07c3.04,0.28,5.67,0.86,7.89,1.75c2.21,0.9,4.05,2.14,5.52,3.75
					s2.71,3.65,3.71,6.13c0.89,2.19,1.33,4.37,1.32,6.54c-0.01,2.17-0.5,4.25-1.47,6.23c-0.97,1.98-2.44,3.81-4.38,5.5
					c-1.95,1.68-4.42,3.13-7.41,4.35c-2.61,1.06-5.31,1.76-8.1,2.1c-2.79,0.34-5.51,0.07-8.17-0.82c-2.66-0.88-5.14-2.49-7.46-4.82
					c-2.32-2.32-4.33-5.59-6.03-9.79l-27.58,11.2c2.88,7.09,6.5,12.72,10.85,16.87c4.35,4.15,9.12,7.13,14.29,8.91
					c5.18,1.79,10.59,2.57,16.24,2.34c5.65-0.23,11.23-1.15,16.73-2.76l7.12,17.56l15.18-6.16l-7.16-17.64
					c5.51-2.86,10.23-6.16,14.16-9.89c3.64-3.45,6.49-7.17,8.55-11.16c0.17-0.32,0.33-0.65,0.48-0.97
					c2.08-4.35,3.19-8.97,3.33-13.85C1234.36,1610.6,1233.37,1605.56,1231.26,1600.37z"/>
			</g>
		</g>
	</g>
	<g>
		<g>
			<path class="st12" d="M1045.71,914.12c-1.76,2.04-1.97,4.31-1.07,6.73c0,0.01,0.01,0.02,0.02,0.03
				c1.65,4.47,7.05,9.44,13.3,14.39c0.8,0.64,1.51,1.21,2.13,1.75c0.16,0.14,0.33,0.28,0.48,0.42c0.13,0.11,0.25,0.22,0.37,0.33
				c5.84,5.31,3.67,6.55,14.17,17.33c11.98,12.28,20.16,12.45,22.48,11.31c1.96-0.97-2.09-7.51-6.57-14.85
				c-0.22-0.35-0.43-0.71-0.65-1.07c-0.6-0.98-1.19-1.97-1.78-2.95c-5.26-8.84-3.95-13.01-2.82-26.22
				c0.93-10.74,16.27-60.07,16.27-60.07l-22.81-3.76c0,0-6.58,39.24-14.1,45.33c-4.02,3.25-8.54,3.32-12.41,5.73
				c-0.27,0.17-0.54,0.34-0.8,0.52C1049.71,910.54,1047.47,912.07,1045.71,914.12z"/>
			<path class="st11" d="M1045.71,914.12c-1.76,2.04-1.97,4.31-1.07,6.73c0,0.01,0.01,0.02,0.02,0.03
				c2.02,4.46,7.28,9.4,13.33,14.34c0.79,0.65,1.49,1.24,2.11,1.8c0.16,0.14,0.33,0.28,0.48,0.42c0.13,0.11,0.25,0.22,0.37,0.33
				c5.84,5.31,3.67,6.55,14.17,17.33c11.98,12.28,20.16,12.45,22.48,11.31c1.96-0.97-2.09-7.51-6.57-14.85
				c-2.32-0.83-13.1-5.12-21.3-15.46c-7.22-9.08-12.08-20.79-17-27.55c-0.27,0.17-0.54,0.34-0.8,0.52
				C1049.71,910.54,1047.47,912.07,1045.71,914.12z"/>
			<path class="st12" d="M1229.3,898.59c1.46,7.02,11.47,5.78,22.65,2.96c11.18-2.82,8.54,0.46,24.47-1.42
				c15.93-1.88,20.71-7.85,21.18-10.23c0.42-2.11-7.46-2.79-15.91-3.71c-1.06-0.11-2.13-0.24-3.2-0.36
				c-9.54-1.13-16.57-7.23-25.27-12.23c-8.24-4.73-20.62-24.15-20.62-24.15l-21.85,1.89c0,0,11.59,17.34,16.08,24.88
				c2.64,4.44,2.54,10.33,2.25,14.88C1228.93,893.59,1228.78,896.12,1229.3,898.59z"/>
			<path class="st11" d="M1251.95,901.56c11.18-2.82,8.54,0.46,24.47-1.42c15.93-1.88,20.71-7.85,21.18-10.23
				c0.42-2.11-7.46-2.79-15.91-3.71l-0.08,0.16c0,0-9.51,6.84-22.77,7.26c-10.81,0.34-22.29-2.68-29.75-2.5
				c-0.15,2.47-0.3,5,0.22,7.48C1230.75,905.61,1240.77,904.37,1251.95,901.56z"/>
			<path class="st28" d="M1144.55,759.42l-20.04,55.13l-26.17,71.98c0,0-7.23,0.75-14.18-1.19c-6.4-1.8-13.75-6.57-13.75-6.57
				s6.86-77.13,20.37-121.48c3.46-11.38,7.37-20.6,11.71-25.8C1123.72,706.01,1144.55,759.42,1144.55,759.42z"/>
			<path class="st15" d="M1123.16,672.25c-13.42-4.22-51.56,1.59-89.85,9.37l-8.12-13.19l-82.88-5.88c0,0-26.91,60.81-11.67,99.33
				c2.24,5.66,16.04,8.42,16.04,8.42c0,0,48.56,0.53,64.57,0.42c41.2-0.29,86.99-28.93,92.93-30.17
				c9.72-2.02,13.76,17.43,23.64,37.81c9.88,20.38,92.17,89.92,92.17,89.92s12.57,0.04,17.75-1.95c5.57-2.13,7.59-4.87,7.59-4.87
				S1153.42,681.78,1123.16,672.25z"/>
			<path class="st11" d="M1014.66,425.24c-6.24-3.65-12.29-4.15-15.96-4c-2.65,0.1-5.29-0.13-7.92-0.46
				c-31.42-4-49.99,41.75-51,55.58c-1.87,25.49-15.32,29.47-34.17,45.56c-37.81,32.26-26.39,69.35-5.5,83.02
				c12.54,8.2,34.47-0.24,34.47-0.24c0.31,0.22,59.92-33.88,89.3-50.33C1068.07,547.76,1032.5,435.69,1014.66,425.24z"/>
			<path class="st12" d="M999.07,540.7c0.13,0.08-14.48,5.19-24.3,0.92c-9.24-4.01-16.33-19.11-16.19-19.12
				c4.19-0.22,8.76-3.92,12.14-27.98l1.79,0.63l30.08,10.58c0,0-2.11,9.64-3.45,18.82C998,532.25,997.42,539.63,999.07,540.7z"/>
			<path class="st29" d="M1002.58,505.73c0,0-1.28,6.76-3.06,16.41c-17.25-2.98-24.52-17.7-27.02-27L1002.58,505.73z"/>
			<path class="st12" d="M1007.12,515.25c0,0-41.09-5.22-37.44-30.76c3.64-25.54,0.8-43.41,27.18-41.16
				c26.39,2.25,30.08,12.72,30.94,21.54C1028.65,473.7,1017.9,515.95,1007.12,515.25z"/>
			<path class="st11" d="M1026.2,450.91c0,0-26.12,22.83-43.98,24.78c-17.86,1.95-24.67-3.74-24.67-3.74s10.47-8.82,16.71-22.98
				c1.84-4.17,5.77-7.06,10.31-7.48C997.33,440.3,1021.52,439.63,1026.2,450.91z"/>
			<path class="st11" d="M1009.76,449c0,0,8.85,8.44,11.66,14.72c2.71,6.06,3.62,20.61,1.53,26.4c0,0,13.51-26.73,5.66-39.61
				C1020.3,436.85,1009.76,449,1009.76,449z"/>
			<path class="st10" d="M1034.06,600.93c-0.65,83.1,0.12,65.73-8.91,73.68c-2.18,1.91-8.33,3.09-16.42,3.68
				c-25.47,1.87-70.28-2.01-72.02-6.71c-5.99-16.25-1.88-21.34-6.96-46.25c-0.53-2.65-1.18-5.52-1.95-8.64
				c-4.21-17.1-8.23-22.9,6.08-50.53c12.98-25.02,26.5-45.35,27.73-44.63c34.85,20.35,37.52,3.02,37.52,3.02
				S1034.38,560.39,1034.06,600.93z"/>
			<path class="st15" d="M1124.51,814.55l-26.17,71.98c0,0-7.23,0.75-14.18-1.19c-6.4-1.8-13.75-6.57-13.75-6.57
				s6.86-77.13,20.37-121.48L1124.51,814.55z"/>
			<path class="st10" d="M999.13,524.55c0,0,35.75,5.8,40.05,21.15c4.3,15.34,29.61,105.55,29.61,105.55s-18.13,3.39-26.57-4.94
				c-8.44-8.33-29.73-77.59-29.73-77.59L999.13,524.55z"/>
			<path class="st30" d="M1008.72,678.29c-25.47,1.87-70.28-2.01-72.02-6.71c-5.99-16.25-1.88-21.34-6.96-46.25l12.04-34.69
				c0,0-1.76,38.55,9.68,48.6c11.42,10.06,46.67,19.24,52.25,27.67C1006.41,670.95,1008.19,675.02,1008.72,678.29z"/>
			<path class="st12" d="M979.42,662.29c0,0,25.1-5.77,29.17-3.57c4.07,2.2,14.04,10.26,15.3,13.07c1.26,2.82-9.04-2.08-12.39-2.95
				c-2.17-0.56-7.85,1.45-10.66,2.41c-11.83,4.04-19.12,2.06-19.12,2.06L979.42,662.29z"/>
			<path class="st10" d="M961.59,521.51c0,0-33.74,2.32-45.31,18.7c-16.29,23.06-48.22,121.05-29.43,133.95
				c21.16,14.53,95.87,3.16,95.87,3.16s2.41-11.65-1.1-17.25c-3.5-5.6-59.83-14.29-62.45-16.87c-2.62-2.58,32.1-50.87,32.05-58.66
				C951.17,576.75,961.59,521.51,961.59,521.51z"/>
			<path class="st12" d="M1009.85,665.7c0,0,5.31,6.76,7.05,7.56c1.73,0.8,2.85,0.59,2.85,0.59l-3.59-6.36L1009.85,665.7z"/>
			<path class="st12" d="M1008.58,658.71l15.37,7.33c0,0-0.64,1.07-2.53,1c-1.89-0.07-6.65-1.78-6.65-1.78L1008.58,658.71z"/>
		</g>
		<g>
			<g>
				<polygon class="st11" points="1013.62,684.22 1134.75,683.37 1170.55,592.5 1049.61,593.35 				"/>
				<polygon class="st11" points="1136.14,679.83 976.19,680.96 976.22,684.49 1134.75,683.37 				"/>
			</g>
			<path class="st1" d="M1103.85,638.28c0.89-3.19-0.97-5.76-4.15-5.74c-3.19,0.02-6.49,2.63-7.38,5.82
				c-0.89,3.19,0.97,5.76,4.15,5.74C1099.66,644.08,1102.96,641.47,1103.85,638.28z"/>
		</g>
	</g>
	<g>
		<path class="st31" d="M2107.52,973.71c-15.34-5.09-25.96,1.33-25.96,1.33c-44.16,1.82-45.8,47.08-40.62,63.93
			c7.28,23.66-18.48,42.32,10.09,51.89c33.15,11.11,60.97-6.43,59.08-0.71C2214.95,1098.42,2142.4,985.3,2107.52,973.71z"/>
		<path class="st8" d="M2061.71,1193.88c0,0-4.2,8.31-11.81,17.86c-9.17,11.49-57.33-15.78-53.18-17.86
			c4.15-2.07,27.6-68.64,37.52-80.44c9.19-10.93,21.98-13.41,21.98-13.41L2061.71,1193.88z"/>
		<path class="st32" d="M2224.2,1664.03c0,0,13.29,12.13,10.7,20.75c-2.59,8.62-14.59,14.36-16.21,24.9
			c-1.62,10.53-8.1,16.28-13.94,16.28s-27.82,0-27.82,0s-4.29-7.41,6.08-9.65c10.37-2.23,14.28-14.61,13.64-26.1
			c-0.65-11.49,0.97-26.81,0.97-26.81l22.04-5.11L2224.2,1664.03z"/>
		<path class="st32" d="M2111.72,1669.18c0,0,4.78,51.38-1.05,54.25l-74.67-0.15c0,0,0-8.62,11.99-10.53s33.06-8.94,36.63-24.58
			C2088.18,1672.53,2111.72,1669.18,2111.72,1669.18z"/>
		<path class="st8" d="M2169.16,1159.23c0,0,1.11,15.69,0,34.51c-0.74,12.48-13.36,29.19-15.15,33.33
			c-4.49,10.37-9.56,12.06-9.56,12.06l-39.21,9.61l-13.79,3.37l-43.47-12.98c0,0-19.8-55.27-11.85-86.38
			c7.95-31.11,20.1-52.71,20.1-52.71s29.54-6.64,81.66-2.94L2169.16,1159.23z"/>
		<path class="st33" d="M2172.89,1194.18c-0.74,12.48-17.1,28.76-18.89,32.89c-4.49,10.37-9.56,12.06-9.56,12.06l-39.21,9.61
			l-10.46-14.75c0,0,63.47-17.65,51.45-73.61L2172.89,1194.18z"/>
		<path class="st28" d="M2050.74,1247.51c0,0-21.53,67.01-22.91,89.82s41.15,324.1,42.86,334.61c1.61,9.91,13.92,16.23,13.92,16.23
			s5.66,3.34,13.74,1.06c11.21-3.17,14.75-6.95,14.75-6.95s16.76-214.87,6.39-291.63c-10.37-76.76-10.49-143.13-10.49-143.13
			H2050.74z"/>
		<path class="st15" d="M2141.96,1245.52c0,0,32.84,44.06,35.9,73.85s4.8,134.41,11.33,163.44c6.52,29.04,30.49,84.91,30.49,175.48
			c0,0-2.49,5.19-10.18,7.96c-2.46,0.88-5.75,1.74-8.95,2.48c-6.34,1.45-12.85-1.65-15.74-7.47
			c-16.2-32.62-67.81-137.83-70.45-159.66c-1.87-15.45-18.17-117.74-53.71-177.76c-8.53-14.41,5.24-71.71,5.24-71.71
			L2141.96,1245.52z"/>
		<path class="st33" d="M2047.31,1237.17c0,0,8.64,6.84,25.81,7.18c20.51,0.41,71.32-5.23,71.32-5.23s2.26,6.31,2.17,12.97
			c0,0-62.06,15.66-98.02,2.29C2048.58,1254.38,2043.95,1245.65,2047.31,1237.17z"/>
		<g>
			<path class="st0" d="M2068.2,1262.03c-5.16,0-9.36-4.75-9.36-10.59c0-5.84,4.2-10.59,9.36-10.59s9.36,4.75,9.36,10.59
				C2077.55,1257.27,2073.36,1262.03,2068.2,1262.03z M2068.2,1243.94c-3.45,0-6.26,3.36-6.26,7.49c0,4.13,2.81,7.49,6.26,7.49
				c3.45,0,6.26-3.36,6.26-7.49C2074.45,1247.3,2071.65,1243.94,2068.2,1243.94z"/>
		</g>
		<polygon class="st34" points="2113.03,1281.29 2019.75,1282.16 1973.85,1174.29 2067.13,1173.42 		"/>
		<path class="st12" d="M2100.83,1232.54l-6.84-8.4c0,0-4.63-4.13-7.98-4.83c-3.36-0.7-10.45-4.79-11.14-3.64s5.45,9.37,5.45,9.37
			l0.31,0.04c-7.04,5.3-24.82,0.62-27.02,2.78c-2.66,2.62,3.66,8.28,7.05,11.46c3.39,3.18,13.09,8.48,20.65,6.13
			c5.53-1.72,14.23-3.47,14.23-3.47L2100.83,1232.54z"/>
		<path class="st12" d="M1980.87,1193.27c0,0,5.86-6.66,9.59-3.46s-0.98,18.92-4.53,17.32
			C1982.38,1205.52,1978.83,1195.22,1980.87,1193.27z"/>
		<path class="st8" d="M2137.89,1097.09c0,0,31.1,2.18,43.03,31.17c11.92,28.98,33.84,76.69,29.13,96.68
			c-1.88,7.97-24.54,35.57-119.04,18.03c0,0,0.77-9.89,7.16-14.52c0,0,66.59-21.38,66.47-25.63c-0.22-8.04-9-15-46.19-52.2
			C2108.33,1140.5,2137.89,1097.09,2137.89,1097.09z"/>
		<path class="st12" d="M2117.34,1098.5c0.92-1.23-0.26-5.15-1.73-12.46c-1.33-6.62-3.58-16.85-3.53-28.37l-1.97,0.33l-33.1,5.57
			c0,0,0.75,8.85,0.78,17.19c0,0.07,0,0.14,0,0.21c0.04,7.24-1.95,18.18,0.49,19.61C2090.81,1107.92,2113.81,1103.24,2117.34,1098.5
			z"/>
		<path class="st35" d="M2077.01,1063.57c0,0,0.66,12.48,0.68,20.81c18.52-0.44,28.4-18.43,32.42-26.38L2077.01,1063.57z"/>
		<path class="st12" d="M2075.01,1078.45c0,0,43.39-6.18,39.12-33.14c-4.26-26.96-1.54-45.91-29.42-43.11
			c-27.88,2.81-31.62,13.94-32.39,23.29C2051.56,1034.84,2063.62,1079.37,2075.01,1078.45z"/>
		<path class="st31" d="M2064.9,1004.68c0,0,16.89,29.74,35.81,31.51s26.04-4.35,26.04-4.35s-15.71-8.86-21.69-27.74
			C2105.07,1004.11,2071.44,988.21,2064.9,1004.68z"/>
		<path class="st31" d="M2068.25,1006.78c0,0-8.26,4.68-10.86,11.67c-2.54,6.83-4.23,15.61-1.91,25.68c0,0-12.35-20.07-4.26-33.83
			C2059.81,995.71,2068.25,1006.78,2068.25,1006.78z"/>
	</g>
	<path class="st36" d="M2778.02,1728.58H227.58c-1.62,0-2.95-1.33-2.95-2.95v-1.13c0-1.62,1.33-2.95,2.95-2.95h2550.44
		c1.62,0,2.95,1.33,2.95,2.95v1.13C2780.97,1727.25,2779.64,1728.58,2778.02,1728.58z"/>
</g>
</svg>
