<?xml version="1.0" encoding="utf-8"?>
<!-- Generator: Adobe Illustrator 26.3.1, SVG Export Plug-In . SVG Version: 6.00 Build 0)  -->
<svg version="1.1" id="Capa_1" xmlns="http://www.w3.org/2000/svg" xmlns:xlink="http://www.w3.org/1999/xlink" x="0px" y="0px"
	 viewBox="0 0 140 140" style="enable-background:new 0 0 140 140;" xml:space="preserve">
<g>
	<path d="M25.03,113.04c0.39-0.68,0.97-0.9,1.76-0.89c2.65,0.04,5.31,0.01,8.07,0.01c0-0.41,0-0.75,0-1.09c0-9.26,0-18.52,0-27.79
		c0-1.69,0.37-2.08,2.03-2.08c4.24,0,8.47,0,12.71,0c1.56,0,1.97,0.41,1.97,1.97c0,9.26,0,18.52,0,27.79c0,0.37,0,0.74,0,1.15
		c3.34,0,6.58,0,9.96,0c0-0.36,0-0.73,0-1.09c0-11.54,0-23.08,0-34.62c0-1.87,0.37-2.23,2.27-2.23c4.12,0,8.24,0,12.36,0
		c1.76,0,2.15,0.4,2.15,2.18c0,11.51,0,23.02,0,34.53c0,0.38,0,0.76,0,1.2c3.3,0,6.55,0,9.95,0c0-0.34,0-0.71,0-1.07
		c0-16.6,0-33.19,0-49.79c0-0.29-0.01-0.58,0-0.88c0.05-1.16,0.51-1.63,1.69-1.64c2.31-0.02,4.62,0,6.92,0c2.07,0,4.15,0,6.22,0
		c1.42,0,1.87,0.47,1.87,1.9c0,16.8,0,33.6,0,50.4c0,0.35,0,0.69,0,1.15c1.07,0,2.08,0,3.1,0c1.69,0,3.39,0,5.08,0
		c1.04,0,1.62,0.47,1.64,1.28c0.02,0.86-0.57,1.35-1.67,1.35c-13.18,0-26.35,0-39.53,0c-15.57,0-31.15,0-46.72,0.01
		c-0.8,0-1.43-0.17-1.85-0.89C25.03,113.63,25.03,113.33,25.03,113.04z M91,61.48c0,16.91,0,33.77,0,50.63c3.79,0,7.52,0,11.26,0
		c0-16.9,0-33.74,0-50.63C98.49,61.48,94.76,61.48,91,61.48z M75.52,112.11c0-11.75,0-23.45,0-35.15c-3.78,0-7.5,0-11.23,0
		c0,11.75,0,23.42,0,35.15C68.03,112.11,71.73,112.11,75.52,112.11z M48.83,112.14c0-9.44,0-18.79,0-28.14c-3.8,0-7.54,0-11.26,0
		c0,9.43,0,18.78,0,28.14C41.35,112.14,45.05,112.14,48.83,112.14z"/>
	<path d="M108.66,25.03c1.58,0.53,2.79,1.45,3.2,3.15c0.1,0.42,0.12,0.86,0.12,1.3c0.01,3.51-0.07,7.01,0.03,10.52
		c0.07,2.55-1.76,4.29-3.56,4.48c-2.42,0.26-4.14-1.04-4.71-3.55c-0.01-0.05-0.06-0.08-0.11-0.15c-1.51,1.59-2.94,3.25-4.54,4.73
		c-3.22,2.97-6.53,5.83-9.81,8.73c-0.54,0.48-1.23,0.76-1.81,0.24c-0.34-0.31-0.56-0.97-0.5-1.43c0.06-0.41,0.54-0.79,0.9-1.11
		c2.46-2.15,5.06-4.17,7.38-6.46c2.95-2.91,5.69-6.03,8.5-9.07c0.47-0.51,0.97-0.87,1.68-0.67c0.63,0.18,0.93,0.67,0.93,1.32
		c0,0.99-0.01,1.99,0.01,2.98c0.01,1.11,0.59,1.81,1.48,1.81c0.84,0,1.48-0.69,1.49-1.72c0.02-3.56,0.03-7.13,0-10.69
		c-0.01-1.3-0.77-1.86-2.07-1.69c-3.47,0.44-6.94,0.87-10.42,1.3c-1.12,0.14-1.81,0.82-1.68,1.71c0.13,0.9,0.96,1.37,2.07,1.21
		c1.18-0.17,2.37-0.3,3.56-0.44c0.66-0.08,1.22,0.06,1.55,0.71c0.34,0.65,0.09,1.16-0.33,1.67c-4.01,4.94-8.44,9.46-13.32,13.53
		c-10.68,8.92-22.72,15.34-35.99,19.48c-6.24,1.95-12.6,3.38-19.11,4.05c-1.02,0.11-2.03,0.19-3.05,0.31
		c-0.92,0.11-1.51,0.76-1.45,1.54c0.06,0.82,0.7,1.42,1.64,1.32c3.27-0.36,6.56-0.66,9.8-1.22c10.22-1.78,20-4.99,29.25-9.68
		c3.92-1.99,7.65-4.34,11.47-6.54c0.25-0.15,0.48-0.33,0.74-0.47c0.77-0.42,1.52-0.25,1.92,0.4c0.38,0.63,0.22,1.35-0.47,1.83
		c-0.96,0.66-1.94,1.3-2.93,1.91c-11.27,7.02-23.41,11.88-36.4,14.57c-4.33,0.89-8.75,1.35-13.14,1.91
		c-2.2,0.28-4.22-1.39-4.51-3.51c-0.31-2.28,1.17-4.33,3.47-4.66c2.71-0.39,5.45-0.58,8.15-1.03c10.65-1.76,20.78-5.13,30.4-10.04
		c10.06-5.14,18.96-11.79,26.74-19.97c0.86-0.91,1.68-1.86,2.67-2.96c-0.51,0-0.86,0-1.21,0c-2.2,0-4.03-1.61-4.16-3.68
		c-0.15-2.37,1.35-4.26,3.65-4.55c3.33-0.43,6.65-0.83,9.98-1.25c0.2-0.02,0.38-0.11,0.58-0.17
		C107.37,25.03,108.02,25.03,108.66,25.03z"/>
</g>
</svg>
