<?xml version="1.0" encoding="utf-8"?>
<!-- Generator: Adobe Illustrator 26.3.1, SVG Export Plug-In . SVG Version: 6.00 Build 0)  -->
<svg version="1.1" id="Capa_1" xmlns="http://www.w3.org/2000/svg" xmlns:xlink="http://www.w3.org/1999/xlink" x="0px" y="0px"
	 viewBox="0 0 140 140" style="enable-background:new 0 0 140 140;" xml:space="preserve">
<path d="M116.4,93.44c-0.65,0.77-1.26,1.58-1.97,2.3c-5.42,5.46-10.85,10.89-16.28,16.34c-1.82,1.82-3.24,1.82-5.04,0.02
	c-1.85-1.86-3.71-3.71-5.56-5.57c-1.5-1.51-1.6-2.73-0.36-4.49c-1.15-1.5-2.68-2.28-4.55-2.43c-1.65-0.13-3.1-0.78-4.29-1.9
	c-1.6-1.51-3.15-3.07-4.7-4.64c-0.64-0.65-0.65-1.45-0.1-2.01c0.57-0.59,1.39-0.57,2.08,0.1c1.4,1.37,2.79,2.75,4.17,4.14
	c0.95,0.96,2.07,1.49,3.43,1.61c1.92,0.16,3.61,0.9,5.01,2.24c0.3,0.29,0.61,0.58,0.85,0.81c4.62-4.6,9.21-9.17,13.83-13.78
	c-0.06-0.07-0.15-0.22-0.27-0.35c-1.66-1.7-2.44-3.75-2.42-6.13c0.02-1.39-0.01-2.77-0.08-4.16c-0.05-1.13-0.56-2.09-1.35-2.88
	c-2.08-2.1-4.16-4.2-6.27-6.27c-1.48-1.45-3.49-1.72-5.42-0.67c0.9,0.86,1.77,1.68,2.63,2.51c0.28,0.27,0.57,0.54,0.82,0.84
	c0.61,0.7,0.6,1.44-0.01,2.01c-0.55,0.51-1.33,0.5-1.95-0.09c-1.06-1.03-2.09-2.08-3.13-3.14c-0.25-0.26-0.48-0.54-0.87-0.99
	c-0.04,0.5-0.08,0.75-0.08,1c0,2.68,0,5.37,0,8.05c-0.01,3.62-2.57,5.66-6.1,4.88c-0.11-0.02-0.23,0-0.44,0c0,0.89,0,1.75,0,2.62
	c-0.02,3.65-2.85,5.77-6.33,4.75c-0.08-0.02-0.16-0.04-0.29-0.06c-0.53,1.7-1.59,2.88-3.29,3.45c-0.24,0.08-0.41,0.34-0.61,0.53
	c-1.62,1.62-3.26,3.23-4.85,4.87c-1.48,1.53-3.2,2.53-5.35,2.69c-1.79,0.14-3.19,0.98-4.29,2.37c1.23,1.91,1.12,3-0.49,4.62
	c-1.87,1.88-3.74,3.76-5.62,5.63c-1.55,1.54-3.11,1.54-4.65,0c-3.75-3.75-7.5-7.51-11.24-11.27c-0.19-0.19-0.4-0.38-0.53-0.61
	c-0.35-0.58-0.32-1.17,0.15-1.66c0.5-0.53,1.11-0.57,1.73-0.21c0.25,0.15,0.46,0.39,0.67,0.6c3.6,3.6,7.2,7.21,10.8,10.82
	c0.23,0.23,0.39,0.53,0.54,0.74c2.29-2.28,4.44-4.43,6.55-6.52c-5.95-5.91-11.97-11.9-17.91-17.8c-1.99,1.98-4.16,4.14-6.45,6.42
	c0.61,0.56,1.33,1.2,2,1.87c0.76,0.75,0.8,1.52,0.17,2.13c-0.61,0.59-1.33,0.55-2.07-0.17c-0.69-0.67-1.38-1.35-2.04-2.05
	c-1.14-1.22-1.14-2.87,0.03-4.06c2.09-2.13,4.2-4.24,6.33-6.34c1.22-1.2,2.57-1.19,4.28,0.02c1.23-1.07,1.91-2.41,1.95-4.06
	c0.05-1.74,0.01-3.5,0.15-5.23c0.14-1.68,0.98-3.08,2.15-4.27c2.03-2.06,4.09-4.1,6.13-6.15c1.28-1.29,2.87-1.95,4.4-2.15
	c-0.14-1.66-0.35-3.26-0.39-4.85c-0.06-2.53-0.02-5.06,0.01-7.6c0.02-1.89,0.78-3.51,2.06-4.87c0.93-0.99,1.91-1.92,2.86-2.9
	c1.17-1.21,1.72-2.64,1.61-4.1c-0.89-0.51-1.75-0.81-2.31-1.4c-0.45-0.47-0.71-1.28-0.73-1.95c-0.08-2.92-0.04-5.85-0.03-8.77
	c0.01-1.8,1.22-3.01,3-3.01c8.38,0,16.76,0,25.15,0c1.76,0,2.95,1.18,2.96,2.94c0.01,2.71,0,5.43,0,8.14c0,2.44-0.52,3.13-2.86,3.8
	c-0.23,1.72,0.13,3.27,1.28,4.62c1.35,1.58,1.94,3.43,1.93,5.49c-0.01,4.79-0.02,9.59,0.01,14.38c0,0.45,0.25,0.9,0.42,1.44
	c1.95-1.19,3.82-1.66,5.88-1.22c1.46,0.32,2.7,1,3.75,2.05c2.01,2,4,4.01,6.01,6.01c1.4,1.39,2.17,3.08,2.36,4.9
	c0.61,0.24,1.18,0.37,1.64,0.68c0.23,0.16,0.36,0.64,0.35,0.97c-0.01,0.89-0.73,1.33-1.91,1.27c-0.25,2.22,0.06,4.26,1.88,5.82
	c2.17-1.34,3.09-1.22,4.9,0.59c1.7,1.71,3.43,3.39,5.1,5.13c0.55,0.57,0.98,1.27,1.47,1.91C116.4,92.35,116.4,92.9,116.4,93.44z
	 M55.63,63.27c0-1.32,0-2.64,0-3.95c0-1.46,0.42-2.1,1.38-2.1c0.97,0,1.37,0.6,1.37,2.09c0,7.9,0,15.8,0,23.7
	c0,0.42,0.02,0.85,0.11,1.26c0.19,0.86,0.88,1.39,1.75,1.41c1.18,0.02,1.92-0.77,1.92-2.11c0.01-7.21,0-14.41,0-21.62
	c0-0.3-0.03-0.61,0.03-0.9c0.15-0.73,0.6-1.21,1.36-1.21c0.75,0,1.23,0.44,1.35,1.2c0.05,0.35,0.05,0.72,0.05,1.08
	c0,8.02,0,16.04,0,24.06c0,0.42-0.01,0.85,0.06,1.26c0.14,0.9,0.93,1.51,1.87,1.49c0.89-0.02,1.65-0.64,1.77-1.5
	c0.06-0.39,0.04-0.78,0.04-1.17c-0.01-6.66-0.02-13.33-0.02-19.99c0-1.63-0.02-3.26,0.01-4.88c0.02-0.91,0.67-1.56,1.44-1.55
	c0.74,0.01,1.31,0.63,1.37,1.52c0.02,0.24,0.01,0.48,0.01,0.72c0,6.93,0,13.87,0,20.8c0,0.36-0.01,0.72,0.01,1.09
	c0.05,0.98,0.77,1.68,1.74,1.72c1.25,0.05,1.96-0.75,1.96-2.25c0.01-7.15,0-14.29,0.01-21.44c0-0.39-0.06-0.88,0.14-1.14
	c0.31-0.41,0.8-0.9,1.25-0.93c0.4-0.03,0.93,0.44,1.24,0.82c0.21,0.26,0.17,0.75,0.17,1.13c0.01,3.89,0.01,7.78,0.01,11.67
	c0,0.96-0.02,1.93,0.01,2.89c0.04,1.04,0.77,1.77,1.76,1.82c1,0.05,1.77-0.6,1.94-1.63c0.04-0.27,0.05-0.54,0.05-0.81
	c0-9.29,0-18.57,0.01-27.86c0-1.47-0.39-2.77-1.36-3.91c-1.17-1.37-1.8-2.97-1.89-4.78c-0.03-0.5-0.06-1-0.1-1.57
	c-0.39,0-0.72,0-1.04,0c-2.92,0-5.85,0-8.77,0c-0.27,0-0.55,0.03-0.81-0.04c-0.72-0.18-1.17-0.61-1.15-1.4
	c0.02-0.74,0.44-1.16,1.15-1.3c0.32-0.06,0.66-0.06,0.99-0.06c3.86,0,7.72,0,11.58,0c0.35,0,0.7-0.03,1.05-0.05c0-3.12,0-6.14,0-9.2
	c-8.53,0-16.99,0-25.51,0c0,3.07,0,6.1,0,9.2c0.32,0.02,0.62,0.05,0.91,0.05c1.42,0,2.83,0,4.25,0c1.26,0.01,1.94,0.49,1.95,1.38
	c0.01,0.9-0.68,1.41-1.92,1.41c-0.71,0-1.41,0-2.22,0c0.24,3.31-1.37,5.59-3.57,7.59c-0.58,0.53-1.23,1.04-1.63,1.69
	c-0.55,0.9-1.22,1.91-1.27,2.9c-0.16,3.19-0.11,6.39-0.04,9.58C52.41,61.29,53.96,63.07,55.63,63.27z M62.01,88.13
	c-3.5,1.13-6.38-0.96-6.38-4.83c0-5.07,0-10.13,0-15.2c0-0.32,0-0.63,0-1.13c-0.36,0.33-0.58,0.52-0.78,0.73
	c-1.09,1.09-2.16,2.19-3.27,3.26c-0.88,0.84-2.23,0.5-2.36-0.63c-0.05-0.45,0.24-1.05,0.56-1.41c1.01-1.11,2.12-2.13,3.2-3.2
	c-1.77-1.06-3.88-0.77-5.39,0.71c-1.77,1.73-3.42,3.58-5.27,5.22c-1.83,1.62-2.56,3.54-2.42,5.93c0.08,1.32,0.05,2.66-0.13,3.97
	c-0.26,1.84-1.26,3.35-2.49,4.54c4.65,4.63,9.25,9.21,13.89,13.83c1.62-1.94,3.83-2.89,6.45-3.12c0.75-0.07,1.6-0.49,2.17-1.01
	c1.61-1.49,3.09-3.11,4.51-4.56C63.57,90.24,62.83,89.24,62.01,88.13z M89.3,104.06c2.13,2.15,4.27,4.32,6.25,6.32
	c5.97-5.95,11.99-11.93,17.93-17.85c-2.09-2.09-4.24-4.23-6.27-6.26C101.24,92.21,95.22,98.19,89.3,104.06z"/>
<path d="M46.39,104.48c0.01,0.81-0.57,1.43-1.38,1.46c-0.85,0.03-1.5-0.58-1.51-1.42c-0.01-0.83,0.65-1.5,1.46-1.49
	C45.74,103.06,46.38,103.7,46.39,104.48z"/>
<path d="M32.65,70.86c-0.78,0-1.38-0.6-1.37-1.37c0.01-0.75,0.65-1.38,1.39-1.37c0.73,0.01,1.38,0.66,1.38,1.39
	C34.04,70.25,33.41,70.87,32.65,70.86z"/>
<path d="M40.78,49.14c0,0.76-0.62,1.39-1.35,1.4c-0.74,0.01-1.35-0.62-1.35-1.39c0-0.77,0.6-1.39,1.35-1.39
	C40.17,47.75,40.78,48.37,40.78,49.14z"/>
<path d="M102.25,54.81c0.02,0.74-0.62,1.36-1.38,1.36c-0.77,0-1.4-0.6-1.41-1.35c-0.01-0.75,0.61-1.36,1.38-1.37
	C101.61,53.46,102.24,54.06,102.25,54.81z"/>
<path d="M82.79,104.29c-0.76,0.01-1.39-0.59-1.4-1.35c-0.01-0.75,0.6-1.36,1.38-1.36c0.77-0.01,1.4,0.59,1.4,1.34
	C84.18,103.65,83.55,104.28,82.79,104.29z"/>
<path d="M90.28,40.28c0.74,0.02,1.35,0.67,1.34,1.42c-0.01,0.76-0.64,1.37-1.39,1.35c-0.76-0.02-1.34-0.64-1.33-1.41
	C88.91,40.88,89.54,40.26,90.28,40.28z"/>
<path d="M42.98,43.61c0.75,0.02,1.37,0.68,1.35,1.41c-0.03,0.72-0.72,1.38-1.43,1.36c-0.72-0.02-1.38-0.72-1.35-1.43
	C41.57,44.22,42.25,43.59,42.98,43.61z"/>
<path d="M95.82,45.49c0,0.77-0.61,1.38-1.37,1.37c-0.73-0.01-1.38-0.67-1.37-1.4c0.01-0.73,0.67-1.39,1.39-1.38
	C95.2,44.09,95.82,44.74,95.82,45.49z"/>
<path d="M77.68,103.37c0.78,0,1.38,0.6,1.37,1.36c-0.01,0.74-0.66,1.37-1.4,1.36c-0.73,0-1.38-0.66-1.38-1.39
	C76.28,103.97,76.91,103.36,77.68,103.37z"/>
<path d="M48.39,41.4c0,0.77-0.6,1.37-1.35,1.38c-0.76,0-1.37-0.61-1.37-1.37c0-0.76,0.6-1.36,1.37-1.36
	C47.82,40.04,48.39,40.61,48.39,41.4z"/>
<path d="M34.44,57.44c0.77-0.02,1.4,0.57,1.42,1.32c0.02,0.74-0.59,1.38-1.35,1.39c-0.78,0.02-1.4-0.55-1.41-1.32
	C33.08,58.08,33.67,57.46,34.44,57.44z"/>
<path d="M68.29,105.91c-0.02,0.78-0.6,1.34-1.39,1.31c-0.76-0.02-1.35-0.64-1.33-1.39c0.02-0.75,0.66-1.36,1.4-1.33
	C67.73,104.52,68.31,105.14,68.29,105.91z"/>
<path d="M73.71,105.72c-0.01,0.77-0.6,1.34-1.38,1.33c-0.78-0.01-1.34-0.6-1.33-1.39c0.01-0.76,0.64-1.37,1.38-1.35
	C73.12,104.33,73.72,104.96,73.71,105.72z"/>
<path d="M37.93,53.79c-0.01,0.78-0.6,1.36-1.38,1.35c-0.75-0.01-1.38-0.65-1.36-1.39c0.02-0.73,0.68-1.37,1.4-1.36
	C37.34,52.4,37.94,53.03,37.93,53.79z"/>
<path d="M99.39,49.85c0.02,0.76-0.57,1.4-1.31,1.42c-0.75,0.02-1.38-0.58-1.4-1.33c-0.03-0.79,0.53-1.38,1.31-1.4
	C98.76,48.52,99.37,49.09,99.39,49.85z"/>
<path d="M86.88,38.57c0.02,0.72-0.63,1.37-1.38,1.37c-0.77,0.01-1.39-0.59-1.4-1.34c-0.01-0.72,0.65-1.39,1.37-1.4
	C86.18,37.19,86.86,37.86,86.88,38.57z"/>
<path d="M104.01,67.04c-0.78,0-1.35-0.56-1.36-1.35c-0.01-0.79,0.56-1.37,1.34-1.37c0.77,0,1.36,0.58,1.37,1.35
	C105.37,66.44,104.78,67.04,104.01,67.04z"/>
<path d="M57.75,103.82c0,0.72-0.66,1.37-1.39,1.37c-0.73,0-1.38-0.66-1.38-1.38c0-0.76,0.61-1.35,1.39-1.34
	C57.13,102.46,57.76,103.08,57.75,103.82z"/>
<path d="M102.86,71.3c0.04-0.72,0.74-1.37,1.44-1.34c0.73,0.03,1.33,0.7,1.3,1.45c-0.03,0.76-0.68,1.37-1.41,1.34
	C103.47,72.71,102.83,72.01,102.86,71.3z"/>
<path d="M53.03,38.49c-0.01,0.72-0.69,1.38-1.41,1.37c-0.71-0.01-1.38-0.69-1.38-1.4c0.01-0.73,0.65-1.35,1.41-1.34
	C52.4,37.13,53.04,37.77,53.03,38.49z"/>
<path d="M102.86,58.73c0.71,0,1.39,0.67,1.39,1.39c0.01,0.72-0.65,1.38-1.38,1.39c-0.76,0-1.37-0.61-1.37-1.38
	C101.49,59.38,102.13,58.73,102.86,58.73z"/>
<path d="M62.96,105.27c-0.02,0.73-0.69,1.38-1.42,1.36c-0.73-0.02-1.39-0.69-1.37-1.41c0.01-0.74,0.66-1.34,1.42-1.33
	C62.37,103.91,62.98,104.52,62.96,105.27z"/>
<path d="M34.52,64.06c0.01,0.78-0.57,1.37-1.35,1.38c-0.75,0.01-1.4-0.61-1.4-1.34c-0.01-0.73,0.63-1.39,1.37-1.4
	C33.87,62.69,34.51,63.31,34.52,64.06z"/>
<path d="M34.16,78.89c0.73,0.03,1.37,0.7,1.34,1.42c-0.03,0.72-0.72,1.37-1.43,1.34c-0.73-0.03-1.34-0.7-1.32-1.44
	C32.77,79.45,33.4,78.86,34.16,78.89z"/>
<path d="M34.34,74.92c0.01,0.78-0.57,1.37-1.35,1.38c-0.75,0.01-1.39-0.61-1.4-1.34c-0.01-0.72,0.64-1.39,1.36-1.4
	C33.69,73.54,34.33,74.16,34.34,74.92z"/>
<path d="M61.75,30.24c0.01,0.79-0.7,1.5-1.49,1.49c-0.78-0.01-1.4-0.64-1.41-1.44c-0.01-0.82,0.56-1.44,1.37-1.46
	C61.06,28.8,61.74,29.43,61.75,30.24z"/>
<path d="M109.06,92.18c-0.04,0.78-0.71,1.43-1.47,1.42c-0.78-0.01-1.49-0.76-1.46-1.53c0.04-0.81,0.75-1.43,1.58-1.38
	C108.51,90.73,109.1,91.39,109.06,92.18z"/>
</svg>
