<?xml version="1.0" encoding="utf-8"?>
<!-- Generator: Adobe Illustrator 26.3.1, SVG Export Plug-In . SVG Version: 6.00 Build 0)  -->
<svg version="1.1" id="_x3C_Layer_x3E_" xmlns="http://www.w3.org/2000/svg" xmlns:xlink="http://www.w3.org/1999/xlink" x="0px"
	 y="0px" viewBox="0 0 2760 1840" style="enable-background:new 0 0 2760 1840;" xml:space="preserve">
<style type="text/css">
	.st0{fill:#FFFFFF;}
	.st1{fill:#EBF3FA;}
	.st2{fill:#8C9DF4;}
	.st3{fill:#BDD1F9;}
	.st4{fill:#F77D48;}
	.st5{fill:#FFB93E;}
	.st6{fill:#FFA412;}
	.st7{fill:#739AF0;}
	.st8{fill:#163560;}
	.st9{fill:#ED7D2B;}
	.st10{fill:#2E5A99;}
	.st11{fill:#18417C;}
	.st12{fill:#1C468A;}
	.st13{fill:#FFB27D;}
	.st14{fill:#F99746;}
	.st15{fill:#FCA56B;}
	.st16{fill:#FFEDDC;}
	.st17{fill:#DB6A1D;}
	.st18{fill:#E5C1A1;}
	.st19{fill:#F9DDBF;}
	.st20{opacity:0.5;fill:#E2810E;}
	.st21{fill:#E2810E;}
	.st22{opacity:0.7;}
	.st23{fill:#77A4E5;}
	.st24{fill:#9FC1F4;}
	.st25{fill:#36599E;}
	.st26{fill:#2B478B;}
	.st27{fill:#E8945B;}
	.st28{fill:#233862;}
	.st29{fill:#B5453C;}
	.st30{fill:#95C0F4;}
	.st31{fill:#B0D4FF;}
	.st32{fill:#ED975D;}
	.st33{fill:#6980E2;}
	.st34{fill:#2E3552;}
</style>
<rect class="st0" width="2760" height="1840"/>
<g>
	<path class="st1" d="M227.03,1597.4c0.6-10.5-246.55-325.75,41.27-616.81c129.93-131.39,349.7-60.2,314.94-444.03
		c-30.02-331.4,488.43-526.13,810.63-230.25c208.17,191.17,418.91-63.86,749.17,80.84c330.25,144.7,112.78,537.99,248.3,575.05
		c266.95,73,399.53,394.24,186.7,631.63L227.03,1597.4z"/>
	<g>
		<path class="st2" d="M1339.78,831.19c-1.4-2.89-2.94-5.82-4.59-8.71l4.65-2.64c1.7,2.99,3.3,6.03,4.75,9.02L1339.78,831.19z
			 M1330.06,814.06c-1.77-2.72-3.66-5.45-5.62-8.12l4.31-3.17c2.02,2.75,3.97,5.56,5.79,8.36L1330.06,814.06z M798.89,873.02
			c-3.38,0.36-6.78,0.65-10.11,0.84l-0.31-5.34c3.24-0.19,6.56-0.47,9.85-0.82L798.89,873.02z M808.94,871.69l-0.82-5.28
			c3.22-0.5,6.5-1.08,9.75-1.73l1.05,5.24C815.59,870.58,812.24,871.18,808.94,871.69z M778.63,874.2
			c-3.4,0.03-6.82-0.04-10.16-0.19l0.25-5.34c3.24,0.15,6.56,0.21,9.87,0.19L778.63,874.2z M828.81,867.72l-1.27-5.19
			c3.17-0.77,6.39-1.63,9.58-2.55l1.48,5.14C835.34,866.05,832.05,866.93,828.81,867.72z M758.34,873.25
			c-3.38-0.35-6.77-0.79-10.08-1.33l0.86-5.28c3.21,0.52,6.49,0.96,9.77,1.29L758.34,873.25z M848.27,862.14l-1.67-5.08
			c3.1-1.02,6.25-2.12,9.37-3.27l1.85,5.02C854.65,859.98,851.43,861.1,848.27,862.14z M867.24,855.15l-2.02-4.95
			c3.03-1.24,6.1-2.55,9.13-3.91l2.18,4.88C873.45,852.55,870.33,853.89,867.24,855.15z M738.26,869.98
			c-3.33-0.75-6.64-1.62-9.86-2.57l1.52-5.13c3.1,0.92,6.31,1.75,9.52,2.48L738.26,869.98z M1318.38,798.15
			c-2.07-2.52-4.25-5.04-6.46-7.48l3.96-3.6c2.28,2.51,4.51,5.09,6.64,7.69L1318.38,798.15z M885.69,846.9l-2.34-4.81
			c2.94-1.43,5.93-2.93,8.88-4.47l2.48,4.74C891.72,843.92,888.68,845.45,885.69,846.9z M718.73,864.2
			c-3.19-1.18-6.37-2.48-9.44-3.87l2.2-4.87c2.96,1.33,6.02,2.59,9.09,3.72L718.73,864.2z M903.59,837.55l-2.61-4.67
			c2.86-1.6,5.76-3.27,8.61-4.97l2.74,4.59C909.43,834.23,906.49,835.93,903.59,837.55z M1305.08,783.52
			c-2.32-2.31-4.74-4.6-7.18-6.8l3.58-3.97c2.5,2.26,4.98,4.61,7.37,6.98L1305.08,783.52z M700.14,855.81
			c-2.99-1.62-5.95-3.36-8.8-5.18l2.88-4.5c2.73,1.75,5.58,3.43,8.46,4.98L700.14,855.81z M920.93,827.23l-2.86-4.52
			c2.77-1.75,5.57-3.57,8.35-5.42l2.97,4.45C926.58,823.61,923.73,825.46,920.93,827.23z M937.71,816.04l-3.07-4.38
			c2.68-1.88,5.4-3.84,8.09-5.81l3.17,4.31C943.18,812.16,940.43,814.14,937.71,816.04z M682.96,844.8
			c-2.72-2.05-5.38-4.22-7.92-6.46l3.54-4.01c2.43,2.15,4.99,4.23,7.6,6.2L682.96,844.8z M1290.4,770.26
			c-2.54-2.08-5.16-4.12-7.8-6.08l3.19-4.29c2.71,2.01,5.4,4.11,8,6.24L1290.4,770.26z M953.94,804.1l-3.26-4.24l0.79-0.61
			c2.41-1.86,4.81-3.69,7.2-5.48l3.2,4.28c-2.37,1.78-4.75,3.59-7.14,5.44L953.94,804.1z M1274.52,758.47
			c-2.72-1.83-5.53-3.62-8.34-5.32l2.77-4.58c2.89,1.74,5.76,3.58,8.56,5.45L1274.52,758.47z M667.65,831.29
			c-2.36-2.44-4.65-5.01-6.81-7.62l4.13-3.4c2.07,2.51,4.26,4.96,6.53,7.3L667.65,831.29z M969.92,792.15l-3.12-4.34
			c2.73-1.96,5.5-3.92,8.23-5.8l3.04,4.4C975.36,788.27,972.62,790.21,969.92,792.15z M1257.6,748.23c-2.88-1.56-5.85-3.08-8.81-4.5
			l2.32-4.82c3.04,1.46,6.08,3.02,9.03,4.62L1257.6,748.23z M986.32,780.83l-2.95-4.46c2.82-1.86,5.67-3.7,8.47-5.46l2.85,4.53
			C991.93,777.18,989.11,778.99,986.32,780.83z M654.66,815.52c-1.94-2.78-3.8-5.68-5.51-8.62l4.62-2.7
			c1.65,2.81,3.42,5.59,5.28,8.26L654.66,815.52z M1003.18,770.22l-2.75-4.59c2.88-1.73,5.81-3.43,8.71-5.08l2.64,4.65
			C1008.92,766.83,1006.03,768.52,1003.18,770.22z M1239.78,739.65c-3.03-1.28-6.12-2.51-9.19-3.64l1.85-5.02
			c3.15,1.16,6.33,2.42,9.43,3.74L1239.78,739.65z M1020.5,760.4l-2.53-4.71c2.96-1.59,5.97-3.15,8.95-4.65l2.4,4.78
			C1026.39,757.29,1023.42,758.83,1020.5,760.4z M1221.23,732.81c-3.13-0.99-6.32-1.91-9.5-2.75l1.37-5.17
			c3.26,0.86,6.54,1.81,9.74,2.83L1221.23,732.81z M1038.27,751.46l-2.28-4.84c3.05-1.43,6.14-2.83,9.19-4.17l2.14,4.9
			C1044.33,748.67,1041.28,750.05,1038.27,751.46z M644.33,797.87c-1.47-3.05-2.85-6.2-4.08-9.37l4.98-1.94
			c1.18,3.04,2.5,6.06,3.91,8.99L644.33,797.87z M1202.11,727.75c-3.2-0.69-6.47-1.31-9.72-1.85l0.88-5.27
			c3.33,0.55,6.68,1.19,9.96,1.9L1202.11,727.75z M1056.5,743.52l-1.99-4.96c3.13-1.26,6.3-2.48,9.43-3.62l1.84,5.02
			C1062.7,741.08,1059.58,742.28,1056.5,743.52z M1182.6,724.5c-3.26-0.39-6.57-0.71-9.85-0.95l0.39-5.33
			c3.36,0.25,6.75,0.57,10.09,0.97L1182.6,724.5z M1075.15,736.68l-1.68-5.08c3.21-1.06,6.46-2.08,9.65-3.01l1.51,5.13
			C1081.49,734.64,1078.31,735.64,1075.15,736.68z M1162.87,723.05c-3.26-0.09-6.59-0.12-9.9-0.07l-0.08-5.35
			c3.38-0.05,6.79-0.03,10.13,0.07L1162.87,723.05z M1094.2,731.08l-1.33-5.18c3.26-0.84,6.57-1.62,9.84-2.34l1.14,5.22
			C1100.65,729.49,1097.4,730.26,1094.2,731.08z M1143.08,723.34c-3.27,0.19-6.59,0.45-9.87,0.77l-0.53-5.32
			c3.35-0.33,6.75-0.6,10.09-0.79L1143.08,723.34z M1113.58,726.85l-0.95-5.26c3.33-0.6,6.69-1.14,10-1.6l0.74,5.3
			C1120.13,725.74,1116.84,726.27,1113.58,726.85z M636.92,778.84c-0.98-3.22-1.85-6.55-2.59-9.88l5.22-1.16
			c0.71,3.2,1.55,6.39,2.49,9.49L636.92,778.84z M632.47,758.93c-0.18-1.23-0.35-2.46-0.49-3.69c-0.26-2.14-0.47-4.31-0.63-6.45
			l5.33-0.4c0.16,2.06,0.36,4.16,0.61,6.21c0.14,1.19,0.3,2.37,0.48,3.55L632.47,758.93z M636.27,738.55l-5.35,0.04
			c-0.02-3.36,0.06-6.79,0.26-10.19l5.34,0.31C636.33,732,636.25,735.31,636.27,738.55z M637.4,718.89l-5.31-0.64
			c0.4-3.28,0.9-6.62,1.5-9.92l5.29,0.8l-0.04,0.21C638.28,712.48,637.79,715.71,637.4,718.89z M640.86,699.44l-5.22-1.18
			c0.74-3.29,1.57-6.6,2.44-9.83l5.16,1.4C642.39,692.99,641.59,696.22,640.86,699.44z M823.79,672.38
			c-3.53,0.34-7.02,0.42-10.39,0.27l0.25-5.34c3.11,0.15,6.35,0.06,9.63-0.25L823.79,672.38z M834,670.76l-1.15-5.22
			c3.1-0.68,6.26-1.56,9.37-2.61l1.71,5.07C840.63,669.11,837.29,670.04,834,670.76z M803.03,671.31
			c-3.51-0.77-6.89-1.85-10.02-3.23l2.15-4.9c2.81,1.23,5.84,2.21,9.01,2.9L803.03,671.31z M853.5,664.22l-2.2-4.87
			c2.94-1.33,5.86-2.83,8.69-4.45l2.66,4.64C859.67,661.25,856.6,662.82,853.5,664.22z M871.31,654.04l-3.08-4.38
			c2.66-1.87,5.26-3.89,7.72-5.98l3.47,4.07C876.84,649.96,874.11,652.07,871.31,654.04z M646.05,680.34l-5.09-1.63
			c1.03-3.21,2.14-6.44,3.3-9.58l5.01,1.85C648.14,674.05,647.06,677.2,646.05,680.34z M783.84,662.77
			c-2.84-2.11-5.44-4.55-7.72-7.27l4.09-3.44c2.02,2.4,4.32,4.56,6.82,6.42L783.84,662.77z M886.91,640.72l-3.84-3.72
			c2.27-2.35,4.43-4.82,6.42-7.34l4.2,3.31C891.58,635.64,889.3,638.24,886.91,640.72z M652.91,661.78l-4.93-2.08
			c1.31-3.11,2.71-6.22,4.15-9.25l4.83,2.3C655.56,655.72,654.19,658.75,652.91,661.78z M770.25,646.71
			c-1.57-2.99-2.91-6.26-3.98-9.7l5.11-1.59c0.97,3.13,2.19,6.09,3.61,8.8L770.25,646.71z M899.62,624.57l-4.53-2.85
			c1.74-2.76,3.32-5.61,4.71-8.49l4.82,2.33C903.14,618.61,901.46,621.64,899.62,624.57z M661.43,643.93l-4.71-2.52
			c1.59-2.97,3.27-5.94,4.99-8.83l4.59,2.74C664.62,638.14,662.98,641.04,661.43,643.93z M763.94,626.88
			c-0.14-0.93-0.28-1.88-0.39-2.84c-0.29-2.39-0.49-4.89-0.58-7.44l5.34-0.21c0.09,2.4,0.28,4.76,0.55,7
			c0.11,0.9,0.23,1.78,0.37,2.66L763.94,626.88z M908.56,606.01l-5.05-1.74c1.05-3.06,1.93-6.2,2.59-9.33l5.23,1.11
			C910.61,599.39,909.68,602.74,908.56,606.01z M671.56,626.94L667.1,624c1.85-2.8,3.79-5.6,5.78-8.33l4.32,3.15
			C675.26,621.48,673.36,624.21,671.56,626.94z M768.35,606.59l-5.34-0.21c0.13-3.42,0.38-6.84,0.75-10.16l5.32,0.58
			C768.72,600,768.47,603.3,768.35,606.59z M912.85,585.83l-5.33-0.46c0.27-3.19,0.36-6.45,0.24-9.67l5.34-0.19
			C913.23,578.94,913.14,582.42,912.85,585.83z M683.21,610.96l-4.17-3.34c2.1-2.62,4.29-5.23,6.52-7.76l4.01,3.53
			C687.41,605.85,685.26,608.4,683.21,610.96z M696.28,596.1l-3.85-3.71c2.34-2.43,4.76-4.83,7.2-7.14l3.68,3.88
			C700.93,591.39,698.56,593.73,696.28,596.1z M770.49,587.11l-5.26-0.97c0.62-3.35,1.37-6.7,2.24-9.95l5.17,1.38
			C771.81,580.68,771.08,583.89,770.49,587.11z M906.57,566.29c-0.72-3.09-1.79-6.06-3.16-8.81l4.79-2.38
			c1.56,3.12,2.76,6.48,3.58,9.98L906.57,566.29z M710.64,582.47l-3.51-4.04c2.54-2.2,5.16-4.38,7.8-6.47l3.32,4.19
			C715.68,578.2,713.12,580.33,710.64,582.47z M775.54,568.22l-5.04-1.79c1.14-3.2,2.42-6.39,3.81-9.48l4.88,2.2
			C777.85,562.1,776.62,565.15,775.54,568.22z M898.28,549.67c-1.97-2.34-4.27-4.52-6.82-6.49l3.26-4.24
			c2.86,2.2,5.44,4.65,7.66,7.28L898.28,549.67z M726.15,570.17l-3.14-4.33c2.73-1.98,5.53-3.92,8.34-5.77l2.95,4.46
			C731.56,566.34,728.81,568.24,726.15,570.17z M742.68,559.26l-2.75-4.59c2.89-1.73,5.85-3.42,8.81-5.02l2.55,4.7
			C748.39,555.92,745.5,557.57,742.68,559.26z M783.56,550.4l-4.68-2.58c1.44-2.62,3.01-5.22,4.65-7.76
			c-1.76,0.62-3.52,1.26-5.26,1.92l-1.9-5c3.16-1.2,6.38-2.34,9.57-3.38l1.66,5.08c-0.89,0.29-1.79,0.59-2.68,0.9l3.71,2.46
			C786.82,544.75,785.12,547.57,783.56,550.4z M883.4,538.11c-2.74-1.41-5.72-2.67-8.86-3.75l1.73-5.06
			c3.38,1.16,6.6,2.52,9.57,4.05L883.4,538.11z M760.09,549.83l-2.34-4.81c3.03-1.47,6.13-2.9,9.22-4.23l2.12,4.91
			C766.08,547,763.05,548.39,760.09,549.83z M865.19,531.78c-3.07-0.66-6.31-1.19-9.63-1.58l0.61-5.31c3.49,0.4,6.9,0.96,10.14,1.66
			L865.19,531.78z M797.07,535.82l-1.06-3.85c-0.57,0.7-1.12,1.4-1.67,2.1l-4.22-3.28c2.06-2.65,4.26-5.28,6.56-7.82l3.97,3.58
			c-1.07,1.19-2.13,2.4-3.15,3.62c2.68-0.71,5.37-1.36,8.02-1.95l1.15,5.22C803.49,534.15,800.26,534.95,797.07,535.82z
			 M845.79,529.49c-3.19-0.1-6.5-0.09-9.83,0.05l-0.21-5.34c3.46-0.14,6.89-0.16,10.21-0.05L845.79,529.49z M816.37,531.58
			l-0.87-5.28c3.39-0.56,6.78-1.01,10.09-1.36l0.56,5.32C822.94,530.6,819.66,531.04,816.37,531.58z M807.48,519.49l-3.72-3.84
			c2.4-2.32,4.93-4.62,7.54-6.83l3.46,4.07C812.25,515.02,809.8,517.25,807.48,519.49z M822.45,506.73l-3.22-4.27
			c2.65-2,5.43-3.98,8.27-5.89l2.99,4.44C827.73,502.86,825.03,504.79,822.45,506.73z M838.81,495.71l-2.76-4.58
			c2.84-1.71,5.81-3.41,8.81-5.04l2.55,4.7C844.48,492.39,841.58,494.04,838.81,495.71z M856.23,486.26l-2.34-4.8
			c2.98-1.45,6.07-2.89,9.19-4.26l2.16,4.89C862.18,483.44,859.15,484.84,856.23,486.26z M874.4,478.26l-1.97-4.97
			c3.08-1.23,6.27-2.43,9.47-3.58l1.81,5.03C880.56,475.87,877.43,477.05,874.4,478.26z M893.12,471.54l-1.64-5.09
			c3.17-1.02,6.43-2.02,9.67-2.96l1.49,5.13C899.45,469.55,896.25,470.53,893.12,471.54z M912.25,465.99l-1.34-5.18
			c3.23-0.84,6.54-1.64,9.83-2.39l1.19,5.21C918.69,464.37,915.43,465.17,912.25,465.99z M931.69,461.54l-1.05-5.24
			c3.33-0.67,6.68-1.29,9.96-1.84l0.9,5.27C938.26,460.28,934.96,460.89,931.69,461.54z M961.17,457.05c-0.03,0-3.67,0.3-9.82,1.15
			l-0.73-5.3c6.35-0.88,10.02-1.18,10.13-1.19L961.17,457.05z"/>
	</g>
	<rect x="774.45" y="1045.97" class="st3" width="212.72" height="546.25"/>
	<rect x="1105.37" y="867.43" class="st3" width="212.72" height="724.79"/>
	<rect x="1406.26" y="674.73" class="st3" width="232.92" height="917.48"/>
	<rect x="1722.17" y="547.72" class="st3" width="212.72" height="1044.5"/>
	<g>
		<polygon class="st4" points="1639.18,980.49 2086.26,764.06 1886.87,1189.07 1853.16,996.24 		"/>
	</g>
	<g>
		<path class="st5" d="M1536.33,835.6c-10.94-44.95,16.64-90.26,61.59-101.2c44.95-10.94,90.26,16.63,101.2,61.59
			c10.94,44.95-16.63,90.26-61.59,101.2S1547.27,880.55,1536.33,835.6z"/>
		<g>
			<path class="st6" d="M1636,890.92c-19.81,4.82-40.31,1.64-57.72-8.96c-17.42-10.6-29.66-27.35-34.48-47.15
				c-4.82-19.81-1.64-40.31,8.96-57.73c10.6-17.42,27.34-29.66,47.15-34.48c19.81-4.82,40.31-1.64,57.73,8.96
				c17.42,10.6,29.66,27.34,34.48,47.15c4.82,19.81,1.64,40.31-8.96,57.73C1672.56,873.85,1655.81,886.1,1636,890.92z
				 M1600.99,747.02c-38.45,9.36-62.12,48.25-52.77,86.71c9.36,38.45,48.25,62.12,86.71,52.77c38.45-9.36,62.12-48.25,52.77-86.71
				C1678.34,761.33,1639.44,737.66,1600.99,747.02z"/>
		</g>
		<g>
			<path class="st6" d="M1633.41,835.8c-0.2-1.65-0.61-3.07-1.22-4.26c-0.62-1.2-1.51-2.24-2.69-3.13
				c-1.18-0.89-2.65-1.66-4.42-2.33c-1.77-0.66-3.91-1.26-6.41-1.79c-4.31-0.95-8.25-2.01-11.81-3.19
				c-3.57-1.18-6.68-2.66-9.33-4.44c-2.66-1.79-4.82-3.99-6.48-6.61c-1.67-2.62-2.73-5.85-3.2-9.69c-0.4-3.33-0.18-6.44,0.67-9.32
				c0.85-2.88,2.25-5.48,4.19-7.78c1.95-2.3,4.37-4.28,7.27-5.92c2.9-1.64,6.23-2.87,9.99-3.68l-1.52-12.58l10.12-1.23l1.55,12.75
				c3.68,0.03,7.09,0.59,10.22,1.68c3.13,1.09,5.87,2.67,8.21,4.73c2.35,2.06,4.27,4.6,5.77,7.62c1.5,3.02,2.49,6.49,2.96,10.4
				l-18.28,2.22c-0.57-4.7-2.04-8.09-4.41-10.17c-2.37-2.08-5.31-2.9-8.81-2.48c-1.9,0.23-3.5,0.69-4.81,1.39
				c-1.31,0.69-2.35,1.56-3.12,2.58c-0.77,1.03-1.3,2.19-1.57,3.5c-0.27,1.31-0.32,2.68-0.14,4.13c0.18,1.45,0.55,2.74,1.11,3.86
				c0.56,1.12,1.42,2.12,2.58,3c1.15,0.87,2.64,1.65,4.45,2.32c1.82,0.67,4.04,1.33,6.69,1.96c4.28,1.03,8.19,2.15,11.74,3.35
				c3.55,1.2,6.65,2.7,9.31,4.51c2.66,1.81,4.82,4.02,6.49,6.64c1.67,2.62,2.73,5.83,3.19,9.63c0.42,3.45,0.19,6.62-0.68,9.5
				c-0.87,2.89-2.28,5.47-4.23,7.73c-1.95,2.26-4.4,4.19-7.36,5.78c-2.95,1.59-6.31,2.79-10.06,3.6l1.42,11.7l-10.06,1.22
				l-1.41-11.64c-3.54,0.07-7.02-0.28-10.43-1.06c-3.41-0.78-6.52-2.12-9.32-4.03c-2.8-1.91-5.16-4.45-7.09-7.64
				c-1.93-3.18-3.17-7.13-3.74-11.83l18.28-2.21c0.34,2.78,1.01,5.06,2.01,6.82c1,1.77,2.23,3.13,3.67,4.09
				c1.44,0.96,3.02,1.56,4.75,1.81c1.72,0.25,3.44,0.27,5.17,0.06c1.98-0.24,3.69-0.71,5.13-1.4c1.43-0.69,2.6-1.55,3.51-2.57
				c0.9-1.02,1.53-2.18,1.89-3.48C1633.49,838.62,1633.58,837.25,1633.41,835.8z"/>
		</g>
	</g>
	<g>
		<path class="st5" d="M1977.05,598.14c-1.77-45.02,33.29-82.96,78.32-84.73c45.02-1.77,82.96,33.3,84.73,78.32
			c1.77,45.02-33.29,82.96-78.32,84.73C2016.75,678.23,1978.82,643.17,1977.05,598.14z"/>
		<g>
			<path class="st6" d="M2061.53,670.18c-19.84,0.78-38.8-6.21-53.38-19.69c-14.58-13.48-23.04-31.83-23.82-51.67
				c-0.78-19.84,6.21-38.8,19.69-53.38c13.48-14.58,31.83-23.04,51.67-23.82c19.84-0.78,38.79,6.21,53.38,19.69
				c14.58,13.48,23.04,31.83,23.82,51.67c0.78,19.84-6.21,38.8-19.69,53.38C2099.72,660.94,2081.37,669.4,2061.53,670.18z
				 M2055.87,526.06c-38.51,1.51-68.61,34.08-67.1,72.59c1.51,38.51,34.08,68.61,72.59,67.1c38.51-1.52,68.61-34.08,67.1-72.59
				C2126.94,554.64,2094.38,524.54,2055.87,526.06z"/>
		</g>
		<g>
			<path class="st6" d="M2069.69,617.06c0.13-1.61,0.01-3.04-0.34-4.31c-0.36-1.26-1.01-2.43-1.96-3.51
				c-0.95-1.08-2.21-2.1-3.77-3.07c-1.56-0.97-3.49-1.95-5.78-2.94c-3.93-1.74-7.49-3.51-10.66-5.32c-3.18-1.81-5.86-3.83-8.05-6.04
				c-2.19-2.22-3.83-4.74-4.91-7.56c-1.08-2.82-1.48-6.11-1.18-9.87c0.26-3.26,1.07-6.18,2.44-8.77c1.37-2.59,3.2-4.8,5.5-6.62
				c2.3-1.82,5-3.24,8.09-4.25c3.09-1.01,6.5-1.54,10.24-1.59l0.97-12.3l9.9,0.78l-0.98,12.47c3.51,0.74,6.65,1.93,9.43,3.58
				c2.78,1.65,5.08,3.68,6.93,6.1c1.84,2.42,3.19,5.22,4.04,8.39c0.85,3.17,1.12,6.67,0.82,10.5l-17.88-1.41
				c0.36-4.6-0.39-8.12-2.25-10.56c-1.86-2.44-4.5-3.8-7.93-4.07c-1.86-0.15-3.48-0.01-4.86,0.4s-2.54,1.03-3.48,1.86
				c-0.94,0.83-1.66,1.85-2.17,3.04c-0.51,1.19-0.82,2.5-0.93,3.92c-0.11,1.42-0.01,2.72,0.31,3.9c0.32,1.18,0.95,2.3,1.88,3.36
				c0.93,1.06,2.2,2.08,3.8,3.08c1.6,0.99,3.6,2.05,6.01,3.16c3.88,1.81,7.4,3.63,10.56,5.46c3.15,1.83,5.83,3.86,8.02,6.1
				c2.19,2.24,3.83,4.77,4.91,7.59c1.08,2.83,1.48,6.09,1.19,9.81c-0.27,3.37-1.09,6.35-2.48,8.94c-1.39,2.59-3.23,4.78-5.53,6.56
				c-2.3,1.79-5.01,3.15-8.14,4.1c-3.12,0.95-6.56,1.45-10.3,1.5l-0.9,11.44l-9.84-0.78l0.9-11.38c-3.4-0.62-6.65-1.62-9.75-3.03
				c-3.11-1.4-5.81-3.28-8.11-5.64c-2.3-2.36-4.07-5.25-5.29-8.66c-1.23-3.41-1.66-7.42-1.29-12.02l17.88,1.41
				c-0.21,2.72-0.01,5.02,0.61,6.9c0.62,1.88,1.52,3.42,2.72,4.61c1.19,1.19,2.58,2.07,4.18,2.64c1.59,0.57,3.24,0.92,4.93,1.05
				c1.94,0.15,3.66,0.04,5.16-0.34c1.5-0.38,2.79-0.97,3.84-1.78c1.06-0.8,1.88-1.79,2.47-2.96
				C2069.22,619.77,2069.57,618.48,2069.69,617.06z"/>
		</g>
	</g>
	<g>
		<path class="st5" d="M1861.93,742.87c-0.55-31.08,24.2-56.71,55.27-57.26c31.07-0.55,56.71,24.2,57.26,55.27
			c0.55,31.07-24.2,56.71-55.27,57.26C1888.12,798.69,1862.48,773.94,1861.93,742.87z"/>
		<g>
			<path class="st6" d="M1919.11,793.8c-13.69,0.24-26.66-4.86-36.51-14.37c-9.85-9.51-15.41-22.29-15.66-35.98
				c-0.24-13.69,4.86-26.66,14.37-36.51c9.51-9.85,22.29-15.41,35.98-15.66c13.69-0.24,26.66,4.86,36.51,14.37
				c9.85,9.51,15.41,22.29,15.66,35.98c0.24,13.69-4.86,26.66-14.38,36.51C1945.59,788,1932.81,793.56,1919.11,793.8z
				 M1917.36,694.33c-26.58,0.47-47.82,22.48-47.35,49.06c0.47,26.58,22.48,47.82,49.06,47.35c26.58-0.47,47.82-22.48,47.35-49.06
				C1965.94,715.1,1943.94,693.86,1917.36,694.33z"/>
		</g>
		<g>
			<path class="st6" d="M1925.53,757.29c0.11-1.11,0.05-2.1-0.17-2.97c-0.23-0.88-0.66-1.69-1.3-2.45
				c-0.64-0.76-1.49-1.48-2.56-2.18c-1.06-0.69-2.38-1.4-3.94-2.12c-2.69-1.26-5.11-2.53-7.27-3.83c-2.17-1.3-3.99-2.73-5.46-4.29
				c-1.48-1.56-2.57-3.32-3.28-5.29c-0.71-1.96-0.93-4.24-0.67-6.82c0.23-2.24,0.83-4.25,1.81-6.01c0.98-1.77,2.28-3.26,3.89-4.48
				c1.61-1.22,3.5-2.16,5.64-2.81c2.14-0.65,4.51-0.96,7.09-0.94l0.85-8.47l6.81,0.69l-0.87,8.59c2.41,0.56,4.56,1.43,6.45,2.61
				c1.89,1.18,3.45,2.61,4.69,4.31c1.23,1.7,2.12,3.65,2.66,5.84c0.54,2.2,0.67,4.62,0.41,7.25l-12.31-1.24
				c0.32-3.17-0.15-5.6-1.39-7.32c-1.25-1.71-3.05-2.69-5.41-2.92c-1.28-0.13-2.4-0.06-3.35,0.2c-0.96,0.26-1.77,0.67-2.43,1.23
				c-0.66,0.56-1.17,1.25-1.54,2.06c-0.37,0.81-0.6,1.71-0.7,2.69c-0.1,0.98-0.05,1.87,0.16,2.69c0.2,0.82,0.62,1.6,1.25,2.34
				c0.63,0.74,1.49,1.47,2.58,2.18c1.09,0.71,2.46,1.47,4.1,2.27c2.65,1.31,5.05,2.61,7.2,3.92c2.15,1.31,3.96,2.75,5.44,4.33
				c1.48,1.58,2.57,3.34,3.27,5.31c0.71,1.96,0.93,4.22,0.67,6.78c-0.23,2.32-0.85,4.36-1.84,6.13c-1,1.77-2.3,3.25-3.91,4.44
				c-1.61,1.2-3.5,2.1-5.67,2.71c-2.17,0.61-4.54,0.9-7.12,0.88l-0.79,7.87l-6.77-0.68l0.79-7.83c-2.33-0.47-4.56-1.22-6.68-2.23
				c-2.12-1.01-3.96-2.35-5.51-4.01c-1.55-1.66-2.73-3.68-3.52-6.05c-0.79-2.37-1.03-5.14-0.71-8.3l12.31,1.24
				c-0.19,1.87-0.08,3.46,0.32,4.77c0.4,1.3,1,2.38,1.81,3.22s1.75,1.47,2.84,1.88c1.09,0.42,2.22,0.68,3.38,0.8
				c1.33,0.13,2.52,0.08,3.57-0.16c1.04-0.24,1.94-0.63,2.68-1.17c0.74-0.54,1.33-1.21,1.75-2
				C1925.17,759.15,1925.43,758.27,1925.53,757.29z"/>
		</g>
	</g>
	<g>
		<path class="st5" d="M1624.96,569.17c-23.84-72,15.2-149.68,87.19-173.52c72-23.84,149.68,15.2,173.52,87.19
			c23.84,71.99-15.2,149.68-87.19,173.52C1726.48,680.2,1648.79,641.16,1624.96,569.17z"/>
		<g>
			<path class="st6" d="M1795.15,646.31c-31.72,10.5-65.64,8.03-95.5-6.98c-29.86-15-52.09-40.74-62.6-72.46
				c-10.5-31.72-8.03-65.64,6.98-95.5c15-29.86,40.74-52.09,72.46-62.6s65.64-8.03,95.5,6.98c29.86,15,52.09,40.74,62.59,72.46
				c10.5,31.72,8.03,65.64-6.98,95.5C1852.61,613.58,1826.88,635.81,1795.15,646.31z M1718.84,415.86
				c-61.58,20.39-95.09,87.08-74.7,148.67c20.39,61.58,87.08,95.09,148.67,74.7c61.58-20.39,95.09-87.08,74.7-148.66
				C1847.12,428.98,1780.42,395.47,1718.84,415.86z"/>
		</g>
		<g>
			<path class="st6" d="M1783.59,556.6c-0.54-2.66-1.4-4.93-2.56-6.8c-1.17-1.88-2.77-3.46-4.81-4.76c-2.04-1.3-4.55-2.37-7.53-3.21
				c-2.98-0.84-6.55-1.53-10.71-2.07c-7.17-0.98-13.74-2.19-19.72-3.64c-5.99-1.45-11.26-3.46-15.84-6.02
				c-4.58-2.56-8.4-5.88-11.47-9.94c-3.07-4.06-5.24-9.2-6.51-15.41c-1.1-5.39-1.15-10.49-0.15-15.32c1-4.83,2.94-9.25,5.82-13.27
				c2.87-4.02,6.57-7.57,11.1-10.64c4.53-3.07,9.8-5.52,15.83-7.34l-4.16-20.35l16.38-3.35l4.22,20.63
				c6.02-0.44,11.66,0.03,16.92,1.39c5.25,1.37,9.94,3.58,14.04,6.64c4.11,3.06,7.59,6.95,10.44,11.68
				c2.85,4.73,4.92,10.27,6.22,16.61l-29.58,6.05c-1.55-7.61-4.41-12.95-8.56-16.03c-4.15-3.08-9.05-4.04-14.72-2.88
				c-3.07,0.63-5.63,1.6-7.67,2.91c-2.04,1.31-3.63,2.85-4.76,4.64c-1.13,1.78-1.83,3.76-2.09,5.93c-0.27,2.17-0.16,4.42,0.32,6.77
				c0.48,2.34,1.25,4.4,2.33,6.16c1.07,1.76,2.61,3.28,4.61,4.55c2,1.27,4.53,2.34,7.58,3.2c3.05,0.86,6.78,1.63,11.19,2.32
				c7.12,1.12,13.66,2.42,19.62,3.91c5.96,1.49,11.23,3.53,15.81,6.13c4.58,2.6,8.41,5.93,11.48,9.98
				c3.07,4.06,5.23,9.17,6.49,15.32c1.14,5.58,1.19,10.78,0.15,15.62c-1.04,4.84-3,9.23-5.89,13.19
				c-2.89,3.96-6.64,7.43-11.25,10.42c-4.61,2.99-9.93,5.4-15.96,7.22l3.87,18.92l-16.27,3.33l-3.85-18.82
				c-5.78,0.59-11.51,0.47-17.18-0.35c-5.68-0.82-10.93-2.6-15.75-5.35c-4.83-2.74-9.02-6.59-12.59-11.54
				c-3.57-4.95-6.13-11.23-7.69-18.83l29.58-6.05c0.92,4.5,2.32,8.13,4.2,10.88c1.88,2.75,4.06,4.82,6.54,6.19
				c2.48,1.38,5.15,2.15,7.99,2.33c2.84,0.18,5.66-0.02,8.46-0.59c3.21-0.66,5.94-1.64,8.19-2.96c2.25-1.32,4.05-2.87,5.39-4.67
				c1.34-1.79,2.21-3.77,2.62-5.94C1784.1,561.2,1784.07,558.95,1783.59,556.6z"/>
		</g>
	</g>
	<g>
		<path class="st7" d="M1213.36,488.25c-12.34,3.08-24.13,6.03-35.15,7.91c-35.69,6.1-63.26,1.07-75.15-46.51
			c-11.88-47.58,10.08-64.99,44.45-76.39c10.61-3.52,22.4-6.46,34.74-9.54c26.38-6.59,55.58-3.68,78.83,3.95
			c22.87,7.52,39.99,19.61,43.03,31.76c3.46,13.83-5.96,32.57-22.72,49.53C1264.36,466.23,1239.74,481.66,1213.36,488.25z"/>
		<polygon class="st8" points="1147.51,373.27 1106.98,346.79 1042.98,360.43 1109.45,407.13 		"/>
		<polygon class="st8" points="1178.11,495.77 1154.78,538.19 1091.89,556.25 1128.6,483.78 		"/>
		<path class="st8" d="M1178.21,496.16c-35.69,6.1-63.26,1.07-75.15-46.51c-11.88-47.58,10.08-64.99,44.45-76.39L1178.21,496.16z"/>
		<path class="st4" d="M1019.74,470.46c0,0,17.81-41.51,49-35.12c31.81,6.52,27.8,40.8,3.93,43.94
			C1048.79,482.43,1033.66,466.98,1019.74,470.46z"/>
		<path class="st8" d="M1209.45,389.42c16.48-4.12,33.18,5.91,37.3,22.39c4.12,16.48-5.91,33.18-22.39,37.3
			c-16.48,4.12-33.18-5.91-37.3-22.39C1182.95,410.24,1192.97,393.54,1209.45,389.42z"/>
		<g>
			<path class="st3" d="M1216.91,452.08c-14.7,0-28.11-9.97-31.83-24.86c-4.38-17.55,6.33-35.4,23.88-39.78
				c17.55-4.39,35.4,6.33,39.78,23.88c2.12,8.5,0.81,17.32-3.7,24.84c-4.51,7.51-11.68,12.82-20.18,14.95
				C1222.2,451.76,1219.53,452.08,1216.91,452.08z M1216.9,390.55c-2.3,0-4.63,0.28-6.95,0.86c-7.44,1.86-13.71,6.5-17.66,13.08
				c-3.95,6.57-5.1,14.29-3.24,21.73c3.84,15.36,19.45,24.73,34.81,20.9c7.44-1.86,13.71-6.5,17.66-13.08
				c3.95-6.58,5.1-14.29,3.24-21.73C1241.5,399.28,1229.77,390.55,1216.9,390.55z"/>
		</g>
		<path class="st4" d="M1281.39,448.97l-20.3-81.29c22.87,7.52,39.99,19.61,43.03,31.76C1307.57,413.27,1298.15,432,1281.39,448.97z
			"/>
	</g>
	<g>
		<path class="st9" d="M2201.23,895.35c0,0,62.15,64.44,65.09,88.7c2.94,24.25-29.77,62.12-29.77,62.12L2201.23,895.35z"/>
		<path class="st10" d="M2173.15,1563.22c0,0-2.19,34.18-8.81,34.66c-0.88,0.06-33.55-0.01-33.55-0.01l-41.7-0.33
			c0,0,0.29-10.05,12.49-12.15c12.19-2.1,32.62-10.62,40.03-26.71C2149.42,1541.74,2173.15,1563.22,2173.15,1563.22z"/>
		<path class="st11" d="M2266.03,1563.42c0,0-2.19,34.18-8.81,34.66c-0.88,0.06-33.55-0.01-33.55-0.01l-41.7-0.33
			c0,0,0.29-10.05,12.49-12.14c12.19-2.1,32.62-10.62,40.03-26.71C2242.3,1541.95,2266.03,1563.42,2266.03,1563.42z"/>
		<path class="st8" d="M2127.76,1195.7c0,0,10.75,69.78,51.17,193.69s45.84,177.54,45.84,177.54l43.65-1.13
			c0,0,0.67-135.32-17.95-197.63c-18.62-62.31-3.56-224.49-3.56-224.49L2127.76,1195.7z"/>
		<path class="st12" d="M2106.63,1147.2c0,0-1.77,105.11,16.13,234.21c17.91,129.1,11.62,183.87,11.62,183.87l43.56,1.54
			c0,0,26.31-129.05,18.99-193.67c-7.32-64.61,36.13-221.59,36.13-221.59L2106.63,1147.2z"/>
		<path class="st13" d="M2191.48,901.41l-23.24,15.16l-33.53-6.32c0.47-2.71,2.71-13.92,4.75-24.08c0.12-0.6,0.25-1.2,0.36-1.78
			c1.75-8.65,3.25-16.07,3.25-16.07l31.36-13.75l11.69-5.13c-0.03,0.18-0.93,9.59-1.05,10.97
			C2182.83,884.8,2191.48,901.41,2191.48,901.41z"/>
		<path class="st9" d="M2143.34,893.62c0.65-0.27,40.42-11.91,44.73-10.48c4.31,1.43,6.85,9.79,6.85,9.79l-65.03,14.55
			C2129.89,907.49,2135.03,897.1,2143.34,893.62z"/>
		<path class="st14" d="M2249.77,1160.49c-6.8,30.71-118.91,34.11-147.75,6.16c-3.28-3.19-3.41-17.98-2.13-37.92
			c2.51-38.96,10.42-97.56,10.79-127.51c0.18-14.46,2.2-29.25,4.88-42.67c5.69-28.61,14.33-51.06,14.33-51.06
			s54.79-17.58,65.03-14.55C2244.25,907.55,2256.58,1129.78,2249.77,1160.49z"/>
		<path class="st9" d="M2099.9,1128.73c2.51-38.96,10.42-97.56,10.79-127.51c0.18-14.46,2.2-29.25,4.88-42.67l32.95-5.74
			C2148.51,952.81,2180.43,1084.42,2099.9,1128.73z"/>
		<path class="st13" d="M2117.85,1074.46c0,0,2.23,5.37-2.49,8.96c-4.72,3.59-7.79,9.42-6.72,13.69
			c1.07,4.27,11.4,11.25,14.99,10.14c3.59-1.11,10.9-6.72,10.12-8.97c-0.78-2.25,4.95-19.74-3.78-26.49
			C2121.24,1065.03,2117.85,1074.46,2117.85,1074.46z"/>
		<path class="st14" d="M2155.06,899.66c0,0-32.14,5.94-57.81,43.61c-25.68,37.66-42.58,65.67-37.89,79.28
			c4.68,13.61,47.56,60.85,54.97,60.87c7.41,0.02,19.38-5.35,20.08-17.47c0,0-30.16-45.42-24.18-52.2
			c2.55-2.9,39.35-32.64,44.57-19.16C2163.42,1016.89,2155.06,899.66,2155.06,899.66z"/>
		<path class="st15" d="M2182.72,860.83c-6.9,11.64-32.56,21.66-43.26,25.34c0.12-0.6,0.25-1.2,0.36-1.78
			c1.75-8.65,3.25-16.07,3.25-16.07l31.36-13.75C2181.36,854.48,2185.57,856.04,2182.72,860.83z"/>
		<path class="st13" d="M2131.28,866.38c0,0,50.43,15.85,59.81-15.71c9.39-31.55,22.22-50.76-9.58-62.21
			c-31.8-11.45-41.67-1.28-47.36,8.49C2128.45,806.72,2118.4,861.44,2131.28,866.38z"/>
		<path class="st8" d="M2136.14,793.91c0,0,3.14,36.75,10.74,35.17c7.6-1.58,14.5-2.75,13.36,8.33s-11.7,23.84,11.71,25.85
			c23.41,2.01,57.21-58.31,50.8-69.76C2204.26,760.47,2109.4,753.6,2136.14,793.91z"/>
	</g>
	<g>
		<g>
			<g>
				<g>
					<path class="st5" d="M1891.62,1576.67v13.22c0,1.05-0.38,2.03-1.04,2.84c-0.69,0.85-1.68,1.53-2.84,1.9
						c-0.36,0.13-0.73,0.21-1.11,0.27c-0.35,0.05-0.71,0.08-1.07,0.08h-250.72c-3.03,0-5.56-1.89-6.01-4.33
						c-0.02-0.16-0.05-0.33-0.05-0.5c0-0.09-0.01-0.17-0.01-0.26v-13.22c0-0.09,0.01-0.17,0.01-0.26c0.01-0.17,0.03-0.34,0.05-0.5
						c0.45-2.44,2.98-4.33,6.01-4.33h250.72c0.37,0,0.72,0.02,1.07,0.08c0.38,0.05,0.75,0.15,1.11,0.27
						c1.16,0.38,2.15,1.05,2.84,1.9C1891.23,1574.64,1891.62,1575.62,1891.62,1576.67z"/>
					<path class="st6" d="M1768.5,1594.98h-134.32c-2.49,0-4.59-1.61-5.21-3.77c-0.06-0.18-0.11-0.37-0.15-0.56
						c-0.02-0.16-0.05-0.33-0.05-0.5c0-0.09-0.01-0.17-0.01-0.26v-13.22c0-0.09,0.01-0.17,0.01-0.26c0.01-0.17,0.03-0.34,0.05-0.5
						c0.04-0.19,0.09-0.38,0.15-0.56c0.62-2.16,2.72-3.77,5.21-3.77h117.83C1753.89,1578.47,1758.27,1587.99,1768.5,1594.98z"/>
					<g>
						<rect x="1858.26" y="1571.57" class="st6" width="2.85" height="23.41"/>
						<rect x="1848.61" y="1571.57" class="st6" width="2.85" height="23.41"/>
						<rect x="1837.05" y="1571.57" class="st6" width="2.85" height="23.41"/>
						<rect x="1819.32" y="1571.57" class="st6" width="2.85" height="23.41"/>
						<rect x="1800.57" y="1571.57" class="st6" width="2.85" height="23.41"/>
						<rect x="1771.83" y="1571.57" class="st6" width="2.85" height="23.41"/>
						<rect x="1744.91" y="1571.57" class="st6" width="2.85" height="23.41"/>
						<rect x="1720.88" y="1571.57" class="st6" width="2.85" height="23.41"/>
						<rect x="1867.44" y="1571.57" class="st6" width="2.85" height="23.41"/>
						<rect x="1873.51" y="1571.57" class="st6" width="2.85" height="23.41"/>
						<rect x="1879.36" y="1571.57" class="st6" width="2.85" height="23.41"/>
						<path class="st6" d="M1886.62,1571.66v23.24c-0.35,0.05-0.71,0.08-1.07,0.08h-1.78v-23.41h1.78
							C1885.92,1571.57,1886.27,1571.6,1886.62,1571.66z"/>
						<path class="st6" d="M1890.58,1573.82v18.91c-0.69,0.86-1.68,1.53-2.85,1.91v-22.72
							C1888.89,1572.29,1889.89,1572.97,1890.58,1573.82z"/>
					</g>
				</g>
				<g>
					<path class="st5" d="M1864.81,1553.26v13.21c0,1.06-0.38,2.04-1.03,2.85c-0.17,0.21-0.37,0.42-0.57,0.6
						c-0.63,0.56-1.4,1.02-2.28,1.3c-0.35,0.12-0.73,0.2-1.11,0.26c-0.34,0.05-0.71,0.09-1.07,0.09h-250.73c-3.02,0-5.55-1.9-6-4.34
						c-0.02-0.16-0.05-0.33-0.05-0.49c-0.01-0.09-0.01-0.17-0.01-0.27v-13.21c0-0.09,0-0.18,0.01-0.27
						c0.01-0.17,0.03-0.33,0.05-0.49c0.45-2.44,2.98-4.34,6-4.34h250.73c0.16,0,0.32,0.01,0.48,0.02c0.06,0,0.12,0.01,0.17,0.02
						c0.01-0.01,0.02-0.01,0.03,0c0.07,0,0.15,0.01,0.23,0.02c0.05,0.01,0.1,0.02,0.16,0.02c0.38,0.06,0.76,0.14,1.11,0.26
						c0.21,0.07,0.42,0.15,0.61,0.24h0.01c0.13,0.06,0.27,0.13,0.39,0.19c0.07,0.04,0.15,0.09,0.22,0.13
						c0.07,0.04,0.14,0.08,0.2,0.12c0.27,0.16,0.51,0.34,0.74,0.54c0.08,0.06,0.14,0.13,0.21,0.2c0.05,0.04,0.08,0.08,0.12,0.12
						c0.02,0.02,0.05,0.05,0.06,0.07l0.05,0.05c0.08,0.08,0.16,0.16,0.23,0.26C1864.42,1551.24,1864.81,1552.21,1864.81,1553.26z"/>
					<path class="st6" d="M1741.69,1571.58h-134.32c-2.49,0-4.58-1.62-5.2-3.78c-0.06-0.18-0.11-0.37-0.15-0.56
						c-0.02-0.16-0.05-0.33-0.05-0.49c-0.01-0.09-0.01-0.17-0.01-0.27v-13.21c0-0.09,0-0.18,0.01-0.27
						c0.01-0.17,0.03-0.33,0.05-0.49c0.03-0.19,0.09-0.38,0.15-0.56c0.62-2.16,2.71-3.78,5.2-3.78h117.83
						c0.05,0.2,0.1,0.38,0.17,0.58C1727.33,1555.58,1731.75,1564.79,1741.69,1571.58z"/>
					<g>
						<rect x="1831.45" y="1548.17" class="st6" width="2.85" height="23.41"/>
						<rect x="1821.81" y="1548.17" class="st6" width="2.85" height="23.41"/>
						<rect x="1810.24" y="1548.17" class="st6" width="2.85" height="23.41"/>
						<rect x="1792.51" y="1548.17" class="st6" width="2.85" height="23.41"/>
						<rect x="1773.76" y="1548.17" class="st6" width="2.85" height="23.41"/>
						<rect x="1745.02" y="1548.17" class="st6" width="2.85" height="23.41"/>
						<rect x="1718.11" y="1548.17" class="st6" width="2.85" height="23.41"/>
						<rect x="1694.08" y="1548.17" class="st6" width="2.85" height="23.41"/>
						<rect x="1840.63" y="1548.17" class="st6" width="2.85" height="23.41"/>
						<rect x="1846.7" y="1548.17" class="st6" width="2.85" height="23.41"/>
						<rect x="1852.56" y="1548.17" class="st6" width="2.85" height="23.41"/>
						<path class="st6" d="M1859.81,1548.25v23.24c-0.35,0.05-0.71,0.08-1.07,0.08h-1.78v-23.41h1.78
							C1859.11,1548.17,1859.47,1548.2,1859.81,1548.25z"/>
						<path class="st6" d="M1863.77,1550.42v18.91c-0.69,0.86-1.68,1.53-2.85,1.91v-22.72
							C1862.09,1548.89,1863.08,1549.56,1863.77,1550.42z"/>
					</g>
				</g>
				<g>
					<path class="st5" d="M1877.76,1530.43v13.22c0,1.05-0.38,2.03-1.04,2.84c-0.69,0.85-1.68,1.53-2.84,1.9
						c-0.35,0.12-0.73,0.2-1.11,0.27c-0.34,0.05-0.7,0.08-1.06,0.08h-250.73c-1,0-1.96-0.21-2.8-0.58c-1.66-0.73-2.88-2.09-3.2-3.7
						c-0.02-0.11-0.03-0.22-0.05-0.33c-0.01-0.07-0.01-0.15-0.01-0.23c-0.01-0.09-0.01-0.17-0.01-0.26v-13.22
						c0-0.09,0-0.17,0.01-0.26c0.01-0.16,0.02-0.34,0.05-0.49c0.45-2.45,2.98-4.34,6-4.34h250.73c0.36,0,0.72,0.02,1.06,0.08
						c0.38,0.05,0.76,0.14,1.11,0.26c1.17,0.38,2.16,1.06,2.84,1.91C1877.38,1528.4,1877.76,1529.38,1877.76,1530.43z"/>
					<path class="st6" d="M1754.65,1548.74h-134.32c-0.9,0-1.75-0.21-2.49-0.58c-1.49-0.73-2.58-2.09-2.85-3.7
						c-0.02-0.11-0.03-0.22-0.05-0.33c-0.01-0.07-0.01-0.15-0.01-0.23c-0.01-0.09-0.01-0.17-0.01-0.26v-13.22
						c0-0.09,0-0.17,0.01-0.26c0.01-0.16,0.02-0.34,0.05-0.49c0.03-0.19,0.08-0.37,0.14-0.55c0.61-2.18,2.71-3.79,5.21-3.79h117.83
						c1.83,6.7,6.03,15.9,15.67,22.82C1754.09,1548.36,1754.37,1548.56,1754.65,1548.74z"/>
					<g>
						<rect x="1844.41" y="1525.34" class="st6" width="2.85" height="23.41"/>
						<rect x="1834.76" y="1525.34" class="st6" width="2.85" height="23.41"/>
						<rect x="1823.19" y="1525.34" class="st6" width="2.85" height="23.41"/>
						<rect x="1805.46" y="1525.34" class="st6" width="2.85" height="23.41"/>
						<rect x="1786.72" y="1525.34" class="st6" width="2.85" height="23.41"/>
						<rect x="1757.97" y="1525.34" class="st6" width="2.85" height="23.41"/>
						<rect x="1731.06" y="1525.34" class="st6" width="2.85" height="23.41"/>
						<rect x="1707.03" y="1525.34" class="st6" width="2.85" height="23.41"/>
						<rect x="1853.59" y="1525.34" class="st6" width="2.85" height="23.41"/>
						<rect x="1859.65" y="1525.34" class="st6" width="2.85" height="23.41"/>
						<rect x="1865.51" y="1525.34" class="st6" width="2.85" height="23.41"/>
						<path class="st6" d="M1872.77,1525.42v23.24c-0.35,0.05-0.7,0.08-1.07,0.08h-1.78v-23.41h1.78
							C1872.06,1525.34,1872.42,1525.37,1872.77,1525.42z"/>
						<path class="st6" d="M1876.73,1527.59v18.91c-0.69,0.86-1.68,1.53-2.85,1.91v-22.72
							C1875.04,1526.06,1876.03,1526.73,1876.73,1527.59z"/>
					</g>
				</g>
				<g>
					<path class="st5" d="M1883.77,1507.03v13.21c0,1.06-0.38,2.03-1.04,2.84c-0.08,0.11-0.18,0.21-0.27,0.31
						c-0.48,0.51-1.07,0.94-1.73,1.26c-0.27,0.13-0.55,0.24-0.84,0.34c-0.36,0.12-0.73,0.2-1.11,0.26
						c-0.17,0.02-0.34,0.05-0.52,0.06c-0.18,0.02-0.37,0.02-0.55,0.02h-250.72c-3.03,0-5.56-1.9-6.01-4.34
						c-0.02-0.17-0.05-0.33-0.05-0.49v-13.75c0.16-2.48,2.44-4.5,5.34-4.79c0.23-0.02,0.48-0.04,0.72-0.04h250.72
						c0.18,0,0.37,0.01,0.55,0.02c0.18,0.01,0.35,0.03,0.52,0.06c0.38,0.05,0.75,0.14,1.11,0.26c1.16,0.38,2.15,1.05,2.84,1.9
						C1883.39,1504.99,1883.77,1505.97,1883.77,1507.03z"/>
					<path class="st6" d="M1760.66,1525.34h-134.32c-2.49,0-4.59-1.62-5.21-3.78c-0.06-0.18-0.11-0.37-0.15-0.56
						c-0.02-0.17-0.05-0.33-0.05-0.49v-13.75c0.14-2.47,2.18-4.5,4.77-4.79c0.21-0.02,0.42-0.04,0.64-0.04h117.83
						c0,0.02,0.01,0.02,0.01,0.04C1746.06,1508.85,1750.44,1518.36,1760.66,1525.34z"/>
					<g>
						<rect x="1850.41" y="1501.93" class="st6" width="2.85" height="23.41"/>
						<rect x="1840.77" y="1501.93" class="st6" width="2.85" height="23.41"/>
						<rect x="1829.2" y="1501.93" class="st6" width="2.85" height="23.41"/>
						<rect x="1811.47" y="1501.93" class="st6" width="2.85" height="23.41"/>
						<rect x="1792.72" y="1501.93" class="st6" width="2.85" height="23.41"/>
						<rect x="1763.98" y="1501.93" class="st6" width="2.85" height="23.41"/>
						<rect x="1737.07" y="1501.93" class="st6" width="2.85" height="23.41"/>
						<rect x="1713.04" y="1501.93" class="st6" width="2.85" height="23.41"/>
						<rect x="1859.59" y="1501.93" class="st6" width="2.85" height="23.41"/>
						<rect x="1865.66" y="1501.93" class="st6" width="2.85" height="23.41"/>
						<rect x="1871.52" y="1501.93" class="st6" width="2.85" height="23.41"/>
						<path class="st6" d="M1878.77,1502.01v23.24c-0.35,0.05-0.7,0.08-1.07,0.08h-1.78v-23.41h1.78
							C1878.07,1501.93,1878.43,1501.96,1878.77,1502.01z"/>
						<path class="st6" d="M1882.73,1504.18v18.91c-0.69,0.86-1.68,1.53-2.85,1.91v-22.72
							C1881.05,1502.65,1882.04,1503.33,1882.73,1504.18z"/>
					</g>
				</g>
				<g>
					<path class="st5" d="M1865.33,1483.66v13.21c0,1.06-0.38,2.03-1.03,2.84c-0.69,0.86-1.68,1.54-2.85,1.91
						c-0.35,0.12-0.73,0.2-1.11,0.26c-0.12,0.02-0.23,0.04-0.35,0.05h-0.05c-0.06,0.01-0.13,0.02-0.19,0.02
						c-0.05,0.01-0.1,0.01-0.16,0.02c-0.11,0-0.21,0.01-0.32,0.01h-250.72c-3.23,0-5.9-2.15-6.06-4.83
						c-0.01-0.09-0.01-0.17-0.01-0.27v-13.21c0-0.09,0-0.18,0.01-0.27c0-0.07,0.01-0.14,0.01-0.21c0.24-2.15,2.11-3.94,4.55-4.46
						c0.05-0.01,0.12-0.03,0.18-0.04c0.42-0.08,0.86-0.13,1.32-0.13h250.72c0.19,0,0.36,0.01,0.54,0.02
						c0.08,0.01,0.16,0.01,0.23,0.02c0.01,0,0.01,0,0.02,0h0.01c0.09,0.01,0.19,0.02,0.28,0.04c0.38,0.05,0.75,0.14,1.11,0.26
						c1.17,0.38,2.16,1.05,2.85,1.91C1864.96,1481.63,1865.33,1482.6,1865.33,1483.66z"/>
					<path class="st6" d="M1742.22,1501.97H1607.9c-2.89,0-5.26-2.15-5.41-4.83c-0.01-0.09-0.01-0.17-0.01-0.27v-13.21
						c0-0.09,0-0.18,0.01-0.27c0-0.07,0.01-0.14,0.01-0.21c0.22-2.21,1.95-4.01,4.21-4.49c0.07-0.02,0.15-0.04,0.23-0.05
						c0.31-0.05,0.64-0.09,0.96-0.09h117.82c0.01,0.06,0.03,0.11,0.05,0.17c1.9,6.86,6.29,16.27,16.39,23.2
						C1742.18,1501.95,1742.2,1501.96,1742.22,1501.97z"/>
					<g>
						<rect x="1831.98" y="1478.56" class="st6" width="2.85" height="23.41"/>
						<rect x="1822.33" y="1478.56" class="st6" width="2.85" height="23.41"/>
						<rect x="1810.77" y="1478.56" class="st6" width="2.85" height="23.41"/>
						<rect x="1793.04" y="1478.56" class="st6" width="2.85" height="23.41"/>
						<rect x="1774.29" y="1478.56" class="st6" width="2.85" height="23.41"/>
						<rect x="1745.55" y="1478.56" class="st6" width="2.85" height="23.41"/>
						<rect x="1718.63" y="1478.56" class="st6" width="2.85" height="23.41"/>
						<rect x="1694.6" y="1478.56" class="st6" width="2.85" height="23.41"/>
						<rect x="1841.16" y="1478.56" class="st6" width="2.85" height="23.41"/>
						<rect x="1847.23" y="1478.56" class="st6" width="2.85" height="23.41"/>
						<rect x="1853.08" y="1478.56" class="st6" width="2.85" height="23.41"/>
						<path class="st6" d="M1860.34,1478.64v23.24c-0.35,0.05-0.7,0.08-1.07,0.08h-1.78v-23.41h1.78
							C1859.64,1478.56,1859.99,1478.59,1860.34,1478.64z"/>
						<path class="st6" d="M1864.3,1480.81v18.91c-0.69,0.86-1.68,1.53-2.85,1.91v-22.72
							C1862.61,1479.28,1863.61,1479.96,1864.3,1480.81z"/>
					</g>
				</g>
				<g>
					<path class="st5" d="M1864.81,1460.42v13.21c0,1.06-0.38,2.03-1.03,2.84c-0.17,0.21-0.37,0.42-0.57,0.61
						c-0.63,0.56-1.4,1.02-2.28,1.3c-0.28,0.09-0.57,0.17-0.86,0.22h-0.01c-0.01,0-0.01,0-0.02,0c-0.08,0.01-0.15,0.03-0.23,0.04
						c-0.34,0.05-0.71,0.09-1.07,0.09h-250.73c-0.26,0-0.52-0.02-0.78-0.05c-0.1-0.01-0.2-0.02-0.3-0.04
						c-2.55-0.39-4.57-2.14-4.93-4.31c-0.02-0.15-0.04-0.29-0.05-0.44c-0.01-0.09-0.01-0.18-0.01-0.27v-13.21
						c0-0.09,0-0.18,0.01-0.27c0.01-0.16,0.03-0.33,0.05-0.49c0.45-2.44,2.98-4.34,6-4.34h250.73c0.16,0,0.32,0.01,0.48,0.02
						c0.02,0,0.05,0.01,0.06,0.01c0.05,0.01,0.09,0.01,0.14,0.01c0.07,0.01,0.15,0.02,0.23,0.03c0.05,0,0.1,0.01,0.16,0.02
						c0.38,0.05,0.76,0.14,1.11,0.26c0.21,0.07,0.42,0.15,0.61,0.23h0.01c0.78,0.35,1.46,0.83,2,1.41c0.08,0.09,0.16,0.17,0.23,0.26
						C1864.42,1458.38,1864.81,1459.36,1864.81,1460.42z"/>
					<path class="st6" d="M1741.69,1478.73h-134.32c-0.1,0-0.21-0.01-0.31-0.01c-0.12-0.01-0.23-0.02-0.34-0.03
						c-2.43-0.29-4.37-2.09-4.7-4.35c-0.02-0.15-0.04-0.29-0.05-0.44c-0.01-0.09-0.01-0.18-0.01-0.27v-13.21
						c0-0.09,0-0.18,0.01-0.27c0.01-0.16,0.03-0.33,0.05-0.49c0.03-0.19,0.09-0.38,0.15-0.56c0.62-2.16,2.71-3.78,5.2-3.78h117.83
						c0.05,0.2,0.1,0.38,0.17,0.58c1.95,6.78,6.31,15.88,16.09,22.66C1741.53,1478.62,1741.62,1478.67,1741.69,1478.73z"/>
					<g>
						<rect x="1831.45" y="1455.32" class="st6" width="2.85" height="23.41"/>
						<rect x="1821.81" y="1455.32" class="st6" width="2.85" height="23.41"/>
						<rect x="1810.24" y="1455.32" class="st6" width="2.85" height="23.41"/>
						<rect x="1792.51" y="1455.32" class="st6" width="2.85" height="23.41"/>
						<rect x="1773.76" y="1455.32" class="st6" width="2.85" height="23.41"/>
						<rect x="1745.02" y="1455.32" class="st6" width="2.85" height="23.41"/>
						<rect x="1718.11" y="1455.32" class="st6" width="2.85" height="23.41"/>
						<rect x="1694.08" y="1455.32" class="st6" width="2.85" height="23.41"/>
						<rect x="1840.63" y="1455.32" class="st6" width="2.85" height="23.41"/>
						<rect x="1846.7" y="1455.32" class="st6" width="2.85" height="23.41"/>
						<rect x="1852.56" y="1455.32" class="st6" width="2.85" height="23.41"/>
						<path class="st6" d="M1859.81,1455.41v23.24c-0.35,0.05-0.71,0.08-1.07,0.08h-1.78v-23.41h1.78
							C1859.11,1455.32,1859.47,1455.35,1859.81,1455.41z"/>
						<path class="st6" d="M1863.77,1457.57v18.91c-0.69,0.86-1.68,1.53-2.85,1.91v-22.72
							C1862.09,1456.04,1863.08,1456.72,1863.77,1457.57z"/>
					</g>
				</g>
				<g>
					<path class="st5" d="M1877.76,1437.59v13.21c0,1.06-0.38,2.04-1.04,2.85c-0.69,0.85-1.68,1.53-2.84,1.9
						c-0.35,0.12-0.73,0.2-1.11,0.26c-0.34,0.05-0.7,0.08-1.06,0.08h-250.73c-1,0-1.96-0.21-2.8-0.58c-1.66-0.73-2.88-2.09-3.2-3.7
						c-0.02-0.11-0.03-0.22-0.05-0.33c-0.01-0.08-0.01-0.15-0.01-0.23c-0.01-0.09-0.01-0.17-0.01-0.27v-13.21
						c0-0.09,0-0.18,0.01-0.27c0.01-0.17,0.02-0.33,0.05-0.49c0.45-2.44,2.98-4.34,6-4.34h250.73c0.36,0,0.72,0.03,1.06,0.09
						c0.38,0.05,0.76,0.14,1.11,0.26c1.17,0.38,2.16,1.05,2.84,1.91C1877.38,1435.56,1877.76,1436.53,1877.76,1437.59z"/>
					<path class="st6" d="M1754.65,1455.9h-134.32c-0.9,0-1.75-0.21-2.49-0.58c-1.49-0.73-2.58-2.09-2.85-3.7
						c-0.02-0.11-0.03-0.22-0.05-0.33c-0.01-0.08-0.01-0.15-0.01-0.23c-0.01-0.09-0.01-0.17-0.01-0.27v-13.21
						c0-0.09,0-0.18,0.01-0.27c0.01-0.17,0.02-0.33,0.05-0.49c0.03-0.19,0.08-0.37,0.14-0.54c0.61-2.17,2.71-3.8,5.21-3.8h117.83
						c1.83,6.71,6.03,15.91,15.67,22.83C1754.09,1455.52,1754.37,1455.71,1754.65,1455.9z"/>
					<g>
						<rect x="1844.41" y="1432.5" class="st6" width="2.85" height="23.41"/>
						<rect x="1834.76" y="1432.5" class="st6" width="2.85" height="23.41"/>
						<rect x="1823.19" y="1432.5" class="st6" width="2.85" height="23.41"/>
						<rect x="1805.46" y="1432.5" class="st6" width="2.85" height="23.41"/>
						<rect x="1786.72" y="1432.5" class="st6" width="2.85" height="23.41"/>
						<rect x="1757.97" y="1432.5" class="st6" width="2.85" height="23.41"/>
						<rect x="1731.06" y="1432.5" class="st6" width="2.85" height="23.41"/>
						<rect x="1707.03" y="1432.5" class="st6" width="2.85" height="23.41"/>
						<rect x="1853.59" y="1432.5" class="st6" width="2.85" height="23.41"/>
						<rect x="1859.65" y="1432.5" class="st6" width="2.85" height="23.41"/>
						<rect x="1865.51" y="1432.5" class="st6" width="2.85" height="23.41"/>
						<path class="st6" d="M1872.77,1432.58v23.24c-0.35,0.05-0.7,0.08-1.07,0.08h-1.78v-23.41h1.78
							C1872.06,1432.49,1872.42,1432.52,1872.77,1432.58z"/>
						<path class="st6" d="M1876.73,1434.74v18.91c-0.69,0.86-1.68,1.53-2.85,1.91v-22.72
							C1875.04,1433.21,1876.03,1433.89,1876.73,1434.74z"/>
					</g>
				</g>
				<g>
					<path class="st5" d="M1898.25,1414.18v13.22c0,1.05-0.38,2.02-1.03,2.84l-0.01,0.01c-0.09,0.11-0.18,0.21-0.27,0.31
						c-0.38,0.41-0.83,0.76-1.34,1.05c-0.25,0.14-0.52,0.27-0.8,0.38c-0.01,0-0.01,0.01-0.01,0.01c-0.13,0.05-0.27,0.11-0.42,0.16
						c-0.35,0.12-0.73,0.2-1.11,0.26c-0.34,0.05-0.71,0.08-1.07,0.08h-250.73c-3.02,0-5.55-1.89-6-4.33
						c-0.03-0.17-0.05-0.33-0.05-0.5c-0.01-0.09-0.01-0.17-0.01-0.26v-13.22c0-0.09,0-0.17,0.01-0.26c0.15-2.48,2.44-4.5,5.34-4.79
						c0.24-0.03,0.47-0.04,0.71-0.04h250.73c0.36,0,0.72,0.03,1.07,0.08c0.38,0.06,0.76,0.15,1.11,0.27
						c1.02,0.33,1.89,0.88,2.57,1.59c0.09,0.1,0.19,0.2,0.27,0.31l0.01,0.01C1897.87,1412.16,1898.25,1413.13,1898.25,1414.18z"/>
					<path class="st6" d="M1775.14,1432.49h-134.32c-2.5,0-4.6-1.62-5.21-3.79c-0.06-0.18-0.11-0.36-0.14-0.54
						c-0.03-0.17-0.05-0.33-0.05-0.5c-0.01-0.09-0.01-0.17-0.01-0.26v-13.22c0-0.09,0-0.17,0.01-0.26c0.13-2.48,2.18-4.5,4.76-4.79
						c0.21-0.03,0.42-0.04,0.64-0.04h117.83c0,0.01,0.01,0.02,0.01,0.04C1760.54,1416.01,1764.92,1425.52,1775.14,1432.49z"/>
					<g>
						<rect x="1864.9" y="1409.09" class="st6" width="2.85" height="23.41"/>
						<rect x="1855.25" y="1409.09" class="st6" width="2.85" height="23.41"/>
						<rect x="1843.68" y="1409.09" class="st6" width="2.85" height="23.41"/>
						<rect x="1825.95" y="1409.09" class="st6" width="2.85" height="23.41"/>
						<rect x="1807.21" y="1409.09" class="st6" width="2.85" height="23.41"/>
						<rect x="1778.46" y="1409.09" class="st6" width="2.85" height="23.41"/>
						<rect x="1751.55" y="1409.09" class="st6" width="2.85" height="23.41"/>
						<rect x="1727.52" y="1409.09" class="st6" width="2.85" height="23.41"/>
						<rect x="1874.08" y="1409.09" class="st6" width="2.85" height="23.41"/>
						<rect x="1880.14" y="1409.09" class="st6" width="2.85" height="23.41"/>
						<rect x="1886" y="1409.09" class="st6" width="2.85" height="23.41"/>
						<path class="st6" d="M1893.26,1409.17v23.24c-0.35,0.05-0.71,0.08-1.07,0.08h-1.78v-23.41h1.78
							C1892.55,1409.09,1892.91,1409.12,1893.26,1409.17z"/>
						<path class="st6" d="M1897.21,1411.34v18.91c-0.69,0.86-1.68,1.53-2.85,1.91v-22.72
							C1895.53,1409.81,1896.52,1410.48,1897.21,1411.34z"/>
					</g>
				</g>
				<g>
					<path class="st5" d="M1865.33,1390.82v13.21c0,1.06-0.38,2.03-1.03,2.84c-0.69,0.86-1.68,1.54-2.85,1.91
						c-0.35,0.12-0.73,0.2-1.11,0.26c-0.12,0.02-0.23,0.03-0.35,0.05h-0.05c-0.08,0.02-0.16,0.02-0.24,0.02
						c-0.05,0-0.09,0.01-0.14,0.01c-0.1,0-0.19,0.01-0.3,0.01h-250.72c-2.18,0-4.1-0.97-5.16-2.43c-0.52-0.71-0.85-1.53-0.9-2.4
						c-0.01-0.09-0.01-0.18-0.01-0.27v-13.21c0-0.09,0-0.18,0.01-0.27c0.13-2.17,1.91-4,4.3-4.61c0.56-0.15,1.15-0.23,1.76-0.23
						h250.72c0.11,0,0.21,0.01,0.32,0.01c0.06,0,0.11,0.01,0.16,0.02c0.2,0.01,0.4,0.03,0.59,0.06c0.38,0.05,0.75,0.14,1.11,0.26
						c0.18,0.05,0.35,0.12,0.52,0.2h0.01c0.67,0.27,1.26,0.65,1.75,1.1c0.01,0.01,0.02,0.02,0.02,0.03
						c0.02,0.02,0.05,0.04,0.07,0.06c0.17,0.16,0.33,0.33,0.48,0.51C1864.96,1388.78,1865.33,1389.76,1865.33,1390.82z"/>
					<path class="st6" d="M1742.22,1409.13H1607.9c-1.89,0-3.56-0.92-4.53-2.31c-0.52-0.74-0.84-1.6-0.88-2.52
						c-0.01-0.09-0.01-0.18-0.01-0.27v-13.21c0-0.09,0-0.18,0.01-0.27c0.13-2.33,1.94-4.26,4.31-4.72c0.35-0.07,0.72-0.11,1.1-0.11
						h117.82c0.05,0.18,0.1,0.36,0.16,0.54c1.95,6.83,6.36,16.03,16.28,22.83C1742.18,1409.1,1742.2,1409.11,1742.22,1409.13z"/>
					<g>
						<rect x="1831.98" y="1385.72" class="st6" width="2.85" height="23.41"/>
						<rect x="1822.33" y="1385.72" class="st6" width="2.85" height="23.41"/>
						<rect x="1810.77" y="1385.72" class="st6" width="2.85" height="23.41"/>
						<rect x="1793.04" y="1385.72" class="st6" width="2.85" height="23.41"/>
						<rect x="1774.29" y="1385.72" class="st6" width="2.85" height="23.41"/>
						<rect x="1745.55" y="1385.72" class="st6" width="2.85" height="23.41"/>
						<rect x="1718.63" y="1385.72" class="st6" width="2.85" height="23.41"/>
						<rect x="1694.6" y="1385.72" class="st6" width="2.85" height="23.41"/>
						<rect x="1841.16" y="1385.72" class="st6" width="2.85" height="23.41"/>
						<rect x="1847.23" y="1385.72" class="st6" width="2.85" height="23.41"/>
						<rect x="1853.08" y="1385.72" class="st6" width="2.85" height="23.41"/>
						<path class="st6" d="M1860.34,1385.8v23.24c-0.35,0.05-0.7,0.08-1.07,0.08h-1.78v-23.41h1.78
							C1859.64,1385.72,1859.99,1385.75,1860.34,1385.8z"/>
						<path class="st6" d="M1864.3,1387.97v18.91c-0.69,0.86-1.68,1.53-2.85,1.91v-22.72
							C1862.61,1386.44,1863.61,1387.11,1864.3,1387.97z"/>
					</g>
				</g>
				<g>
					<path class="st5" d="M1883.77,1367.95v13.22c0,1.05-0.38,2.03-1.04,2.84c-0.69,0.86-1.68,1.53-2.85,1.91
						c-0.36,0.12-0.73,0.21-1.11,0.26c-0.35,0.05-0.7,0.08-1.07,0.08h-250.72c-0.97,0-1.9-0.19-2.71-0.54
						c-1.83-0.77-3.14-2.3-3.33-4.08c-0.01-0.07-0.01-0.14-0.02-0.21c0-0.09-0.01-0.17-0.01-0.26v-13.22c0-0.09,0-0.17,0.01-0.26
						c0.15-2.48,2.44-4.51,5.34-4.8c0.23-0.03,0.47-0.04,0.72-0.04h250.72c0.37,0,0.72,0.03,1.07,0.08
						c0.38,0.06,0.75,0.14,1.11,0.26c1.16,0.38,2.16,1.05,2.85,1.91C1883.39,1365.92,1883.77,1366.89,1883.77,1367.95z"/>
					<path class="st6" d="M1760.65,1386.26h-134.32c-0.87,0-1.69-0.19-2.42-0.54c-1.63-0.77-2.8-2.3-2.97-4.08
						c-0.01-0.07-0.01-0.14-0.02-0.21c0-0.09-0.01-0.17-0.01-0.26v-13.22c0-0.09,0-0.17,0.01-0.26c0.13-2.48,2.18-4.51,4.77-4.8
						c0.21-0.03,0.42-0.04,0.64-0.04h117.82c0,0.01,0.01,0.03,0.01,0.04c1.84,6.71,6.05,15.91,15.71,22.83
						C1760.13,1385.9,1760.39,1386.08,1760.65,1386.26z"/>
					<g>
						<rect x="1850.41" y="1362.85" class="st6" width="2.85" height="23.41"/>
						<rect x="1840.77" y="1362.85" class="st6" width="2.85" height="23.41"/>
						<rect x="1829.2" y="1362.85" class="st6" width="2.85" height="23.41"/>
						<rect x="1811.47" y="1362.85" class="st6" width="2.85" height="23.41"/>
						<rect x="1792.72" y="1362.85" class="st6" width="2.85" height="23.41"/>
						<rect x="1763.98" y="1362.85" class="st6" width="2.85" height="23.41"/>
						<rect x="1737.07" y="1362.85" class="st6" width="2.85" height="23.41"/>
						<rect x="1713.04" y="1362.85" class="st6" width="2.85" height="23.41"/>
						<rect x="1859.59" y="1362.85" class="st6" width="2.85" height="23.41"/>
						<rect x="1865.66" y="1362.85" class="st6" width="2.85" height="23.41"/>
						<rect x="1871.52" y="1362.85" class="st6" width="2.85" height="23.41"/>
						<path class="st6" d="M1878.77,1362.93v23.24c-0.35,0.05-0.7,0.08-1.07,0.08h-1.78v-23.41h1.78
							C1878.07,1362.85,1878.43,1362.88,1878.77,1362.93z"/>
						<path class="st6" d="M1882.73,1365.1v18.91c-0.69,0.86-1.68,1.53-2.85,1.91v-22.72
							C1881.05,1363.57,1882.04,1364.25,1882.73,1365.1z"/>
					</g>
				</g>
				<g>
					<path class="st5" d="M1891.62,1344.58v13.22c0,1.05-0.38,2.03-1.04,2.84c-0.69,0.86-1.68,1.53-2.85,1.91
						c-0.36,0.12-0.73,0.21-1.11,0.26c-0.12,0.02-0.23,0.03-0.35,0.04c-0.06,0-0.13,0.01-0.2,0.02c-0.06,0.01-0.13,0.01-0.2,0.01
						c-0.11,0.01-0.21,0.01-0.32,0.01h-250.72c-3.23,0-5.89-2.15-6.06-4.83c0-0.09-0.01-0.17-0.01-0.26v-13.22
						c0-0.09,0-0.17,0.01-0.26c0.16-2.68,2.83-4.83,6.06-4.83h250.72c0.37,0,0.72,0.03,1.07,0.08c0.38,0.06,0.75,0.14,1.11,0.26
						c1.16,0.38,2.16,1.05,2.85,1.91C1891.24,1342.55,1891.62,1343.52,1891.62,1344.58z"/>
					<path class="st6" d="M1768.5,1362.89h-134.32c-2.88,0-5.26-2.15-5.41-4.83c0-0.09-0.01-0.17-0.01-0.26v-13.22
						c0-0.09,0-0.17,0.01-0.26c0.15-2.68,2.53-4.83,5.41-4.83H1752c1.88,6.88,6.25,16.39,16.44,23.37
						C1768.46,1362.86,1768.48,1362.88,1768.5,1362.89z"/>
					<g>
						<rect x="1858.26" y="1339.48" class="st6" width="2.85" height="23.41"/>
						<rect x="1848.61" y="1339.48" class="st6" width="2.85" height="23.41"/>
						<rect x="1837.05" y="1339.48" class="st6" width="2.85" height="23.41"/>
						<rect x="1819.32" y="1339.48" class="st6" width="2.85" height="23.41"/>
						<rect x="1800.57" y="1339.48" class="st6" width="2.85" height="23.41"/>
						<rect x="1771.83" y="1339.48" class="st6" width="2.85" height="23.41"/>
						<rect x="1744.91" y="1339.48" class="st6" width="2.85" height="23.41"/>
						<rect x="1720.88" y="1339.48" class="st6" width="2.85" height="23.41"/>
						<rect x="1867.44" y="1339.48" class="st6" width="2.85" height="23.41"/>
						<rect x="1873.51" y="1339.48" class="st6" width="2.85" height="23.41"/>
						<rect x="1879.36" y="1339.48" class="st6" width="2.85" height="23.41"/>
						<path class="st6" d="M1886.62,1339.56v23.24c-0.35,0.05-0.7,0.08-1.07,0.08h-1.78v-23.41h1.78
							C1885.92,1339.48,1886.27,1339.51,1886.62,1339.56z"/>
						<path class="st6" d="M1890.58,1341.73v18.91c-0.69,0.86-1.68,1.53-2.85,1.91v-22.72
							C1888.89,1340.2,1889.89,1340.88,1890.58,1341.73z"/>
					</g>
				</g>
			</g>
			<g>
				<path class="st16" d="M1812.14,1206.1c0,0-13.17,18.54-25.24,18.8s-30.44-8.59-30.44-8.59s-11.08-24.7-3.57-34.37
					c0,0,7.54-3.31,15.42,2.53c1.35,1.01,2.73,2.28,4.08,3.91c1.91,2.3,4.06,3.61,6.34,4.3c8.62,2.62,18.84-3.54,22.67,2.41
					c2.23,3.46,4.66,6.06,6.66,7.88C1810.43,1205.07,1812.14,1206.1,1812.14,1206.1z"/>
				<path class="st16" d="M1640.46,1339.83c0,0,46.55-112.78,130.33-114.93c0,0,77.34,8.59,81.63,114.93H1640.46z"/>
				<path class="st17" d="M1747.84,1228.34c0,0,33.58,7.47,43.94,3.08c0,0,1.57-14.04-12.58-12.07c-9.68,1.35-15.98-3.3-19.69-5.19
					C1754.26,1211.48,1746.44,1222.46,1747.84,1228.34z"/>
				<path class="st18" d="M1777.06,1207.17c-2.15,1.61-8.74-22.71-8.74-22.71c1.35,1.01,2.73,2.28,4.08,3.91
					c1.91,2.3,4.06,3.61,6.34,4.3C1778.76,1193.38,1779.15,1205.6,1777.06,1207.17z"/>
				<path class="st18" d="M1808.06,1202.96c-0.47,0.28-16,9.58-18.11,9.58c-2.15,0,11.45-17.47,11.45-17.47
					C1803.64,1198.54,1806.06,1201.13,1808.06,1202.96z"/>
				<path class="st19" d="M1685.93,1308.32c-0.86-0.74,32.94-49.77,42.25-50.13c9.31-0.36,30.22,10.74,45.37,12.17
					c15.14,1.43,29.82-2.86,32.69,6.09c2.86,8.95,10.74,40.68,5.91,45.76C1807.31,1327.29,1704.52,1324.2,1685.93,1308.32z"/>
			</g>
		</g>
		<path class="st20" d="M1717.77,1478.56c-0.01,0.06-0.01,0.12-0.02,0.17c-0.44,7.86-1.7,15.62-3.76,23.2
			c0,0.01-0.01,0.02-0.01,0.04c-0.3,1.1-0.61,2.19-0.95,3.28c-2.1,6.91-4.86,13.64-8.26,20.09c-4.27,8.11-9.53,15.78-15.75,22.82
			c-0.17,0.2-0.34,0.39-0.51,0.58c-7.77,8.7-16.99,16.43-27.54,22.83c-2.22,1.35-4.5,2.65-6.85,3.88c-1.58,0.83-3.17,1.61-4.77,2.37
			c-1.53,0.88-3.14,1.64-4.66,2.58c-4.42,2.7-9.93,4.85-15.93,6.56v-10.29c0-0.09,0.01-0.17,0.01-0.26c0.01-0.17,0.03-0.34,0.05-0.5
			c0.04-0.19,0.09-0.38,0.15-0.56c0.62-2.16,2.72-3.77,5.21-3.77h-26.81c-2.49,0-4.58-1.62-5.2-3.78c-0.06-0.18-0.11-0.37-0.15-0.56
			c-0.02-0.16-0.05-0.33-0.05-0.49c-0.01-0.09-0.01-0.17-0.01-0.27v-13.21c0-0.09,0-0.18,0.01-0.27c0.01-0.17,0.03-0.33,0.05-0.49
			c0.03-0.19,0.09-0.38,0.15-0.56c0.62-2.16,2.71-3.78,5.2-3.78h10.46c-1.49-0.73-2.58-2.09-2.85-3.7
			c-0.02-0.11-0.03-0.22-0.05-0.33c-0.01-0.07-0.01-0.15-0.01-0.23c-0.01-0.09-0.01-0.17-0.01-0.26v-13.22c0-0.09,0-0.17,0.01-0.26
			c0.01-0.16,0.02-0.34,0.05-0.49c0.03-0.19,0.08-0.37,0.14-0.55c0.61-2.18,2.71-3.79,5.21-3.79h6.01c-2.49,0-4.59-1.62-5.21-3.78
			c-0.06-0.18-0.11-0.37-0.15-0.56c-0.02-0.17-0.05-0.33-0.05-0.49v-13.75c0.14-2.47,2.18-4.5,4.77-4.79h-17.79
			c-2.89,0-5.26-2.15-5.41-4.83c-0.01-0.09-0.01-0.17-0.01-0.27v-13.21c0-0.09,0-0.18,0.01-0.27c0-0.07,0.01-0.14,0.01-0.21
			c0.22-2.21,1.95-4.01,4.21-4.49c-2.43-0.29-4.37-2.09-4.7-4.35c-0.02-0.15-0.04-0.29-0.05-0.44c-0.01-0.09-0.01-0.18-0.01-0.27
			v-13.21c0-0.09,0-0.18,0.01-0.27c0.01-0.16,0.03-0.33,0.05-0.49c0.03-0.19,0.09-0.38,0.15-0.56c0.62-2.16,2.71-3.78,5.2-3.78
			h10.46c-1.49-0.73-2.58-2.09-2.85-3.7c-0.02-0.11-0.03-0.22-0.05-0.33c-0.01-0.08-0.01-0.15-0.01-0.23
			c-0.01-0.09-0.01-0.17-0.01-0.27v-13.21c0-0.09,0-0.18,0.01-0.27c0.01-0.17,0.02-0.33,0.05-0.49c0.03-0.19,0.08-0.37,0.14-0.54
			c0.61-2.17,2.71-3.8,5.21-3.8h20.49c-2.5,0-4.6-1.62-5.21-3.79c-0.06-0.18-0.11-0.36-0.14-0.54c-0.03-0.17-0.05-0.33-0.05-0.5
			c-0.01-0.09-0.01-0.17-0.01-0.26v-13.22c0-0.09,0-0.17,0.01-0.26c0.13-2.48,2.18-4.5,4.76-4.79h-32.27
			c-1.89,0-3.56-0.92-4.53-2.31l0.02-0.12l3.4-20.75l0.01-0.12l4.84-29.61c5.62,0.75,11.17,1.87,16.61,3.34
			c0.32,0.09,0.63,0.17,0.96,0.26c0.02,0.01,0.04,0.02,0.06,0.02c3.17,0.88,6.31,1.89,9.39,3.02c0.03,0.01,0.05,0.02,0.09,0.03
			c14.21,5.18,27.44,12.86,38.93,22.83c0.2,0.17,0.41,0.35,0.6,0.54c5.97,5.24,11.45,11.11,16.32,17.58
			c0.98,1.29,1.93,2.59,2.84,3.92c0.31,0.44,0.61,0.88,0.9,1.32c0.02,0.01,0.02,0.02,0.02,0.04c1.48,2.19,2.88,4.42,4.21,6.73
			c3.14,5.43,5.78,10.99,7.93,16.64c2.87,7.5,4.89,15.14,6.08,22.83c0.04,0.2,0.06,0.38,0.09,0.58
			C1717.83,1463.46,1718.17,1471.05,1717.77,1478.56z"/>
		<g>
			<path class="st21" d="M1458.78,1526.02c-32.88-59.65-11.18-134.66,48.47-167.54c59.65-32.88,134.66-11.18,167.54,48.47
				c32.88,59.65,11.18,134.66-48.46,167.54C1566.67,1607.36,1491.66,1585.66,1458.78,1526.02z"/>
			<path class="st5" d="M1621.53,1576.99c-1.52,0.93-3.06,1.82-4.63,2.69c-0.53,0.29-1.06,0.58-1.6,0.86
				c-1.22,0.65-2.43,1.27-3.66,1.88c-58.73,28.84-130.36,6.71-162.29-51.21c-30.45-55.24-14.08-123.66,35.88-159.59
				c3.99-2.87,8.18-5.53,12.58-7.95c1.58-0.87,3.18-1.71,4.78-2.5c1.55-0.78,3.12-1.51,4.7-2.21c4.83-2.15,9.73-3.97,14.69-5.45
				c7.36-2.22,14.84-3.71,22.33-4.5c23.23-2.46,46.6,1.78,67.33,11.92c21.99,10.75,41,28.14,53.72,51.21
				C1697.38,1470.22,1677.65,1542.85,1621.53,1576.99z"/>
			<g>
				<path class="st6" d="M1558.22,1583.5c-10.31,0-20.68-1.46-30.86-4.4c-28.35-8.2-51.82-26.95-66.06-52.8
					c-14.25-25.85-17.58-55.7-9.38-84.05c8.2-28.35,26.95-51.82,52.8-66.06c53.36-29.42,120.7-9.93,150.12,43.42
					c29.41,53.36,9.93,120.7-43.43,150.12C1594.84,1578.85,1576.63,1583.5,1558.22,1583.5z M1557.88,1365.45
					c-17.54,0-35.31,4.29-51.73,13.34c-25.15,13.86-43.4,36.69-51.38,64.28c-7.98,27.59-4.74,56.63,9.12,81.78
					c13.86,25.15,36.69,43.4,64.28,51.38c27.59,7.98,56.63,4.74,81.78-9.12c51.92-28.62,70.88-94.15,42.25-146.07
					C1632.65,1385.54,1595.82,1365.45,1557.88,1365.45z"/>
			</g>
			<g>
				<path class="st6" d="M1612.41,1483.68c-0.24-0.61-0.5-1.2-0.76-1.77c-2-4.4-4.49-7.96-7.48-10.69
					c-3.38-3.08-7.3-5.39-11.78-6.93c-4.47-1.54-9.46-2.48-14.96-2.81c-5.5-0.34-11.5-0.42-17.97-0.23c-4,0.12-7.42,0.05-10.26-0.21
					c-2.84-0.26-5.25-0.79-7.22-1.58c-1.98-0.79-3.59-1.88-4.82-3.27c-1.24-1.38-2.25-3.06-3.06-5.05
					c-0.81-1.99-1.27-3.97-1.39-5.93c-0.12-1.95,0.17-3.81,0.88-5.58c0.7-1.76,1.85-3.38,3.44-4.87c1.58-1.49,3.68-2.77,6.29-3.83
					c4.81-1.96,9.3-1.91,13.47,0.13c4.17,2.04,7.56,6.29,10.18,12.75l25.12-10.2c-2.19-5.38-4.93-9.93-8.22-13.64
					c-3.29-3.71-7-6.57-11.14-8.6c-4.13-2.02-8.62-3.21-13.49-3.55c-4.86-0.34-9.92,0.17-15.16,1.55l-7.12-17.52l-13.91,5.65
					l7.01,17.28c-5.02,2.6-9.27,5.63-12.77,9.09c-3.49,3.46-6.17,7.2-8.05,11.22c-1.88,4.03-2.86,8.25-2.96,12.68
					c-0.09,4.43,0.79,8.93,2.65,13.5c2.14,5.28,4.9,9.46,8.28,12.54c3.38,3.08,7.3,5.38,11.76,6.89c4.46,1.51,9.45,2.42,14.97,2.71
					c5.52,0.3,11.53,0.29,18.01-0.02c3.76-0.21,7.03-0.19,9.8,0.07c2.77,0.25,5.16,0.79,7.18,1.6c2.02,0.81,3.69,1.95,5.03,3.41
					c1.34,1.46,2.47,3.33,3.38,5.59c0.81,2,1.21,3.98,1.2,5.96c0,1.98-0.45,3.87-1.34,5.67c-0.89,1.8-2.22,3.47-3.99,5.01
					c-1.77,1.53-4.02,2.85-6.75,3.96c-2.38,0.96-4.83,1.6-7.37,1.92c-2.54,0.31-5.02,0.06-7.44-0.75c-2.42-0.8-4.68-2.27-6.79-4.39
					c-2.11-2.12-3.95-5.09-5.5-8.91l-25.12,10.2c2.62,6.46,5.92,11.58,9.88,15.36c3.97,3.78,8.31,6.49,13.02,8.12
					c4.71,1.63,9.64,2.34,14.79,2.13c5.15-0.21,10.23-1.04,15.23-2.52l6.49,15.99l13.82-5.61l-6.52-16.06c5.02-2.6,9.32-5.61,12.9-9
					c3.32-3.14,5.91-6.53,7.78-10.16c0.15-0.29,0.3-0.59,0.44-0.89c1.89-3.96,2.91-8.17,3.03-12.61
					C1615.23,1493.01,1614.33,1488.42,1612.41,1483.68z"/>
			</g>
		</g>
	</g>
	<g class="st22">
		<g>
			<path class="st23" d="M2438.32,1458.78c0,0,23.7-27.65,1.46-45.21c0,0-16.24-9.83-29.49-9.04c0,0,18.77,31.47,12.7,34.6
				c-6.07,3.13-18.38-36.58-18.38-36.58s-36.96-3.58-48.85,2.13c0,0,31.6,25.86,24.94,27.4c-6.65,1.54-40.79-23.84-40.79-23.84
				s-34.4,5.85-32.57,26.84c1.83,20.99,13.69,27.47,18.9,26.91c5.21-0.56,35.69-12.19,36.35-7.92c0.66,4.27-17.68,18.22-30.53,18.87
				c0,0,24.25,26.75,40.38,19.03c16.12-7.72,17.5-19.96,27.54-24.55c10.05-4.59,18.63-4.58,14.48,0.1
				c-4.15,4.68-22.33,9.23-28.08,19.39c-5.75,10.16-10.9,17.02,5.78,14.51c16.68-2.51,43.79-14.71,44.98-28.69
				C2438.32,1458.78,2438.32,1458.78,2438.32,1458.78z"/>
			<g>
				<path class="st23" d="M2324.25,1435.66c0,0,93.44-3.6,114.08,23.12c0,0,4.56,13.67,18.61,26.11l2.19,5.97
					c0,0-16.19-17.07-21.99-18.11C2437.13,1472.75,2446.19,1439.65,2324.25,1435.66z"/>
				<path class="st23" d="M2456.93,1484.89c0,0,20.06,14.83,21.45,41.33l-3.64,0.33c0,0-6.41-27.4-17.98-38.12
					C2445.18,1477.72,2456.93,1484.89,2456.93,1484.89z"/>
			</g>
		</g>
		<g>
			<path class="st23" d="M2511.4,1436.16c0,0-33.23-18.61-17.72-43.87c0,0,12.41-15.51,25.7-19.5c0,0-7.09,37.66,0,38.55
				c7.09,0.89,4.87-42.54,4.87-42.54s35-16.84,48.74-15.51c0,0-21.71,36.78-14.62,35.89c7.09-0.89,31.46-38.11,31.46-38.11
				s35.89-6.65,41.65,14.62c5.76,21.27-3.54,31.9-8.86,33.23c-5.32,1.33-39.44,0.89-38.55,5.32c0.89,4.43,23.93,11.52,36.78,7.53
				c0,0-14.18,35-32.79,33.23c-18.61-1.77-24.37-13.29-35.89-14.18c-11.52-0.89-19.94,2.22-14.18,5.32
				c5.76,3.1,25.26,1.02,34.56,8.93c9.31,7.91,16.84,12.78-0.44,16.33c-17.28,3.54-48.3,1.33-54.5-11.96
				C2511.4,1436.16,2511.4,1436.16,2511.4,1436.16z"/>
			<g>
				<path class="st23" d="M2615.08,1372.35c0,0-93.05,30.13-103.69,63.81c0,0,0.44,15.07-8.86,32.35v6.65c0,0,9.75-22.6,15.07-25.7
					C2517.6,1449.45,2496.78,1420.21,2615.08,1372.35z"/>
				<path class="st23" d="M2502.54,1468.5c0,0-14.35,21.79-6.17,48.32l3.69-0.99c0,0-3.58-29.22,3.92-43.91
					C2511.49,1457.22,2502.54,1468.5,2502.54,1468.5z"/>
			</g>
		</g>
		<g>
			<path class="st24" d="M2461.21,1394.89c0,0,49.69-27.83,26.5-65.6c0,0-18.55-23.19-38.43-29.15c0,0,10.6,56.32,0,57.65
				c-10.6,1.32-7.29-63.61-7.29-63.61s-52.34-25.18-72.88-23.19c0,0,32.47,54.99,21.87,53.67s-47.04-56.98-47.04-56.98
				s-53.67-9.94-62.28,21.87c-8.61,31.8,5.3,47.71,13.25,49.69c7.95,1.99,58.97,1.33,57.65,7.95c-1.33,6.62-35.78,17.23-55,11.26
				c0,0,21.2,52.34,49.03,49.69s36.44-19.88,53.67-21.2c17.23-1.33,29.82,3.31,21.2,7.95c-8.61,4.64-37.77,1.52-51.68,13.35
				s-25.18,19.12,0.66,24.42c25.84,5.3,72.22,1.99,81.5-17.89C2461.21,1394.89,2461.21,1394.89,2461.21,1394.89z"/>
			<g>
				<path class="st24" d="M2306.16,1299.48c0,0,139.14,45.06,155.04,95.41c0,0-0.66,22.53,13.25,48.37v9.94
					c0,0-14.58-33.79-22.53-38.43C2451.93,1414.77,2483.07,1371.04,2306.16,1299.48z"/>
				<path class="st24" d="M2474.46,1443.26c0,0,21.46,32.59,9.22,72.25l-5.52-1.48c0,0,5.36-43.69-5.87-65.66
					C2461.07,1426.39,2474.46,1443.26,2474.46,1443.26z"/>
			</g>
		</g>
		<path class="st24" d="M2460.01,1592.65c-47.39,0-85.81-38.42-85.81-85.81h171.62C2545.82,1554.23,2507.4,1592.65,2460.01,1592.65z
			"/>
		
			<rect x="2372.24" y="1506.83" transform="matrix(-1 -1.224647e-16 1.224647e-16 -1 4920.8809 3016.3027)" class="st23" width="176.39" height="2.63"/>
		<path class="st23" d="M2496.65,1592.65h-80.34l0,0c0-3.8,3.08-6.88,6.88-6.88h66.58
			C2493.57,1585.76,2496.65,1588.85,2496.65,1592.65L2496.65,1592.65z"/>
	</g>
	<g>
		<path class="st4" d="M1936.98,1016.52c-110.41,89.9-242.69,159-393.17,205.39c-122.23,37.67-257.65,60.75-402.51,68.62
			c-39.5,2.15-77.98,3.08-115.02,3.08c-74.89,0-143.95-3.81-204.13-9.11l24.35-115.21c82.98,6.76,182.09,10.31,289.16,4.5
			c136.33-7.38,263.3-28.97,377.35-64.12c137.24-42.32,257.28-104.83,356.75-185.84L1936.98,1016.52z"/>
	</g>
	<g>
		<path class="st8" d="M1113.75,786.79c-15.35-7.96-27.66-2.96-27.66-2.96c-46.98-5.52-60.68,49.27-60.04,68.12
			c0.63,18.85,2.79,39.1-18.19,63.59c-60.6,70.74,66.32,73.86,66.32,73.86c1.07-56.52,68.83-35.9,65.86-30.17
			C1226.88,980.08,1148.67,804.9,1113.75,786.79z"/>
		<path class="st13" d="M932.54,1022.42c0,0-8.26-12.58-14.92-12.82c-6.66-0.25-18.99-3.7-18-1.23c0.99,2.47,8.63,2.71,9.37,4.19
			c0.74,1.48-11.34,3.7-14.8,3.95c-3.45,0.25-11.59,0-11.34,1.73c0.25,1.73,14.67,8.88,24.84,7.89c10.18-0.99,22.75,2.96,22.75,2.96
			L932.54,1022.42z"/>
		<path class="st14" d="M1052.01,1026.49c0,0-4.49,8.89-12.64,19.11c-9.82,12.3-24.95,26.5-43.96,29.3
			c-9.08,1.34-17.96-0.61-26.12-4.24c-0.02-0.01-0.03-0.01-0.03-0.01c-23.08-10.25-40.44-33.81-40.44-33.81
			c-4.07-11.1,2.59-18.62,2.59-18.62s46.61,10.48,51.05,8.26c4.44-2.22,30.33-76.81,36.5-86.19c6.17-9.37,27.18-14.24,27.18-14.24
			L1052.01,1026.49z"/>
		<path class="st9" d="M1039.38,1045.6c-9.82,12.3-24.95,26.5-43.96,29.3c-9.08,1.34-17.96-0.61-26.12-4.24
			c0.9,0.12,23.96,2.97,33.14-13.47c9.37-16.77,19.51-43.4,33.43-34.53C1041.89,1026.5,1041.62,1036.02,1039.38,1045.6z"/>
		<path class="st25" d="M1225.9,1529.6c0,0,14.22,12.98,11.45,22.2c-2.77,9.22-15.61,15.37-17.34,26.64
			c-1.74,11.27-8.67,17.42-14.92,17.42c-6.24,0-29.77,0-29.77,0s-4.6-7.93,6.5-10.32c11.1-2.39,15.29-15.63,14.59-27.93
			c-0.69-12.3,1.04-28.69,1.04-28.69l23.59-5.46L1225.9,1529.6z"/>
		<path class="st26" d="M1105.53,1535.11c0,0,5.12,54.98-1.13,58.06l-79.91-0.16c0,0,0-9.22,12.83-11.27
			c12.83-2.05,35.38-9.56,39.2-26.3C1080.34,1538.69,1105.53,1535.11,1105.53,1535.11z"/>
		<path class="st13" d="M1162.47,1140.65c-16.44-36.88-26.5-47.46-24.58-58.91c1.43-8.52-4.35-158.83-4.35-158.83
			c-1.95-0.6-5.86-1.15-8-1.62c-6.75-1.5-12.33-6.23-14.65-12.74c-2.8-7.84-5.02-19.41-4.97-33.91l-2.11,0.41l-35.42,7.01
			c0,0,0.81,11.15,0.83,21.65c0,0.09,0,0.17,0,0.26c0.04,9.12-5.94,17.17-14.7,19.7c-4.47,1.29-8.37,2.39-8.37,2.39
			s-13.01,37.13-15.49,75.27c-2.48,38.14,23.65,54.71-0.2,130.93C1006.12,1210.11,1171.55,1161.02,1162.47,1140.65z"/>
		<path class="st27" d="M1068.39,882.06c0,0,0.81,11.15,0.83,21.65c19.82-0.56,30.29-18.64,34.59-28.66L1068.39,882.06z"/>
		<path class="st13" d="M1061.77,892c0,0,46.89,0.77,46.92-28.44c0.03-29.21,6.11-48.78-23.83-50.51
			c-29.94-1.73-35.77,9.41-38.15,19.16C1044.33,841.96,1049.57,891.05,1061.77,892z"/>
		<path class="st8" d="M1063.5,812.35c0,0,12.84,34.27,32.54,39.33c19.7,5.07,28.25-0.21,28.25-0.21s-15.11-12.01-18.25-32.96
			C1106.04,818.5,1073.19,796.04,1063.5,812.35z"/>
		<path class="st8" d="M1066.69,815.13c0,0-9.52,3.56-13.44,10.5c-3.83,6.79-7.1,15.78-6.34,26.81c0,0-9.67-23.29,1.2-36.47
			C1059.63,802.01,1066.69,815.13,1066.69,815.13z"/>
		<path class="st1" d="M1071.97,873.88c0,0-3.24,4.26-9.71,3.95c-5.21-0.25-7.22-4.77-7.22-4.77S1064.61,870.76,1071.97,873.88z"/>
		<path class="st14" d="M1167,989.4c0,0,1.19,16.79,0,36.93c-0.79,13.35-14.3,31.24-16.22,35.66c-4.81,11.1-10.23,12.9-10.23,12.9
			l-41.96,10.28l-14.75,3.61l-46.52-13.89c0,0-21.19-59.14-12.68-92.43c8.51-33.29,21.51-56.41,21.51-56.41s37.96,37.17,87.39-3.15
			L1167,989.4z"/>
		<path class="st28" d="M1040.28,1083.88c0,0-23.04,71.71-24.52,96.12c-1.48,24.41,44.04,346.82,45.87,358.07
			c1.73,10.6,14.89,17.36,14.89,17.36s6.06,3.57,14.7,1.13c11.99-3.39,15.78-7.44,15.78-7.44s17.93-229.94,6.84-312.08
			c-11.1-82.14-11.23-153.17-11.23-153.17H1040.28z"/>
		<path class="st26" d="M1137.89,1081.74c0,0,35.14,47.15,38.42,79.02c3.28,31.87,5.14,143.83,12.12,174.9
			c6.98,31.07,32.62,90.87,32.62,187.78c0,0-2.67,5.55-10.9,8.51c-2.63,0.95-6.16,1.86-9.58,2.65c-6.79,1.56-13.75-1.76-16.85-8
			c-17.34-34.91-72.56-147.49-75.39-170.86c-2-16.54-19.44-126-57.48-190.22c-9.13-15.42,5.6-76.74,5.6-76.74L1137.89,1081.74z"/>
		<path class="st0" d="M1070.93,874.67c0,0-0.81,3.44-9.37,2.91c0,0-7.19-0.45-6.97-4.23
			C1054.59,873.35,1061.56,870.66,1070.93,874.67z"/>
		<path class="st28" d="M1036.6,1072.81c0,0,9.25,7.32,27.62,7.69c21.95,0.44,76.32-5.59,76.32-5.59s2.42,6.75,2.32,13.88
			c0,0-66.42,16.75-104.9,2.45C1037.97,1091.22,1033,1081.89,1036.6,1072.81z"/>
		<g>
			<path class="st0" d="M1058.96,1099.41c-5.52,0-10.01-5.08-10.01-11.33c0-6.25,4.49-11.33,10.01-11.33s10.01,5.08,10.01,11.33
				C1068.97,1094.32,1064.48,1099.41,1058.96,1099.41z M1058.96,1080.06c-3.69,0-6.7,3.59-6.7,8.01c0,4.42,3,8.02,6.7,8.02
				c3.69,0,6.7-3.6,6.7-8.02C1065.65,1083.65,1062.65,1080.06,1058.96,1080.06z"/>
		</g>
		
			<rect x="1092.36" y="1007.08" transform="matrix(0.7542 -0.6567 0.6567 0.7542 -422.2593 1009.7406)" class="st29" width="90.22" height="123.5"/>
		<path class="st13" d="M1125.2,1086c0,0-24.93,2.92-24.85,8.83c0.08,5.92,6.21,18.08,9.29,18.62c3.08,0.54,20.29-16.44,20.29-16.44
			L1125.2,1086z"/>
		<path class="st14" d="M1133.53,922.91c0,0,33.29,2.33,46.04,33.35c12.76,31.02,36.97,83.09,36.97,91.85
			c0,8.76-13.52,35.77-86.15,51.29c0,0-7.51-7.9-7.06-14.15c0,0,45.33-38.94,45.21-43.49c-0.23-8.61-7.43-19.97-47.23-59.79
			C1110.5,971.15,1133.53,922.91,1133.53,922.91z"/>
	</g>
	<g>
		<g>
			<g>
				<g>
					<path class="st30" d="M413.53,1595.78h-0.33c-1.94,0-3.5-1.59-3.45-3.53l5.23-226.86l15.42-1.8l-13.15,228.68
						C417.14,1594.24,415.51,1595.78,413.53,1595.78z"/>
				</g>
				<g>
					<path class="st31" d="M661.46,1595.78h0.33c1.94,0,3.5-1.59,3.45-3.53l-5.23-226.86l-15.42-1.8l13.15,228.68
						C657.85,1594.24,659.49,1595.78,661.46,1595.78z"/>
				</g>
				<path class="st31" d="M403.32,1351.32v-155.46c0-27.35,22.17-49.53,49.53-49.53h112c27.35,0,49.53,22.17,49.53,49.53v161.4
					L403.32,1351.32z"/>
				<path class="st30" d="M634.45,1375.86H418.19c-8.21,0-14.87-6.66-14.87-14.87v-9.67h231.13V1375.86z"/>
				<path class="st31" d="M660.36,1375.86H496.75c-6.07,0-11-4.92-11-11v-2.55c0-6.07,4.92-11,11-11h163.61c6.07,0,11,4.92,11,11
					v2.55C671.36,1370.94,666.44,1375.86,660.36,1375.86z"/>
			</g>
			<g>
				<path class="st28" d="M654.01,1312.58c-16.05,27.93-36.23,38.71-36.23,38.71h-83.96
					C533.82,1351.29,666.25,1291.28,654.01,1312.58z"/>
				<g>
					<path class="st13" d="M589.53,1528.65c-2.19,2.51-2.47,5.31-1.38,8.3c0,0.01,0.01,0.03,0.02,0.04c2,5.53,8.62,11.71,16.3,17.88
						c0.98,0.79,1.86,1.51,2.62,2.18c0.2,0.17,0.4,0.35,0.59,0.53c0.15,0.14,0.3,0.28,0.45,0.41c7.17,6.61,4.47,8.12,17.34,21.52
						c14.68,15.27,24.79,15.55,27.66,14.16c2.43-1.19-2.51-9.29-7.99-18.39c-0.27-0.44-0.53-0.88-0.8-1.33
						c-0.73-1.21-1.45-2.44-2.18-3.66c-6.42-10.96-4.77-16.1-3.25-32.41c1.24-13.25,20.62-74.04,20.62-74.04l-28.13-4.85
						c0,0-8.47,48.4-17.81,55.86c-4.99,3.97-10.58,4.02-15.38,6.97c-0.34,0.21-0.67,0.42-1,0.63
						C594.5,1524.27,591.72,1526.14,589.53,1528.65z"/>
					<path class="st28" d="M589.53,1528.65c-2.19,2.51-2.47,5.31-1.38,8.3c0,0.01,0.01,0.03,0.02,0.04
						c2.45,5.53,8.9,11.68,16.33,17.83c0.97,0.81,1.83,1.55,2.59,2.24c0.2,0.17,0.4,0.35,0.59,0.53c0.15,0.14,0.3,0.28,0.45,0.41
						c7.17,6.61,4.47,8.12,17.34,21.52c14.68,15.27,24.79,15.55,27.66,14.16c2.43-1.19-2.51-9.29-7.99-18.39
						c-2.86-1.05-16.13-6.44-26.17-19.28c-8.84-11.28-14.73-25.77-20.75-34.17c-0.34,0.21-0.67,0.42-1,0.63
						C594.5,1524.27,591.72,1526.14,589.53,1528.65z"/>
					<path class="st13" d="M816.37,1511.08c1.74,8.68,14.11,7.24,27.94,3.86c13.83-3.38,10.54,0.64,30.22-1.54
						c19.68-2.18,25.64-9.52,26.24-12.44c0.54-2.6-9.19-3.51-19.62-4.71c-1.31-0.15-2.63-0.31-3.95-0.47
						c-11.78-1.48-20.4-9.08-31.1-15.32c-10.13-5.91-25.25-30-25.25-30l-26.99,2.14c0,0,14.16,21.51,19.64,30.87
						c3.22,5.5,3.05,12.78,2.65,18.39C815.95,1504.9,815.75,1508.02,816.37,1511.08z"/>
					<path class="st28" d="M844.31,1514.94c13.83-3.38,10.54,0.64,30.22-1.54c19.68-2.18,25.64-9.52,26.24-12.44
						c0.54-2.6-9.19-3.51-19.62-4.71l-0.1,0.2c0,0-11.8,8.37-28.19,8.76c-13.35,0.32-27.5-3.5-36.72-3.35
						c-0.21,3.05-0.41,6.17,0.21,9.23C818.1,1519.77,830.48,1518.32,844.31,1514.94z"/>
					<path class="st28" d="M712.93,1338.49l-25.23,67.9l-32.94,88.65c0,0-8.94,0.86-17.5-1.6c-7.88-2.28-16.93-8.24-16.93-8.24
						s9.15-95.19,26.21-149.83c4.37-14.03,9.27-25.37,14.68-31.76C687.67,1272.36,712.93,1338.49,712.93,1338.49z"/>
					<path class="st26" d="M687.27,1230.66c-16.53-5.33-63.68,1.51-111.04,10.79l-9.92-16.36l-102.3-7.99
						c0,0-33.76,74.86-15.28,122.56c2.72,7.01,8.11,11.51,17.31,11.65c0,0,1.49,0,1.5,0c0,0,60.88-0.04,80.66-0.04
						c50.87,0,107.67-34.97,115.01-36.44c12.03-2.41,16.84,21.65,28.86,46.9c12.02,25.25,113.04,111.84,113.04,111.84
						s15.53,0.15,21.94-2.25c6.9-2.59,9.42-5.95,9.42-5.95S724.55,1242.69,687.27,1230.66z"/>
					<path class="st29" d="M562.29,927.22c-13.11-6.88-33.04-7.81-36.28-8.25c-38.76-5.21-62.09,51.12-63.47,68.19
						c-2.53,31.46-19.17,36.26-42.6,55.96c-46.97,39.5-33.2,85.41-7.51,102.47c15.41,10.24,42.57,0,42.57,0
						c0.38,0.27,74.28-41.31,110.71-61.37C620.33,1076.45,595.69,944.76,562.29,927.22z"/>
					<path class="st13" d="M535.18,1067.14c0.16,0.1-17.92,6.28-30.01,0.92c-11.38-5.03-19.99-23.74-19.82-23.75
						c5.17-0.24,10.86-4.76,15.23-34.45l2.2,0.79l37.05,13.33c0,0-2.68,11.89-4.42,23.21
						C533.95,1056.69,533.16,1065.8,535.18,1067.14z"/>
					<path class="st32" d="M539.83,1023.99c0,0-2.68,11.89-4.42,23.21c-21.28-3.83-29.63-25.03-32.63-36.54L539.83,1023.99z"/>
					<path class="st13" d="M545.35,1035.78c0,0-50.69-6.8-45.97-38.31c4.72-31.5,1.36-53.6,33.92-50.58
						c32.56,3.01,37.04,15.97,38.02,26.87C572.3,984.66,558.65,1036.74,545.35,1035.78z"/>
					<path class="st29" d="M569.47,956.5c0,0-32.45,27.96-54.52,30.22c-22.07,2.25-30.43-4.83-30.43-4.83s13.01-10.8,20.84-28.23
						c2.31-5.14,7.18-8.66,12.79-9.15C533.92,943.14,563.79,942.52,569.47,956.5z"/>
					<path class="st29" d="M549.19,953.99c0,0,10.86,10.5,14.27,18.28c3.3,7.51,4.29,25.48,1.66,32.62c0,0,16.91-32.89,7.34-48.87
						C562.31,939.08,549.19,953.99,549.19,953.99z"/>
					<path class="st2" d="M577.87,1141.81c-1.53,102.61-0.42,81.17-11.65,90.9c-2.71,2.34-10.31,3.74-20.31,4.4
						c-31.46,2.09-86.77-3.1-88.88-8.91c-7.26-20.12-2.13-26.37-8.19-57.17c-0.63-3.28-1.41-6.82-2.33-10.68
						c-5.05-21.16-9.96-28.35,7.95-62.34c16.24-30.79,33.12-55.77,34.63-54.87c42.85,25.44,46.31,4.06,46.31,4.06
						S578.62,1091.76,577.87,1141.81z"/>
					<path class="st26" d="M687.69,1406.39l-32.94,88.65c0,0-8.94,0.86-17.5-1.6c-7.88-2.28-16.93-8.24-16.93-8.24
						s9.15-95.19,26.21-149.83L687.69,1406.39z"/>
					<path class="st2" d="M535.41,1047.19c0,0,44.09,7.48,49.27,26.46c5.18,18.99,35.65,130.59,35.65,130.59s-22.42,4.03-32.77-6.33
						c-10.36-10.36-36.03-96.07-36.03-96.07L535.41,1047.19z"/>
					<path class="st33" d="M545.91,1237.12c-31.46,2.09-86.77-3.1-88.88-8.91c-7.26-20.12-2.13-26.37-8.19-57.17l15.18-42.73
						c0,0-2.51,47.59,11.52,60.1c14.02,12.52,57.46,24.16,64.28,34.62C543.11,1228.04,545.28,1233.08,545.91,1237.12z"/>
					<path class="st13" d="M509.86,1217.1c0,0,31.04-6.91,36.05-4.16c5.01,2.75,17.25,12.79,18.78,16.28
						c1.53,3.49-11.15-2.65-15.28-3.76c-2.67-0.72-9.71,1.73-13.19,2.89c-14.65,4.88-23.63,2.37-23.63,2.37L509.86,1217.1z"/>
					<path class="st2" d="M489.07,1043.12c0,0-41.68,2.57-56.11,22.69c-20.31,28.33-60.6,149.05-37.51,165.16
						c26,18.13,118.35,4.74,118.35,4.74s3.07-14.36-1.2-21.31c-4.28-6.95-73.76-18.17-76.97-21.38
						c-3.21-3.21,40.09-62.54,40.09-72.16C475.72,1111.24,489.07,1043.12,489.07,1043.12z"/>
					<path class="st13" d="M547.41,1221.59c0,0,6.5,8.39,8.64,9.39c2.13,1,3.51,0.75,3.51,0.75l-4.38-7.89L547.41,1221.59z"/>
					<path class="st13" d="M545.91,1212.95l18.91,9.18c0,0-0.8,1.32-3.13,1.21c-2.33-0.11-8.2-2.25-8.2-2.25L545.91,1212.95z"/>
				</g>
				<g>
					<g>
						<polygon class="st4" points="549.21,1243.83 708.74,1243.83 756.73,1131.94 597.44,1131.94 						"/>
						<polygon class="st4" points="710.61,1236.58 499.94,1236.58 499.94,1243.65 708.74,1243.65 						"/>
					</g>
					<path class="st1" d="M668.47,1187.88c1.2-3.93-1.22-7.12-5.42-7.12c-4.2,0-8.57,3.19-9.77,7.12c-1.2,3.93,1.22,7.12,5.42,7.12
						C662.89,1195.01,667.27,1191.82,668.47,1187.88z"/>
				</g>
			</g>
		</g>
		<g>
			<g>
				<path class="st28" d="M944.63,1598.9h0.44c2.56,0,4.62-2.33,4.56-5.15l-6.92-331.01l-20.39-2.62l17.39,333.66
					C939.85,1596.65,942.01,1598.9,944.63,1598.9z"/>
			</g>
			<g>
				<path class="st28" d="M514.82,1598.9h-0.43c-2.56,0-4.62-2.33-4.56-5.15l6.92-331.01l20.39-2.62l-17.39,333.66
					C519.59,1596.65,517.43,1598.9,514.82,1598.9z"/>
			</g>
			<path class="st28" d="M952.66,1267.52H488.17c-4.1,0-7.43-3.33-7.43-7.43v-8.83c0-4.1,3.33-7.43,7.43-7.43h464.48
				c4.1,0,7.43,3.33,7.43,7.43v8.83C960.09,1264.19,956.76,1267.52,952.66,1267.52z"/>
		</g>
	</g>
	<path class="st34" d="M2650.62,1603.42H132.82c-2,0-3.63-1.63-3.63-3.63v-3.51c0-2,1.63-3.63,3.63-3.63h2517.79
		c2,0,3.63,1.63,3.63,3.63v3.51C2654.24,1601.78,2652.61,1603.42,2650.62,1603.42z"/>
</g>
</svg>
