<svg id="Capa_1" data-name="Capa 1" xmlns="http://www.w3.org/2000/svg" viewBox="0 0 316.94 295.15"><defs><style>.cls-1{fill:#1f3f5f;}.cls-2,.cls-4{fill:#203f5f;}.cls-3{fill:#3f566b;}.cls-4{font-size:34px;letter-spacing:0.14em;}.cls-4,.cls-6{font-family:AzoSans-Regular, Azo Sans;}.cls-5{letter-spacing:0.03em;}.cls-6{font-size:56px;fill:#ed8525;letter-spacing:0.14em;}</style></defs><path class="cls-1" d="M220.83,185.22c-.89-16.66-9.59-29.71-24.06-39.36-19-12.65-38.56-24.42-57-38-8.37-6.17-15.86-13.34-21.6-22.13-13.71-21-8.17-46.48,13-60.08,8.65-5.56,18.18-8.63,28.22-10.26,1.09-.18,2.8-1.26,3.31,1,.47,2-.66,2.77-2.38,3.5C150.25,24.14,143,31.28,140,41.88c-4,13.66,1,24.93,10.15,34.86,7.28,7.93,16.76,12.91,25.52,18.84,14.65,9.93,30,18.77,44.06,29.62,11,8.53,20,18.83,25.09,32,8.54,22,.87,50.37-27.93,61.13a79.13,79.13,0,0,1-20,4.78c-1.17.12-2.59.85-2.73-1.28-.1-1.52.18-2.39,2-2.91,9.54-2.76,16.93-8.28,21.28-17.44A37.77,37.77,0,0,0,220.83,185.22Z"/><path class="cls-2" d="M127.25,223.57c-9.88,0-19.75,0-29.62,0-1.22,0-3.16,1-3.43-1.56-.24-2.36,1.19-2.53,3-2.78,5.61-.8,8.44-4.27,8.56-10.4.13-6.75-2-13-4.42-19.19Q75.52,123.91,49.63,58.26a7.1,7.1,0,0,1-.07-5.66c4-10.21,7.73-20.49,11.63-30.73.44-1.15.4-2.77,2.41-2.83s2.29,1.53,2.85,2.86c23.88,57.07,46.93,114.48,69.67,172,2.52,6.38,5.26,12.65,9.34,18.23,3.11,4.27,7.13,6.94,12.55,7.08,1.69,0,2.86.25,2.79,2.43-.07,2.54-1.83,1.9-3.19,1.91C147.49,223.59,137.37,223.57,127.25,223.57Z"/><path class="cls-3" d="M16.89,219.43c3.74,0,7.47.06,11.21,0,1.75-.05,2.4.5,2.39,2.32s-1,1.92-2.36,1.92c-7.6,0-15.19-.06-22.79,0-1.72,0-2.49-.45-2.46-2.29s1.05-2,2.43-1.94C9.17,219.45,13,219.43,16.89,219.43Z"/><text class="cls-4" transform="translate(0 276.19)">CONSU<tspan class="cls-5" x="144.16" y="0">L</tspan><tspan x="163.81" y="0">TING</tspan></text><text class="cls-6" transform="translate(239.08 48.33)">+</text></svg>