<?xml version="1.0" encoding="utf-8"?>
<!-- Generator: Adobe Illustrator 26.3.1, SVG Export Plug-In . SVG Version: 6.00 Build 0)  -->
<svg version="1.1" id="Capa_1" xmlns="http://www.w3.org/2000/svg" xmlns:xlink="http://www.w3.org/1999/xlink" x="0px" y="0px"
	 viewBox="0 0 269 295.1" style="enable-background:new 0 0 269 295.1;" xml:space="preserve">
<style type="text/css">
	.st0{fill:#1F3F5F;}
	.st1{fill:#203F5F;}
	.st2{fill:#3F566B;}
	.st3{enable-background:new    ;}
	.st4{fill:#ED8525;}
</style>
<g>
	<path class="st0" d="M220.8,185.2c-0.9-16.7-9.6-29.7-24.1-39.4c-19-12.6-38.6-24.4-57-38c-8.4-6.2-15.9-13.3-21.6-22.1
		c-13.7-21-8.2-46.5,13-60.1c8.6-5.6,18.2-8.6,28.2-10.3c1.1-0.2,2.8-1.3,3.3,1c0.5,2-0.7,2.8-2.4,3.5c-10.1,4.2-17.3,11.4-20.3,22
		c-4,13.7,1,24.9,10.1,34.9c7.3,7.9,16.8,12.9,25.5,18.8c14.6,9.9,30,18.8,44.1,29.6c11,8.5,20,18.8,25.1,32
		c8.5,22,0.9,50.4-27.9,61.1c-6.4,2.5-13.2,4.1-20,4.8c-1.2,0.1-2.6,0.9-2.7-1.3c-0.1-1.5,0.2-2.4,2-2.9c9.5-2.8,16.9-8.3,21.3-17.4
		C219.8,196.4,220.9,190.8,220.8,185.2z"/>
	<path class="st1" d="M127.2,223.6c-9.9,0-19.8,0-29.6,0c-1.2,0-3.2,1-3.4-1.6c-0.2-2.4,1.2-2.5,3-2.8c5.6-0.8,8.4-4.3,8.6-10.4
		c0.1-6.8-2-13-4.4-19.2C84.1,145.8,66.9,102,49.6,58.3c-0.8-1.8-0.8-3.8-0.1-5.7c4-10.2,7.7-20.5,11.6-30.7
		c0.4-1.1,0.4-2.8,2.4-2.8s2.3,1.5,2.9,2.9c23.9,57.1,46.9,114.5,69.7,172c2.5,6.4,5.3,12.6,9.3,18.2c3.1,4.3,7.1,6.9,12.6,7.1
		c1.7,0,2.9,0.2,2.8,2.4c-0.1,2.5-1.8,1.9-3.2,1.9C147.5,223.6,137.4,223.6,127.2,223.6z"/>
	<path class="st2" d="M16.9,219.4c3.7,0,7.5,0.1,11.2,0c1.8-0.1,2.4,0.5,2.4,2.3s-1,1.9-2.4,1.9c-7.6,0-15.2-0.1-22.8,0
		c-1.7,0-2.5-0.4-2.5-2.3s1-2,2.4-1.9C9.2,219.4,13,219.4,16.9,219.4z"/>
	<g class="st3">
		<path class="st1" d="M19.6,251.2c2.6,0,5,0.6,6.9,1.7v3.5c-1.8-1.4-4.4-2.3-7-2.3c-5.6,0-9.6,4.2-9.6,9.7s3.9,9.7,9.8,9.7
			c2.7,0,5.1-0.9,7.1-2.5v3.6c-2,1.3-4.7,1.9-7.2,1.9c-7.5,0-12.9-5.4-12.9-12.6C6.8,256.9,11.9,251.2,19.6,251.2z"/>
		<path class="st1" d="M47.2,251.2c7.1,0,12.5,5.5,12.5,12.7c0,7.1-5.4,12.7-12.5,12.7s-12.5-5.5-12.5-12.7
			C34.7,256.7,40,251.2,47.2,251.2z M47.2,273.6c5.4,0,9.3-4.3,9.3-9.7s-3.9-9.7-9.3-9.7s-9.3,4.3-9.3,9.7S41.8,273.6,47.2,273.6z"
			/>
		<path class="st1" d="M68.6,276.2v-24.6h3.1l10.3,13.7c1.4,1.9,2.9,3.8,4.2,5.7l0.1,0c0-2.1-0.1-4.6-0.1-7v-12.4h3.1v24.6h-3.1
			l-10.3-13.7c-1.4-1.9-2.9-3.8-4.2-5.7l-0.1,0c0,2.1,0.1,4.6,0.1,7v12.4H68.6z"/>
		<path class="st1" d="M98.9,271.1c2.3,1.8,5.3,2.5,7.4,2.5c2.9,0,5-1.3,5-4c0-3.2-2.9-3.7-6.1-4.6c-3.5-1-6.8-2.4-6.8-6.9
			c0-4.4,3.2-6.9,8-6.9c2.3,0,5.1,0.6,7.1,1.8v3.4c-2.2-1.6-5-2.3-7.1-2.3c-2.8,0-4.7,1.2-4.7,3.7c0,3.1,2.9,3.6,5.8,4.4
			c3.6,1,7.1,2.4,7.1,7.1c0,4.5-3.3,7.1-8.2,7.1c-2.4,0-5.3-0.6-7.4-1.9V271.1z"/>
		<path class="st1" d="M123.1,264.6v-13h3.2v12.7c0,3,0.2,4.9,1,6.4c0.9,1.6,2.6,3,5.8,3c3,0,4.8-1.2,5.8-3c0.8-1.5,0.9-3.4,0.9-6.2
			v-12.8h3.1v12.6c0,3.6-0.2,6.3-1.6,8.5c-1.6,2.4-4.5,3.8-8.3,3.8c-3.8,0-6.7-1.5-8.3-3.8C123.3,270.5,123.1,267.7,123.1,264.6z"/>
	</g>
	<g class="st3">
		<path class="st1" d="M152.3,251.6h3.2v21.7h11.6v2.9h-14.9V251.6z"/>
	</g>
	<g class="st3">
		<path class="st1" d="M178.1,254.5h-8.3v-2.9h19.8v2.9h-8.3v21.7h-3.2V254.5z"/>
		<path class="st1" d="M197.8,251.6h3.2v24.6h-3.2V251.6z"/>
		<path class="st1" d="M211.3,276.2v-24.6h3.1l10.3,13.7c1.4,1.9,2.9,3.8,4.2,5.7l0.1,0c0-2.1-0.1-4.6-0.1-7v-12.4h3.1v24.6H229
			l-10.3-13.7c-1.4-1.9-2.9-3.8-4.2-5.7l-0.1,0c0,2.1,0.1,4.6,0.1,7v12.4H211.3z"/>
		<path class="st1" d="M254,251.2c3.2,0,5.8,1,7.5,2v3.7c-2-1.6-4.7-2.7-7.6-2.7c-5.8,0-9.7,4.3-9.7,9.7c0,5.2,3.7,9.8,9.8,9.8
			c1.9,0,3.7-0.4,5-1.2v-5.7h-5.5v-2.8h8.7v10.2c-2.2,1.5-5.4,2.5-8.5,2.5c-7.3,0-12.7-5.3-12.7-12.6
			C241,256.7,246.3,251.2,254,251.2z"/>
	</g>
	<g class="st3">
		<path class="st4" d="M253.5,30.1h-11.5v-4h11.5V14.3h4.2V26h11.5v4h-11.5v11.8h-4.2V30.1z"/>
	</g>
</g>
</svg>
