<?xml version="1.0" encoding="UTF-8"?><svg id="Capa_1" xmlns="http://www.w3.org/2000/svg" viewBox="0 0 69.85 69.86"><defs><style>.cls-1{fill:#fff;}</style></defs><path d="M0,44.76c.33-.59,.62-1.21,.99-1.77,3.44-5.08,6.89-10.16,10.34-15.23,1.14-1.68,2.5-1.94,4.18-.81,1.13,.76,2.26,1.52,3.39,2.29,1.6,1.08,1.86,1.65,1.57,3.72,1.16,.28,2.34,.56,3.52,.85,.9,.22,1.79,.49,2.7,.69,.29,.06,.68,.05,.92-.1,1.49-.87,2.96-1.78,4.43-2.68,1.93-1.18,3.95-1.39,6.08-.62,1.69,.61,3.38,1.2,5.06,1.82,1.13,.42,2.25,.48,3.41,.17,1.18-.32,2.38-.6,3.59-.91,.02-.34,.01-.69,.07-1.01,.14-.75,.53-1.36,1.19-1.75,1.53-.89,3.06-1.8,4.6-2.66,1.28-.71,2.75-.32,3.49,.95,3.33,5.69,6.64,11.38,9.93,17.09,.75,1.3,.33,2.75-.97,3.53-1.46,.87-2.95,1.71-4.42,2.56-.78,.45-1.6,.54-2.41,.14-.36-.18-.55-.11-.81,.16-1.15,1.21-2.48,2.2-3.97,2.96-.63,.32-1.11,.24-1.29-.22-.23-.59,.13-.87,.6-1.11,1.76-.93,3.21-2.08,4.05-3.21-.08-.14-.15-.31-.24-.46-2.91-5.01-5.83-10.01-8.73-15.03-.26-.45-.48-.58-1.01-.43-1.31,.37-2.64,.68-3.97,.98-1.23,.28-2.44,.09-3.62-.34-1.64-.59-3.3-1.17-4.93-1.78-1.76-.66-3.42-.5-5.02,.49-2.4,1.48-4.81,2.93-7.2,4.42-.38,.23-.73,.56-.99,.91-1.36,1.88-2.69,3.77-4.03,5.67-.53,.75-.41,1.16,.43,1.52,2.34,1,5.03,.33,6.72-1.69,.83-.99,1.62-2.03,2.47-3.01,.24-.27,.59-.5,.93-.61,1.16-.39,2.35-.71,3.51-1.08,.46-.15,.82-.08,1.19,.24,5.91,5.09,11.83,10.17,17.74,15.26,1.34,1.15,1.69,2.81,.99,4.32-.68,1.48-2.12,2.23-3.87,2.03-.15-.02-.31-.03-.5-.06-.12,1.44-.72,2.59-2.05,3.23-1.31,.63-2.56,.44-3.81-.4-.27,1.3-.84,2.37-2.07,2.93-1.2,.55-2.38,.47-3.58-.24-.05,.2-.09,.36-.13,.52-.53,2.46-3.41,3.81-5.51,2.1-1.07-.88-2.2-1.68-3.36-2.57-.8,1.25-1.88,2.01-3.39,1.9-1.49-.11-2.45-.97-3.03-2.29-2.61,1.33-5-.07-5.46-2.62-1.2,.22-2.34,.07-3.27-.81-.91-.85-1.22-1.93-1.05-3.18-1.76-.08-2.97-.84-3.5-2.49-.54-1.67,.4-2.92,1.3-4.11l-2.83-2.64c-1.26,.76-2.43,.35-3.57-.5-.98-.73-2.01-1.41-3.05-2.06-.84-.53-1.49-1.17-1.74-2.16v-.82Zm30.47,20.53c1.17,.89,2.29,1.77,3.44,2.63,1.23,.92,2.85,.24,3.1-1.28,.14-.86-.14-1.57-.81-2.12-.88-.72-1.77-1.43-2.65-2.15-.36-.3-.51-.67-.2-1.07,.32-.43,.73-.4,1.13-.09,.11,.08,.21,.17,.32,.26,1.5,1.22,2.99,2.45,4.51,3.64,1.3,1.01,3.13,.31,3.37-1.27,.13-.83-.18-1.51-.84-2.04-2.11-1.7-4.21-3.4-6.31-5.11-.18-.14-.44-.27-.49-.45-.08-.29-.14-.72,.01-.9,.15-.19,.6-.22,.89-.17,.24,.04,.44,.3,.65,.47,2.81,2.27,5.62,4.55,8.43,6.82,1.06,.86,2.33,.79,3.1-.15,.79-.96,.59-2.23-.5-3.11-2.45-1.99-4.91-3.98-7.37-5.97-.21-.17-.51-.32-.6-.54-.11-.27-.18-.74-.03-.9,.18-.19,.64-.26,.93-.19,.3,.08,.55,.39,.81,.6,2.81,2.27,5.61,4.56,8.43,6.82,1,.81,2.29,.71,3.05-.19,.79-.93,.65-2.23-.35-3.09-5.74-4.94-11.48-9.87-17.24-14.79-.18-.15-.54-.22-.77-.16-.9,.22-1.79,.5-2.67,.8-.28,.1-.56,.29-.76,.51-.86,1-1.65,2.06-2.52,3.04-2.12,2.37-5.65,3.03-8.49,1.64-1.26-.61-1.81-2.14-.98-3.21,2.07-2.66,3.43-5.91,6.32-7.9l-5.88-1.45c-3.31,4.87-6.69,9.85-10.13,14.92,.78,.73,1.55,1.43,2.3,2.15,.31,.3,.55,.3,.93,.04,1.67-1.14,3.8-.65,4.86,1.06,.08,.12,.15,.25,.25,.44,.87-1.19,1.97-1.8,3.38-1.63,1.43,.18,2.36,1.05,2.89,2.4,1.53-.82,2.99-.82,4.26,.36,1.36,1.27,1.41,2.8,.59,4.43,.12,.04,.2,.08,.29,.09,2.74,.57,3.81,3.23,2.22,5.53-.28,.41-.57,.82-.88,1.27ZM7.03,49.3c.3-.24,.69-.42,.9-.73,3.65-5.35,7.29-10.7,10.92-16.07,.48-.7,.36-1.26-.35-1.75-1.33-.91-2.67-1.81-4.01-2.71-.76-.5-1.28-.4-1.79,.35-3.63,5.34-7.26,10.67-10.88,16.01-.51,.75-.39,1.28,.36,1.79,1.33,.91,2.67,1.81,4.01,2.7,.22,.15,.48,.23,.84,.39Zm61.41-3.1c-.16-.39-.25-.67-.39-.92-3.21-5.54-6.43-11.07-9.65-16.6-.5-.85-1-.98-1.86-.49-1.32,.75-2.64,1.52-3.95,2.28-.96,.56-1.1,1.04-.55,2,1.13,1.94,2.26,3.88,3.39,5.83,2.08,3.57,4.15,7.14,6.23,10.71,.49,.84,.98,.98,1.8,.52,1.44-.82,2.88-1.63,4.3-2.5,.29-.18,.47-.55,.69-.82Zm-42.35,8.35c-.95,0-1.47,.38-1.89,.98-1.48,2.13-2.97,4.24-4.45,6.36-.74,1.06-.62,2.24,.3,2.89,.97,.7,2.13,.46,2.89-.62,.72-1.02,1.43-2.05,2.14-3.07,.8-1.16,1.61-2.31,2.41-3.47,.45-.65,.51-1.36,.13-2.06-.36-.67-.95-1.01-1.53-1.01Zm-9.23,7.69c.44-.25,1.01-.4,1.29-.77,1.44-1.95,2.84-3.94,4.19-5.95,.55-.82,.23-1.92-.56-2.48-.82-.58-1.97-.5-2.57,.32-1.42,1.94-2.82,3.9-4.12,5.92-.81,1.25,.21,2.84,1.78,2.95Zm13.79-.3c-.07-.9-.59-1.64-1.39-1.9-.84-.27-1.61-.01-2.14,.74-.75,1.08-1.51,2.15-2.25,3.24-.16,.23-.29,.52-.32,.8-.11,.87,.36,1.64,1.14,1.97,.82,.35,1.74,.13,2.3-.63,.77-1.04,1.51-2.1,2.22-3.17,.21-.31,.29-.69,.43-1.05Zm-16.23-9.82c-.41,.21-.94,.32-1.21,.65-.67,.79-1.29,1.65-1.79,2.55-.49,.87-.06,1.96,.82,2.45,.87,.48,1.86,.25,2.45-.59,.46-.65,.9-1.31,1.37-1.95,.47-.64,.49-1.31,.15-1.98-.35-.68-.95-1.01-1.78-1.13Z"/><path d="M62.22,0c.08,.04,.15,.1,.23,.12,2.87,.71,4.6,2.84,4.64,5.78,.03,2.14,.01,4.27,0,6.41,0,.86-.22,1.07-1.1,1.07-2.71,0-5.41,0-8.12,0-.25,0-.5,0-.82,0-.01,.27-.04,.51-.04,.75,0,1.57,0,3.14,0,4.71,0,.52-.2,.92-.77,.91-.52,0-.72-.38-.72-.88,0-4.48-.01-8.96,.02-13.44,.01-1.5,.7-2.75,1.79-3.89-.27-.02-.46-.05-.65-.05-12.98,0-25.96,0-38.95,0-1.62,0-2.49,.86-2.49,2.48,0,6,0,12,0,18.01,0,.2,0,.41,0,.61-.02,.5-.25,.86-.78,.84-.53-.02-.71-.39-.71-.89,0-6.32,0-12.64,.02-18.96,0-1.51,.97-2.79,2.39-3.34C16.37,.17,16.58,.08,16.78,0,31.93,0,47.08,0,62.22,0Zm3.35,11.86c0-2.21,.11-4.35-.03-6.47-.16-2.39-2.15-3.99-4.51-3.89-2.25,.1-3.99,1.98-4.01,4.34-.01,1.43,0,2.86,0,4.29,0,.56,0,1.12,0,1.72h8.55Z"/><path d="M44.45,24.26c-1.74,2.38-2.73,2.5-5.27,.64-2.29,2.96-3.35,3.13-5.71,.91-1.02,1.35-2.41,1.86-4.05,1.71-1.73-.16-2.74-1.28-3.39-2.73-1.15,.41-2.26,.81-3.37,1.2-.17,.06-.35,.1-.53,.14-.48,.11-.82-.09-.93-.55-.11-.44,.14-.73,.56-.87,.9-.31,1.8-.62,2.7-.94,.32-.11,.61-.28,.84-.39-.08-1.03-.26-2-.2-2.95,.14-2.24,1.27-3.94,3.2-5.08,1.1-.65,2.14-.56,3.09,.23,.94,.78,1.23,1.89,.79,3.08-.8,2.13-2.29,3.69-4.16,4.9-.61,.39-.68,.69-.31,1.27,.63,.98,1.54,1.41,2.74,1.21,1.25-.21,1.7-.69,2.02-1.96,.07-.27,.38-.59,.63-.66,.21-.05,.56,.19,.76,.39,.54,.55,.97,1.2,1.55,1.7,.58,.5,1.14,.45,1.6-.16,.45-.58,.81-1.26,1.12-1.93,.46-.97,.96-1.05,1.64-.23,.39,.47,.83,.9,1.31,1.27,.53,.41,1.09,.32,1.5-.2,.32-.41,.57-.87,.81-1.33,.35-.66,.78-.77,1.36-.31,1.09,.85,1.58,.83,2.59-.1,.35-.33,.73-.4,1.09-.07,.37,.34,.3,.72,0,1.09-.86,1.09-2.18,1.47-3.48,.96-.17-.06-.33-.13-.52-.21Zm-17.65-1.76c1.72-.95,3.23-2.58,3.88-4.13,.25-.61,.25-1.15-.28-1.61-.5-.43-1.03-.35-1.57-.04-1.91,1.1-2.81,3.61-2.03,5.78Z"/><path d="M35.41,10.43c-4.23,0-8.46,0-12.69,0-.23,0-.51,.07-.67-.04-.26-.18-.59-.46-.62-.72-.02-.21,.33-.5,.58-.68,.14-.1,.4-.04,.6-.04,8.55,0,17.1,0,25.65,0,.09,0,.18,0,.27,0,.53,0,1,.12,.98,.76-.01,.65-.5,.72-1.02,.72-4.37,0-8.73,0-13.1,0Z"/><path d="M57.21,22.93c0,.54-.39,.95-.92,.96-.55,.01-1.01-.44-.99-.98,.02-.51,.46-.94,.97-.94,.53,0,.94,.42,.94,.95Z"/><path class="cls-1" d="M30.47,65.29c.31-.45,.59-.86,.88-1.27,1.59-2.3,.52-4.96-2.22-5.53-.09-.02-.17-.05-.29-.09,.82-1.63,.77-3.16-.59-4.43-1.27-1.18-2.73-1.18-4.26-.36-.53-1.34-1.46-2.22-2.89-2.4-1.41-.18-2.51,.44-3.38,1.63-.11-.18-.17-.31-.25-.44-1.07-1.72-3.19-2.2-4.86-1.06-.38,.26-.62,.26-.93-.04-.75-.72-1.52-1.42-2.3-2.15,3.45-5.08,6.83-10.05,10.13-14.92l5.88,1.45c-2.89,1.99-4.25,5.23-6.32,7.9-.83,1.07-.27,2.59,.98,3.21,2.84,1.39,6.37,.72,8.49-1.64,.88-.98,1.67-2.04,2.52-3.04,.19-.22,.48-.42,.76-.51,.88-.3,1.77-.57,2.67-.8,.23-.06,.59,.01,.77,.16,5.75,4.92,11.5,9.86,17.24,14.79,1,.86,1.14,2.16,.35,3.09-.76,.9-2.05,1-3.05,.19-2.82-2.27-5.62-4.55-8.43-6.82-.26-.21-.51-.52-.81-.6-.29-.07-.74,0-.93,.19-.15,.16-.08,.62,.03,.9,.09,.22,.39,.37,.6,.54,2.46,1.99,4.91,3.98,7.37,5.97,1.09,.88,1.29,2.14,.5,3.11-.76,.93-2.03,1.01-3.1,.15-2.81-2.27-5.62-4.55-8.43-6.82-.21-.17-.41-.43-.65-.47-.29-.05-.73-.01-.89,.17-.15,.19-.1,.62-.01,.9,.05,.18,.32,.31,.49,.45,2.1,1.7,4.2,3.41,6.31,5.11,.66,.53,.97,1.21,.84,2.04-.24,1.58-2.07,2.28-3.37,1.27-1.52-1.19-3.01-2.43-4.51-3.64-.11-.09-.21-.17-.32-.26-.4-.3-.81-.34-1.13,.09-.31,.4-.16,.77,.2,1.07,.88,.72,1.77,1.43,2.65,2.15,.67,.55,.95,1.26,.81,2.12-.25,1.52-1.87,2.2-3.1,1.28-1.15-.85-2.27-1.73-3.44-2.63Z"/><path class="cls-1" d="M7.03,49.3c-.36-.16-.62-.24-.84-.39-1.34-.89-2.68-1.79-4.01-2.7-.75-.51-.86-1.04-.36-1.79,3.62-5.34,7.25-10.68,10.88-16.01,.51-.75,1.04-.85,1.79-.35,1.34,.89,2.68,1.79,4.01,2.71,.71,.49,.83,1.04,.35,1.75-3.63,5.36-7.27,10.72-10.92,16.07-.21,.31-.6,.49-.9,.73Zm-.78-6.26c-.78,.01-1.43,.67-1.43,1.44,0,.8,.7,1.47,1.5,1.44,.78-.03,1.41-.69,1.39-1.48-.02-.79-.68-1.42-1.46-1.41Z"/><path class="cls-1" d="M68.44,46.21c-.22,.27-.4,.64-.69,.82-1.41,.86-2.86,1.68-4.3,2.5-.82,.46-1.31,.32-1.8-.52-2.08-3.57-4.16-7.14-6.23-10.71-1.13-1.94-2.26-3.88-3.39-5.83-.55-.96-.42-1.44,.55-2,1.32-.76,2.63-1.52,3.95-2.28,.86-.49,1.37-.36,1.86,.49,3.22,5.53,6.44,11.06,9.65,16.6,.14,.25,.23,.53,.39,.92Zm-4.81,.34c.8,0,1.44-.6,1.46-1.39,.02-.81-.65-1.49-1.45-1.48-.78,0-1.42,.66-1.42,1.44,0,.8,.62,1.43,1.42,1.43Z"/><path class="cls-1" d="M26.09,54.55c.58,0,1.17,.34,1.53,1.01,.38,.7,.31,1.41-.13,2.06-.79,1.16-1.6,2.31-2.41,3.47-.71,1.03-1.42,2.06-2.14,3.07-.76,1.08-1.92,1.31-2.89,.62-.91-.65-1.04-1.83-.3-2.89,1.48-2.12,2.97-4.24,4.45-6.36,.42-.6,.94-.98,1.89-.98Z"/><path class="cls-1" d="M16.87,62.24c-1.56-.11-2.58-1.7-1.78-2.95,1.3-2.02,2.71-3.98,4.12-5.92,.6-.82,1.75-.9,2.57-.32,.79,.56,1.11,1.66,.56,2.48-1.35,2.02-2.75,4-4.19,5.95-.27,.37-.85,.52-1.29,.77Z"/><path class="cls-1" d="M30.66,61.94c-.14,.35-.22,.74-.43,1.05-.72,1.07-1.46,2.13-2.22,3.17-.56,.76-1.48,.98-2.3,.63-.78-.33-1.25-1.1-1.14-1.97,.03-.28,.16-.57,.32-.8,.73-1.09,1.49-2.16,2.25-3.24,.53-.75,1.3-1.01,2.14-.74,.8,.26,1.32,.99,1.39,1.9Z"/><path class="cls-1" d="M14.43,52.12c.83,.12,1.43,.45,1.78,1.13,.34,.67,.32,1.34-.15,1.98-.47,.64-.91,1.3-1.37,1.95-.59,.83-1.58,1.07-2.45,.59-.88-.48-1.31-1.58-.82-2.45,.51-.9,1.13-1.75,1.79-2.55,.27-.33,.8-.44,1.21-.65Z"/><path class="cls-1" d="M65.57,11.86h-8.55c0-.6,0-1.16,0-1.72,0-1.43-.01-2.86,0-4.29,.02-2.36,1.77-4.24,4.01-4.34,2.36-.11,4.35,1.5,4.51,3.89,.14,2.12,.03,4.26,.03,6.47Z"/><path class="cls-1" d="M26.8,22.5c-.77-2.17,.13-4.68,2.03-5.78,.54-.31,1.07-.4,1.57,.04,.53,.45,.53,1,.28,1.61-.65,1.55-2.16,3.19-3.88,4.13Z"/><path d="M6.25,43.04c.78-.01,1.44,.62,1.46,1.41,.02,.78-.6,1.45-1.39,1.48-.8,.03-1.5-.65-1.5-1.44,0-.77,.66-1.43,1.43-1.44Z"/><path d="M63.63,46.55c-.8,0-1.42-.63-1.42-1.43,0-.79,.64-1.43,1.42-1.44,.81,0,1.47,.67,1.45,1.48-.02,.79-.65,1.4-1.46,1.39Z"/></svg>