<?xml version="1.0" encoding="utf-8"?>
<!-- Generator: Adobe Illustrator 26.3.1, SVG Export Plug-In . SVG Version: 6.00 Build 0)  -->
<svg version="1.1" id="Capa_1" xmlns="http://www.w3.org/2000/svg" xmlns:xlink="http://www.w3.org/1999/xlink" x="0px" y="0px"
	 viewBox="0 0 140 140" style="enable-background:new 0 0 140 140;" xml:space="preserve">
<g>
	<path d="M114.59,105.55c-0.46,0.89-0.81,1.87-1.42,2.63c-1.23,1.54-2.96,1.96-4.89,1.96c-14.54-0.02-29.08-0.01-43.62-0.01
		c-2.38,0-4.75-0.02-7.13,0.02c-0.46,0.01-0.98,0.15-1.36,0.4c-11.66,7.68-27.2,1.44-30.16-12.2c-1.22-5.62-0.07-10.85,3.26-15.57
		c0.63-0.89,1.35-1.08,2.05-0.58c0.67,0.49,0.7,1.26,0.09,2.14c-7.11,10.21-1.77,23.84,10.39,26.54c9.24,2.05,18.77-4.5,20.15-13.86
		c1.36-9.18-4.13-17.33-13.15-19.36c-4.78-1.08-9.24-0.1-13.3,2.65c-0.14,0.1-0.28,0.21-0.42,0.3c-0.71,0.45-1.5,0.34-1.93-0.27
		c-0.44-0.62-0.3-1.37,0.41-1.89c2.14-1.58,4.5-2.73,7.11-3.28c1.52-0.32,3.07-0.47,4.76-0.71c0-0.2,0-0.54,0-0.87
		c0-13.67,0-27.34,0-41.02c0-3.92,2.34-6.25,6.27-6.25c9.91,0,19.81,0.03,29.72-0.01c6.02-0.03,11.11,2.04,15.34,6.33
		c3.71,3.78,7.45,7.54,11.25,11.24c3.56,3.47,5.87,7.55,6.46,12.53c0.01,0.11,0.09,0.21,0.14,0.31
		C114.59,72.98,114.59,89.27,114.59,105.55z M59.73,107.47c0.38,0,0.55,0,0.72,0c16.11,0,32.21,0,48.32,0
		c1.93,0,3.21-1.27,3.21-3.22c0.01-14.19,0.03-28.39-0.01-42.58c-0.01-5.33-4.09-9.29-9.4-9.31c-2.72-0.01-5.45,0-8.17,0
		c-3.39-0.01-5.84-2.46-5.86-5.87c-0.01-2.69,0-5.39-0.01-8.08c0-0.52,0.01-1.05-0.08-1.56c-0.86-4.79-4.35-7.84-9.24-7.88
		c-9.3-0.06-18.6-0.02-27.9-0.01c-1.51,0-2.64,0.75-3.04,2c-0.16,0.51-0.2,1.08-0.2,1.62c-0.01,13.76-0.01,27.52-0.01,41.28
		c0,0.29,0,0.57,0,0.83c0.15,0.07,0.22,0.12,0.3,0.14c0.14,0.04,0.28,0.08,0.42,0.11c3.35,0.6,6.3,2.03,8.95,4.15
		c0.39,0.31,0.97,0.52,1.46,0.52c14.02,0.03,28.04,0.02,42.06,0.02c0.35,0,0.7-0.02,1.04,0.02c0.7,0.09,1.09,0.54,1.14,1.22
		c0.05,0.69-0.34,1.16-1,1.34c-0.3,0.08-0.63,0.04-0.95,0.04c-13.18,0-26.36,0-39.54,0c-0.33,0-0.67,0-0.96,0
		c0.84,1.59,1.69,3.09,2.41,4.65c0.3,0.64,0.58,0.89,1.31,0.89c12.17-0.02,24.33-0.02,36.5-0.02c0.29,0,0.58-0.01,0.87,0.01
		c0.82,0.04,1.36,0.54,1.38,1.26c0.02,0.75-0.54,1.31-1.39,1.36c-0.26,0.02-0.52,0-0.78,0c-11.91,0-23.81,0-35.72,0
		c-0.34,0-0.68,0-0.98,0c0.11,1.85,0.22,3.6,0.33,5.46c0.29,0,0.62,0,0.96,0c7.53,0,15.06,0,22.6,0c1.38,0,2.02,0.43,2.01,1.36
		c-0.01,0.91-0.66,1.33-2.03,1.33c-7.71,0-15.41,0.01-23.12-0.01c-0.7,0-1.13,0.09-1.22,0.91c-0.07,0.59-0.35,1.16-0.56,1.73
		C62.72,103.47,61.45,105.49,59.73,107.47z M110.71,52.68c0.02-0.1,0.06-0.16,0.04-0.2c-0.07-0.22-0.16-0.43-0.25-0.65
		c-0.92-2.13-2.26-3.96-3.89-5.6c-3.92-3.91-7.82-7.83-11.74-11.73c-0.57-0.57-1.16-1.13-1.79-1.65c-1.45-1.2-3.05-2.15-5.02-2.83
		c0.22,0.32,0.33,0.48,0.44,0.62c1.59,1.97,2.56,4.2,2.63,6.75c0.08,2.95,0.04,5.91,0.06,8.86c0.02,2.3,1.2,3.48,3.48,3.48
		c2.4,0,4.81,0.06,7.21-0.01c3.2-0.1,6.05,0.74,8.53,2.8C110.5,52.59,110.61,52.63,110.71,52.68z"/>
	<path d="M43.25,101.59c1.31-2.6,2.6-5.15,3.89-7.69c1.34-2.65,2.68-5.31,4.02-7.97c0.1-0.21,0.2-0.42,0.33-0.61
		c0.44-0.63,1.12-0.81,1.74-0.46c0.62,0.35,0.87,1.02,0.54,1.71c-0.62,1.31-1.28,2.59-1.93,3.88c-2.26,4.49-4.53,8.98-6.8,13.46
		c-0.78,1.55-1.57,1.68-2.78,0.47c-2.38-2.37-4.75-4.75-7.12-7.13c-0.5-0.5-0.7-1.06-0.32-1.72c0.34-0.58,0.89-0.77,1.49-0.58
		c0.34,0.11,0.64,0.38,0.9,0.64c1.79,1.77,3.57,3.56,5.35,5.34C42.77,101.15,42.98,101.35,43.25,101.59z"/>
	<path d="M84.51,65.97c-5.5,0-11.01,0-16.51,0c-0.23,0-0.46,0-0.7,0c-1.08-0.03-1.66-0.52-1.63-1.37c0.03-0.8,0.63-1.28,1.64-1.28
		c3.59-0.01,7.18,0,10.77,0c7.79,0,15.58,0,23.37,0c0.26,0,0.52-0.02,0.78,0.02c0.72,0.1,1.25,0.68,1.2,1.36
		c-0.06,0.72-0.46,1.17-1.2,1.25c-0.32,0.03-0.64,0.03-0.95,0.03C95.69,65.97,90.1,65.97,84.51,65.97z"/>
	<path d="M74.82,71.48c5.53,0,11.06-0.01,16.59,0.01c0.41,0,0.95,0.08,1.19,0.34c0.28,0.31,0.49,0.91,0.39,1.29
		c-0.1,0.38-0.59,0.7-0.98,0.93c-0.24,0.14-0.62,0.05-0.94,0.05c-10.8,0-21.6,0-32.4,0c-1.42,0-2.05-0.39-2.08-1.27
		c-0.03-0.91,0.65-1.36,2.09-1.36C64.05,71.48,69.43,71.48,74.82,71.48z"/>
	<path d="M72.05,49.19c-0.26,0.28-0.56,0.77-0.99,0.99c-0.56,0.28-1.15,0.06-1.5-0.51c-0.21-0.34-0.4-0.72-0.47-1.11
		c-0.16-0.88-0.68-1.06-1.48-1.01c-1.04,0.06-2.08,0.04-3.13,0.01c-0.49-0.02-0.74,0.14-0.87,0.62c-0.12,0.44-0.3,0.87-0.5,1.29
		c-0.35,0.72-1.06,0.99-1.73,0.69c-0.64-0.28-0.96-0.94-0.7-1.65c1.37-3.65,2.76-7.29,4.15-10.93c0.25-0.66,0.79-1.13,1.46-0.99
		c0.52,0.11,1.23,0.49,1.41,0.93c1.47,3.67,2.83,7.38,4.22,11.08C71.95,48.72,71.97,48.83,72.05,49.19z M64.9,44.83
		c0.96,0,1.83,0,2.77,0c-0.45-1.19-0.88-2.31-1.39-3.65C65.77,42.54,65.34,43.68,64.9,44.83z"/>
	<path d="M78.5,45.34c-1.01,1.43-1.93,2.83-2.97,4.15c-0.31,0.39-0.94,0.73-1.42,0.73c-1.04-0.01-1.42-1.21-0.75-2.18
		c1.15-1.67,2.33-3.31,3.52-5c-0.99-1.4-1.97-2.8-2.95-4.19c-0.43-0.61-0.54-1.22-0.03-1.82c0.59-0.7,1.52-0.61,2.14,0.22
		c0.82,1.12,1.6,2.26,2.46,3.48c0.85-1.2,1.64-2.35,2.47-3.48c0.58-0.79,1.38-0.91,2.02-0.35c0.58,0.5,0.63,1.16,0.09,1.94
		c-0.97,1.4-1.96,2.79-2.95,4.2c1.11,1.57,2.19,3.11,3.27,4.65c0.18,0.26,0.38,0.52,0.5,0.81c0.26,0.65,0.06,1.22-0.52,1.58
		c-0.67,0.41-1.3,0.26-1.76-0.36c-0.79-1.07-1.54-2.17-2.31-3.25C79.04,46.11,78.79,45.76,78.5,45.34z"/>
	<path d="M55.89,39.18c-0.69,0-1.23,0.04-1.77-0.01c-0.77-0.06-1.24-0.59-1.24-1.3c0-0.7,0.5-1.29,1.24-1.31
		c2.08-0.04,4.17-0.03,6.25,0c0.74,0.01,1.23,0.61,1.23,1.31c0,0.73-0.45,1.21-1.23,1.3c-0.29,0.03-0.58,0.02-0.87,0.03
		c-0.28,0-0.56,0-0.92,0c0,1.23,0,2.36,0,3.48c0,2,0.01,3.99,0,5.99c-0.01,1.01-0.51,1.58-1.33,1.59c-0.82,0.01-1.34-0.55-1.35-1.57
		c-0.02-2.78-0.01-5.56-0.01-8.33C55.89,40.02,55.89,39.68,55.89,39.18z"/>
	<path d="M99.52,74.1c-0.84,0-1.68,0.02-2.51-0.01c-0.79-0.03-1.34-0.58-1.35-1.29c0-0.71,0.56-1.3,1.33-1.31
		c1.7-0.02,3.41-0.02,5.11,0c0.79,0.01,1.33,0.58,1.34,1.3c0.01,0.71-0.54,1.27-1.33,1.3C101.26,74.12,100.39,74.1,99.52,74.1z"/>
</g>
</svg>
